%TF.GenerationSoftware,KiCad,Pcbnew,7.0.8*%
%TF.CreationDate,2023-12-06T22:26:14-05:00*%
%TF.ProjectId,RCTransmitterAecertRobotics,52435472-616e-4736-9d69-747465724165,rev?*%
%TF.SameCoordinates,Original*%
%TF.FileFunction,Soldermask,Bot*%
%TF.FilePolarity,Negative*%
%FSLAX46Y46*%
G04 Gerber Fmt 4.6, Leading zero omitted, Abs format (unit mm)*
G04 Created by KiCad (PCBNEW 7.0.8) date 2023-12-06 22:26:14*
%MOMM*%
%LPD*%
G01*
G04 APERTURE LIST*
G04 Aperture macros list*
%AMRoundRect*
0 Rectangle with rounded corners*
0 $1 Rounding radius*
0 $2 $3 $4 $5 $6 $7 $8 $9 X,Y pos of 4 corners*
0 Add a 4 corners polygon primitive as box body*
4,1,4,$2,$3,$4,$5,$6,$7,$8,$9,$2,$3,0*
0 Add four circle primitives for the rounded corners*
1,1,$1+$1,$2,$3*
1,1,$1+$1,$4,$5*
1,1,$1+$1,$6,$7*
1,1,$1+$1,$8,$9*
0 Add four rect primitives between the rounded corners*
20,1,$1+$1,$2,$3,$4,$5,0*
20,1,$1+$1,$4,$5,$6,$7,0*
20,1,$1+$1,$6,$7,$8,$9,0*
20,1,$1+$1,$8,$9,$2,$3,0*%
G04 Aperture macros list end*
%ADD10C,3.200000*%
%ADD11R,3.800000X2.500000*%
%ADD12RoundRect,1.250000X0.650000X0.000000X-0.650000X0.000000X-0.650000X0.000000X0.650000X0.000000X0*%
%ADD13C,2.000000*%
%ADD14R,2.000000X2.000000*%
%ADD15R,3.200000X2.000000*%
%ADD16C,1.600000*%
%ADD17O,1.600000X1.600000*%
%ADD18R,7.000000X2.900000*%
%ADD19O,7.000000X2.900000*%
%ADD20C,4.000000*%
%ADD21R,1.800000X1.800000*%
%ADD22C,1.800000*%
%ADD23R,1.600000X1.600000*%
%ADD24C,1.650000*%
%ADD25C,1.950000*%
%ADD26C,2.400000*%
G04 APERTURE END LIST*
D10*
%TO.C,H3*%
X83185000Y-137795000D03*
%TD*%
D11*
%TO.C,Toggle1*%
X117348000Y-66072000D03*
D12*
X117348000Y-61872000D03*
%TD*%
D13*
%TO.C,Rotary_Encoder1*%
X181080000Y-116920000D03*
X181080000Y-121920000D03*
D14*
X181080000Y-119420000D03*
D15*
X188580000Y-113820000D03*
X188580000Y-125020000D03*
D13*
X195580000Y-121920000D03*
D14*
X195580000Y-116920000D03*
%TD*%
D10*
%TO.C,H4*%
X198755000Y-137795000D03*
%TD*%
%TO.C,H5*%
X107306032Y-99690751D03*
%TD*%
D16*
%TO.C,R4*%
X181102000Y-135890000D03*
D17*
X181102000Y-128270000D03*
%TD*%
D14*
%TO.C,Button3*%
X94540000Y-123480000D03*
X101040000Y-123480000D03*
D13*
X94540000Y-127980000D03*
X101040000Y-127980000D03*
%TD*%
D10*
%TO.C,H9*%
X141024288Y-69041240D03*
%TD*%
D11*
%TO.C,Toggle3*%
X149352000Y-66072000D03*
D12*
X149352000Y-61872000D03*
%TD*%
D14*
%TO.C,Bumper2*%
X96012000Y-57912000D03*
D13*
X96012000Y-61468000D03*
%TD*%
D10*
%TO.C,H2*%
X198755000Y-60325000D03*
%TD*%
%TO.C,H7*%
X107445778Y-139162731D03*
%TD*%
D14*
%TO.C,Button4*%
X94540000Y-133300000D03*
X101040000Y-133300000D03*
D13*
X94540000Y-137800000D03*
X101040000Y-137800000D03*
%TD*%
D14*
%TO.C,Button2*%
X94540000Y-113320000D03*
X101040000Y-113320000D03*
D13*
X94540000Y-117820000D03*
X101040000Y-117820000D03*
%TD*%
D14*
%TO.C,Button1*%
X94540000Y-103160000D03*
X101040000Y-103160000D03*
D13*
X94540000Y-107660000D03*
X101040000Y-107660000D03*
%TD*%
D14*
%TO.C,Bumper1*%
X89408000Y-57912000D03*
D13*
X89408000Y-61468000D03*
%TD*%
D18*
%TO.C,PowerSwitch1*%
X140970000Y-90200000D03*
D19*
X140970000Y-83200000D03*
X140970000Y-76200000D03*
%TD*%
D10*
%TO.C,H6*%
X174493637Y-99822788D03*
%TD*%
D11*
%TO.C,Toggle4*%
X164592000Y-66072000D03*
D12*
X164592000Y-61872000D03*
%TD*%
D20*
%TO.C,Pot1*%
X124000000Y-85090000D03*
X115200000Y-85090000D03*
D21*
X117100000Y-78090000D03*
D22*
X119600000Y-78090000D03*
X122100000Y-78090000D03*
%TD*%
D14*
%TO.C,Bumper3*%
X186944000Y-57912000D03*
D13*
X186944000Y-61468000D03*
%TD*%
D11*
%TO.C,Toggle2*%
X132588000Y-66072000D03*
D12*
X132588000Y-61872000D03*
%TD*%
D20*
%TO.C,Pot2*%
X166740000Y-85090000D03*
X157940000Y-85090000D03*
D21*
X159840000Y-78090000D03*
D22*
X162340000Y-78090000D03*
X164840000Y-78090000D03*
%TD*%
D16*
%TO.C,R3*%
X185420000Y-135890000D03*
D17*
X185420000Y-128270000D03*
%TD*%
D10*
%TO.C,H1*%
X83185000Y-60325000D03*
%TD*%
D16*
%TO.C,OLED_LCD_Display1*%
X133350000Y-99060000D03*
X135890000Y-99060000D03*
X138430000Y-99060000D03*
X140970000Y-99060000D03*
X143510000Y-99060000D03*
X146050000Y-99060000D03*
D23*
X148590000Y-99060000D03*
%TD*%
D10*
%TO.C,H10*%
X141018739Y-123314035D03*
%TD*%
%TO.C,H8*%
X174498151Y-139192604D03*
%TD*%
D24*
%TO.C,Joystick1*%
X94335000Y-84850000D03*
X96835000Y-84850000D03*
X99335000Y-84850000D03*
X88105000Y-73620000D03*
X88105000Y-76120000D03*
X88105000Y-78620000D03*
D25*
X100085000Y-70370000D03*
X93585000Y-70370000D03*
X100085000Y-65870000D03*
X93585000Y-65870000D03*
D26*
X90510000Y-81120000D03*
X103160000Y-81120000D03*
X103160000Y-71120000D03*
X90510000Y-71120000D03*
%TD*%
D14*
%TO.C,Bumper4*%
X193548000Y-57912000D03*
D13*
X193548000Y-61468000D03*
%TD*%
D24*
%TO.C,Joystick2*%
X182605000Y-84850000D03*
X185105000Y-84850000D03*
X187605000Y-84850000D03*
X176375000Y-73620000D03*
X176375000Y-76120000D03*
X176375000Y-78620000D03*
D25*
X188355000Y-70370000D03*
X181855000Y-70370000D03*
X188355000Y-65870000D03*
X181855000Y-65870000D03*
D26*
X178780000Y-81120000D03*
X191430000Y-81120000D03*
X191430000Y-71120000D03*
X178780000Y-71120000D03*
%TD*%
D16*
%TO.C,C2*%
X129540000Y-120714888D03*
D23*
X129540000Y-123214888D03*
%TD*%
D16*
%TO.C,JST_Connector1*%
X150368000Y-85852000D03*
X150368000Y-87852000D03*
%TD*%
%TO.C,Gyroscope1*%
X149789454Y-105816523D03*
D23*
X147249454Y-105816523D03*
D16*
X144709454Y-105816523D03*
X142169454Y-105816523D03*
X139629454Y-105816523D03*
X137089454Y-105816523D03*
X134549454Y-105816523D03*
X132009454Y-105816523D03*
%TD*%
D23*
%TO.C,R2*%
X141986000Y-117856000D03*
D17*
X134366000Y-117856000D03*
%TD*%
D16*
%TO.C,Arduino_Mega_Pro1*%
X90805000Y-127000000D03*
X88265000Y-127000000D03*
X90805000Y-124460000D03*
X88265000Y-124460000D03*
X88265000Y-132080000D03*
X90805000Y-132080000D03*
X90805000Y-121920000D03*
X88265000Y-121920000D03*
X88265000Y-134620000D03*
X90805000Y-134620000D03*
X106480000Y-88900000D03*
X90805000Y-119380000D03*
X88265000Y-119380000D03*
X90805000Y-116840000D03*
X88265000Y-116840000D03*
X90805000Y-114300000D03*
X88265000Y-114300000D03*
X90805000Y-111760000D03*
X88265000Y-111760000D03*
X90805000Y-109220000D03*
X88265000Y-109220000D03*
X90805000Y-106680000D03*
X88265000Y-106680000D03*
X90805000Y-104140000D03*
X88265000Y-104140000D03*
X90805000Y-101600000D03*
X88265000Y-101600000D03*
X90805000Y-99060000D03*
X88265000Y-99060000D03*
X90805000Y-96520000D03*
X88265000Y-96520000D03*
X90805000Y-93980000D03*
X88265000Y-93980000D03*
X90805000Y-91440000D03*
X88265000Y-91440000D03*
X90805000Y-88900000D03*
X88265000Y-88900000D03*
X124260000Y-106680000D03*
X121720000Y-106680000D03*
X124260000Y-104140000D03*
X121720000Y-104140000D03*
X124260000Y-101600000D03*
X121720000Y-101600000D03*
X124260000Y-99060000D03*
X121720000Y-99060000D03*
X124260000Y-96520000D03*
X121720000Y-96520000D03*
X124260000Y-93980000D03*
X121720000Y-93980000D03*
X124260000Y-91440000D03*
X121720000Y-91440000D03*
X124260000Y-88900000D03*
X121720000Y-88900000D03*
X119180000Y-88900000D03*
X119180000Y-91440000D03*
X106480000Y-91440000D03*
X116640000Y-88900000D03*
X103940000Y-88900000D03*
X116640000Y-91440000D03*
X103940000Y-91440000D03*
X114100000Y-88900000D03*
X114100000Y-91440000D03*
X124260000Y-127000000D03*
X121720000Y-127000000D03*
X124260000Y-124460000D03*
X121720000Y-124460000D03*
X124260000Y-121920000D03*
X121720000Y-121920000D03*
X124260000Y-119380000D03*
X121720000Y-119380000D03*
X124260000Y-116840000D03*
X121720000Y-116840000D03*
X124260000Y-114300000D03*
X121720000Y-114300000D03*
X124260000Y-111760000D03*
X121720000Y-111760000D03*
X124260000Y-109220000D03*
X121720000Y-109220000D03*
X90805000Y-129540000D03*
D23*
X88265000Y-137160000D03*
X90805000Y-137160000D03*
X101400000Y-88900000D03*
D16*
X88265000Y-129540000D03*
X101400000Y-91440000D03*
X88265000Y-139700000D03*
X90805000Y-139700000D03*
%TD*%
%TO.C,C1*%
X182372000Y-100076000D03*
D23*
X184872000Y-100076000D03*
%TD*%
D16*
%TO.C,NRF24*%
X184150000Y-92075000D03*
X181610000Y-92075000D03*
X179070000Y-92075000D03*
X176530000Y-92075000D03*
X176530000Y-94615000D03*
X179070000Y-94615000D03*
X181610000Y-94615000D03*
D23*
X184150000Y-94615000D03*
%TD*%
D16*
%TO.C,R1*%
X134366000Y-114300000D03*
D17*
X141986000Y-114300000D03*
%TD*%
M02*
