%TF.GenerationSoftware,KiCad,Pcbnew,7.0.8*%
%TF.CreationDate,2023-12-06T22:26:14-05:00*%
%TF.ProjectId,RCTransmitterAecertRobotics,52435472-616e-4736-9d69-747465724165,rev?*%
%TF.SameCoordinates,Original*%
%TF.FileFunction,Legend,Top*%
%TF.FilePolarity,Positive*%
%FSLAX46Y46*%
G04 Gerber Fmt 4.6, Leading zero omitted, Abs format (unit mm)*
G04 Created by KiCad (PCBNEW 7.0.8) date 2023-12-06 22:26:14*
%MOMM*%
%LPD*%
G01*
G04 APERTURE LIST*
%ADD10C,0.150000*%
%ADD11C,0.130000*%
%ADD12C,0.100000*%
%ADD13C,0.254000*%
%ADD14C,0.120000*%
%ADD15C,0.200000*%
G04 APERTURE END LIST*
D10*
X189812365Y-102294795D02*
X190336175Y-102294795D01*
X189707603Y-102609080D02*
X190074270Y-101509080D01*
X190074270Y-101509080D02*
X190440937Y-102609080D01*
X191226651Y-102556700D02*
X191121889Y-102609080D01*
X191121889Y-102609080D02*
X190912365Y-102609080D01*
X190912365Y-102609080D02*
X190807603Y-102556700D01*
X190807603Y-102556700D02*
X190755222Y-102451938D01*
X190755222Y-102451938D02*
X190755222Y-102032890D01*
X190755222Y-102032890D02*
X190807603Y-101928128D01*
X190807603Y-101928128D02*
X190912365Y-101875747D01*
X190912365Y-101875747D02*
X191121889Y-101875747D01*
X191121889Y-101875747D02*
X191226651Y-101928128D01*
X191226651Y-101928128D02*
X191279032Y-102032890D01*
X191279032Y-102032890D02*
X191279032Y-102137652D01*
X191279032Y-102137652D02*
X190755222Y-102242414D01*
X192221889Y-102556700D02*
X192117127Y-102609080D01*
X192117127Y-102609080D02*
X191907603Y-102609080D01*
X191907603Y-102609080D02*
X191802841Y-102556700D01*
X191802841Y-102556700D02*
X191750460Y-102504319D01*
X191750460Y-102504319D02*
X191698079Y-102399557D01*
X191698079Y-102399557D02*
X191698079Y-102085271D01*
X191698079Y-102085271D02*
X191750460Y-101980509D01*
X191750460Y-101980509D02*
X191802841Y-101928128D01*
X191802841Y-101928128D02*
X191907603Y-101875747D01*
X191907603Y-101875747D02*
X192117127Y-101875747D01*
X192117127Y-101875747D02*
X192221889Y-101928128D01*
X193112365Y-102556700D02*
X193007603Y-102609080D01*
X193007603Y-102609080D02*
X192798079Y-102609080D01*
X192798079Y-102609080D02*
X192693317Y-102556700D01*
X192693317Y-102556700D02*
X192640936Y-102451938D01*
X192640936Y-102451938D02*
X192640936Y-102032890D01*
X192640936Y-102032890D02*
X192693317Y-101928128D01*
X192693317Y-101928128D02*
X192798079Y-101875747D01*
X192798079Y-101875747D02*
X193007603Y-101875747D01*
X193007603Y-101875747D02*
X193112365Y-101928128D01*
X193112365Y-101928128D02*
X193164746Y-102032890D01*
X193164746Y-102032890D02*
X193164746Y-102137652D01*
X193164746Y-102137652D02*
X192640936Y-102242414D01*
X193636174Y-102609080D02*
X193636174Y-101875747D01*
X193636174Y-102085271D02*
X193688555Y-101980509D01*
X193688555Y-101980509D02*
X193740936Y-101928128D01*
X193740936Y-101928128D02*
X193845698Y-101875747D01*
X193845698Y-101875747D02*
X193950460Y-101875747D01*
X194159983Y-101875747D02*
X194579031Y-101875747D01*
X194317126Y-101509080D02*
X194317126Y-102451938D01*
X194317126Y-102451938D02*
X194369507Y-102556700D01*
X194369507Y-102556700D02*
X194474269Y-102609080D01*
X194474269Y-102609080D02*
X194579031Y-102609080D01*
X196412364Y-102609080D02*
X196045697Y-102085271D01*
X195783792Y-102609080D02*
X195783792Y-101509080D01*
X195783792Y-101509080D02*
X196202840Y-101509080D01*
X196202840Y-101509080D02*
X196307602Y-101561461D01*
X196307602Y-101561461D02*
X196359983Y-101613842D01*
X196359983Y-101613842D02*
X196412364Y-101718604D01*
X196412364Y-101718604D02*
X196412364Y-101875747D01*
X196412364Y-101875747D02*
X196359983Y-101980509D01*
X196359983Y-101980509D02*
X196307602Y-102032890D01*
X196307602Y-102032890D02*
X196202840Y-102085271D01*
X196202840Y-102085271D02*
X195783792Y-102085271D01*
X197040935Y-102609080D02*
X196936173Y-102556700D01*
X196936173Y-102556700D02*
X196883792Y-102504319D01*
X196883792Y-102504319D02*
X196831411Y-102399557D01*
X196831411Y-102399557D02*
X196831411Y-102085271D01*
X196831411Y-102085271D02*
X196883792Y-101980509D01*
X196883792Y-101980509D02*
X196936173Y-101928128D01*
X196936173Y-101928128D02*
X197040935Y-101875747D01*
X197040935Y-101875747D02*
X197198078Y-101875747D01*
X197198078Y-101875747D02*
X197302840Y-101928128D01*
X197302840Y-101928128D02*
X197355221Y-101980509D01*
X197355221Y-101980509D02*
X197407602Y-102085271D01*
X197407602Y-102085271D02*
X197407602Y-102399557D01*
X197407602Y-102399557D02*
X197355221Y-102504319D01*
X197355221Y-102504319D02*
X197302840Y-102556700D01*
X197302840Y-102556700D02*
X197198078Y-102609080D01*
X197198078Y-102609080D02*
X197040935Y-102609080D01*
X197879030Y-102609080D02*
X197879030Y-101509080D01*
X197879030Y-101928128D02*
X197983792Y-101875747D01*
X197983792Y-101875747D02*
X198193316Y-101875747D01*
X198193316Y-101875747D02*
X198298078Y-101928128D01*
X198298078Y-101928128D02*
X198350459Y-101980509D01*
X198350459Y-101980509D02*
X198402840Y-102085271D01*
X198402840Y-102085271D02*
X198402840Y-102399557D01*
X198402840Y-102399557D02*
X198350459Y-102504319D01*
X198350459Y-102504319D02*
X198298078Y-102556700D01*
X198298078Y-102556700D02*
X198193316Y-102609080D01*
X198193316Y-102609080D02*
X197983792Y-102609080D01*
X197983792Y-102609080D02*
X197879030Y-102556700D01*
X199031411Y-102609080D02*
X198926649Y-102556700D01*
X198926649Y-102556700D02*
X198874268Y-102504319D01*
X198874268Y-102504319D02*
X198821887Y-102399557D01*
X198821887Y-102399557D02*
X198821887Y-102085271D01*
X198821887Y-102085271D02*
X198874268Y-101980509D01*
X198874268Y-101980509D02*
X198926649Y-101928128D01*
X198926649Y-101928128D02*
X199031411Y-101875747D01*
X199031411Y-101875747D02*
X199188554Y-101875747D01*
X199188554Y-101875747D02*
X199293316Y-101928128D01*
X199293316Y-101928128D02*
X199345697Y-101980509D01*
X199345697Y-101980509D02*
X199398078Y-102085271D01*
X199398078Y-102085271D02*
X199398078Y-102399557D01*
X199398078Y-102399557D02*
X199345697Y-102504319D01*
X199345697Y-102504319D02*
X199293316Y-102556700D01*
X199293316Y-102556700D02*
X199188554Y-102609080D01*
X199188554Y-102609080D02*
X199031411Y-102609080D01*
X199712363Y-101875747D02*
X200131411Y-101875747D01*
X199869506Y-101509080D02*
X199869506Y-102451938D01*
X199869506Y-102451938D02*
X199921887Y-102556700D01*
X199921887Y-102556700D02*
X200026649Y-102609080D01*
X200026649Y-102609080D02*
X200131411Y-102609080D01*
X200498077Y-102609080D02*
X200498077Y-101875747D01*
X200498077Y-101509080D02*
X200445696Y-101561461D01*
X200445696Y-101561461D02*
X200498077Y-101613842D01*
X200498077Y-101613842D02*
X200550458Y-101561461D01*
X200550458Y-101561461D02*
X200498077Y-101509080D01*
X200498077Y-101509080D02*
X200498077Y-101613842D01*
X201493316Y-102556700D02*
X201388554Y-102609080D01*
X201388554Y-102609080D02*
X201179030Y-102609080D01*
X201179030Y-102609080D02*
X201074268Y-102556700D01*
X201074268Y-102556700D02*
X201021887Y-102504319D01*
X201021887Y-102504319D02*
X200969506Y-102399557D01*
X200969506Y-102399557D02*
X200969506Y-102085271D01*
X200969506Y-102085271D02*
X201021887Y-101980509D01*
X201021887Y-101980509D02*
X201074268Y-101928128D01*
X201074268Y-101928128D02*
X201179030Y-101875747D01*
X201179030Y-101875747D02*
X201388554Y-101875747D01*
X201388554Y-101875747D02*
X201493316Y-101928128D01*
X201912363Y-102556700D02*
X202017125Y-102609080D01*
X202017125Y-102609080D02*
X202226649Y-102609080D01*
X202226649Y-102609080D02*
X202331411Y-102556700D01*
X202331411Y-102556700D02*
X202383792Y-102451938D01*
X202383792Y-102451938D02*
X202383792Y-102399557D01*
X202383792Y-102399557D02*
X202331411Y-102294795D01*
X202331411Y-102294795D02*
X202226649Y-102242414D01*
X202226649Y-102242414D02*
X202069506Y-102242414D01*
X202069506Y-102242414D02*
X201964744Y-102190033D01*
X201964744Y-102190033D02*
X201912363Y-102085271D01*
X201912363Y-102085271D02*
X201912363Y-102032890D01*
X201912363Y-102032890D02*
X201964744Y-101928128D01*
X201964744Y-101928128D02*
X202069506Y-101875747D01*
X202069506Y-101875747D02*
X202226649Y-101875747D01*
X202226649Y-101875747D02*
X202331411Y-101928128D01*
D11*
X180320757Y-106977192D02*
X180558852Y-107643859D01*
X180796947Y-106977192D02*
X180558852Y-107643859D01*
X180558852Y-107643859D02*
X180463614Y-107881954D01*
X180463614Y-107881954D02*
X180415995Y-107929573D01*
X180415995Y-107929573D02*
X180320757Y-107977192D01*
X181320757Y-107643859D02*
X181225519Y-107596240D01*
X181225519Y-107596240D02*
X181177900Y-107548620D01*
X181177900Y-107548620D02*
X181130281Y-107453382D01*
X181130281Y-107453382D02*
X181130281Y-107167668D01*
X181130281Y-107167668D02*
X181177900Y-107072430D01*
X181177900Y-107072430D02*
X181225519Y-107024811D01*
X181225519Y-107024811D02*
X181320757Y-106977192D01*
X181320757Y-106977192D02*
X181463614Y-106977192D01*
X181463614Y-106977192D02*
X181558852Y-107024811D01*
X181558852Y-107024811D02*
X181606471Y-107072430D01*
X181606471Y-107072430D02*
X181654090Y-107167668D01*
X181654090Y-107167668D02*
X181654090Y-107453382D01*
X181654090Y-107453382D02*
X181606471Y-107548620D01*
X181606471Y-107548620D02*
X181558852Y-107596240D01*
X181558852Y-107596240D02*
X181463614Y-107643859D01*
X181463614Y-107643859D02*
X181320757Y-107643859D01*
X182511233Y-106977192D02*
X182511233Y-107643859D01*
X182082662Y-106977192D02*
X182082662Y-107501001D01*
X182082662Y-107501001D02*
X182130281Y-107596240D01*
X182130281Y-107596240D02*
X182225519Y-107643859D01*
X182225519Y-107643859D02*
X182368376Y-107643859D01*
X182368376Y-107643859D02*
X182463614Y-107596240D01*
X182463614Y-107596240D02*
X182511233Y-107548620D01*
X182844567Y-106977192D02*
X183225519Y-106977192D01*
X182987424Y-106643859D02*
X182987424Y-107501001D01*
X182987424Y-107501001D02*
X183035043Y-107596240D01*
X183035043Y-107596240D02*
X183130281Y-107643859D01*
X183130281Y-107643859D02*
X183225519Y-107643859D01*
X183987424Y-106977192D02*
X183987424Y-107643859D01*
X183558853Y-106977192D02*
X183558853Y-107501001D01*
X183558853Y-107501001D02*
X183606472Y-107596240D01*
X183606472Y-107596240D02*
X183701710Y-107643859D01*
X183701710Y-107643859D02*
X183844567Y-107643859D01*
X183844567Y-107643859D02*
X183939805Y-107596240D01*
X183939805Y-107596240D02*
X183987424Y-107548620D01*
X184463615Y-107643859D02*
X184463615Y-106643859D01*
X184463615Y-107024811D02*
X184558853Y-106977192D01*
X184558853Y-106977192D02*
X184749329Y-106977192D01*
X184749329Y-106977192D02*
X184844567Y-107024811D01*
X184844567Y-107024811D02*
X184892186Y-107072430D01*
X184892186Y-107072430D02*
X184939805Y-107167668D01*
X184939805Y-107167668D02*
X184939805Y-107453382D01*
X184939805Y-107453382D02*
X184892186Y-107548620D01*
X184892186Y-107548620D02*
X184844567Y-107596240D01*
X184844567Y-107596240D02*
X184749329Y-107643859D01*
X184749329Y-107643859D02*
X184558853Y-107643859D01*
X184558853Y-107643859D02*
X184463615Y-107596240D01*
X185749329Y-107596240D02*
X185654091Y-107643859D01*
X185654091Y-107643859D02*
X185463615Y-107643859D01*
X185463615Y-107643859D02*
X185368377Y-107596240D01*
X185368377Y-107596240D02*
X185320758Y-107501001D01*
X185320758Y-107501001D02*
X185320758Y-107120049D01*
X185320758Y-107120049D02*
X185368377Y-107024811D01*
X185368377Y-107024811D02*
X185463615Y-106977192D01*
X185463615Y-106977192D02*
X185654091Y-106977192D01*
X185654091Y-106977192D02*
X185749329Y-107024811D01*
X185749329Y-107024811D02*
X185796948Y-107120049D01*
X185796948Y-107120049D02*
X185796948Y-107215287D01*
X185796948Y-107215287D02*
X185320758Y-107310525D01*
X186225520Y-107548620D02*
X186273139Y-107596240D01*
X186273139Y-107596240D02*
X186225520Y-107643859D01*
X186225520Y-107643859D02*
X186177901Y-107596240D01*
X186177901Y-107596240D02*
X186225520Y-107548620D01*
X186225520Y-107548620D02*
X186225520Y-107643859D01*
X187130281Y-107596240D02*
X187035043Y-107643859D01*
X187035043Y-107643859D02*
X186844567Y-107643859D01*
X186844567Y-107643859D02*
X186749329Y-107596240D01*
X186749329Y-107596240D02*
X186701710Y-107548620D01*
X186701710Y-107548620D02*
X186654091Y-107453382D01*
X186654091Y-107453382D02*
X186654091Y-107167668D01*
X186654091Y-107167668D02*
X186701710Y-107072430D01*
X186701710Y-107072430D02*
X186749329Y-107024811D01*
X186749329Y-107024811D02*
X186844567Y-106977192D01*
X186844567Y-106977192D02*
X187035043Y-106977192D01*
X187035043Y-106977192D02*
X187130281Y-107024811D01*
X187701710Y-107643859D02*
X187606472Y-107596240D01*
X187606472Y-107596240D02*
X187558853Y-107548620D01*
X187558853Y-107548620D02*
X187511234Y-107453382D01*
X187511234Y-107453382D02*
X187511234Y-107167668D01*
X187511234Y-107167668D02*
X187558853Y-107072430D01*
X187558853Y-107072430D02*
X187606472Y-107024811D01*
X187606472Y-107024811D02*
X187701710Y-106977192D01*
X187701710Y-106977192D02*
X187844567Y-106977192D01*
X187844567Y-106977192D02*
X187939805Y-107024811D01*
X187939805Y-107024811D02*
X187987424Y-107072430D01*
X187987424Y-107072430D02*
X188035043Y-107167668D01*
X188035043Y-107167668D02*
X188035043Y-107453382D01*
X188035043Y-107453382D02*
X187987424Y-107548620D01*
X187987424Y-107548620D02*
X187939805Y-107596240D01*
X187939805Y-107596240D02*
X187844567Y-107643859D01*
X187844567Y-107643859D02*
X187701710Y-107643859D01*
X188463615Y-107643859D02*
X188463615Y-106977192D01*
X188463615Y-107072430D02*
X188511234Y-107024811D01*
X188511234Y-107024811D02*
X188606472Y-106977192D01*
X188606472Y-106977192D02*
X188749329Y-106977192D01*
X188749329Y-106977192D02*
X188844567Y-107024811D01*
X188844567Y-107024811D02*
X188892186Y-107120049D01*
X188892186Y-107120049D02*
X188892186Y-107643859D01*
X188892186Y-107120049D02*
X188939805Y-107024811D01*
X188939805Y-107024811D02*
X189035043Y-106977192D01*
X189035043Y-106977192D02*
X189177900Y-106977192D01*
X189177900Y-106977192D02*
X189273139Y-107024811D01*
X189273139Y-107024811D02*
X189320758Y-107120049D01*
X189320758Y-107120049D02*
X189320758Y-107643859D01*
X190511233Y-106596240D02*
X189654091Y-107881954D01*
X191463614Y-107167668D02*
X191415995Y-107120049D01*
X191415995Y-107120049D02*
X191320757Y-107072430D01*
X191320757Y-107072430D02*
X191225519Y-107072430D01*
X191225519Y-107072430D02*
X191130281Y-107120049D01*
X191130281Y-107120049D02*
X191082662Y-107167668D01*
X191082662Y-107167668D02*
X191035043Y-107262906D01*
X191035043Y-107262906D02*
X191035043Y-107358144D01*
X191035043Y-107358144D02*
X191082662Y-107453382D01*
X191082662Y-107453382D02*
X191130281Y-107501001D01*
X191130281Y-107501001D02*
X191225519Y-107548620D01*
X191225519Y-107548620D02*
X191320757Y-107548620D01*
X191320757Y-107548620D02*
X191415995Y-107501001D01*
X191415995Y-107501001D02*
X191463614Y-107453382D01*
X191463614Y-107072430D02*
X191463614Y-107453382D01*
X191463614Y-107453382D02*
X191511233Y-107501001D01*
X191511233Y-107501001D02*
X191558852Y-107501001D01*
X191558852Y-107501001D02*
X191654091Y-107453382D01*
X191654091Y-107453382D02*
X191701710Y-107358144D01*
X191701710Y-107358144D02*
X191701710Y-107120049D01*
X191701710Y-107120049D02*
X191606472Y-106977192D01*
X191606472Y-106977192D02*
X191463614Y-106881954D01*
X191463614Y-106881954D02*
X191273138Y-106834335D01*
X191273138Y-106834335D02*
X191082662Y-106881954D01*
X191082662Y-106881954D02*
X190939805Y-106977192D01*
X190939805Y-106977192D02*
X190844567Y-107120049D01*
X190844567Y-107120049D02*
X190796948Y-107310525D01*
X190796948Y-107310525D02*
X190844567Y-107501001D01*
X190844567Y-107501001D02*
X190939805Y-107643859D01*
X190939805Y-107643859D02*
X191082662Y-107739097D01*
X191082662Y-107739097D02*
X191273138Y-107786716D01*
X191273138Y-107786716D02*
X191463614Y-107739097D01*
X191463614Y-107739097D02*
X191606472Y-107643859D01*
X192558852Y-107643859D02*
X192558852Y-107120049D01*
X192558852Y-107120049D02*
X192511233Y-107024811D01*
X192511233Y-107024811D02*
X192415995Y-106977192D01*
X192415995Y-106977192D02*
X192225519Y-106977192D01*
X192225519Y-106977192D02*
X192130281Y-107024811D01*
X192558852Y-107596240D02*
X192463614Y-107643859D01*
X192463614Y-107643859D02*
X192225519Y-107643859D01*
X192225519Y-107643859D02*
X192130281Y-107596240D01*
X192130281Y-107596240D02*
X192082662Y-107501001D01*
X192082662Y-107501001D02*
X192082662Y-107405763D01*
X192082662Y-107405763D02*
X192130281Y-107310525D01*
X192130281Y-107310525D02*
X192225519Y-107262906D01*
X192225519Y-107262906D02*
X192463614Y-107262906D01*
X192463614Y-107262906D02*
X192558852Y-107215287D01*
X193415995Y-107596240D02*
X193320757Y-107643859D01*
X193320757Y-107643859D02*
X193130281Y-107643859D01*
X193130281Y-107643859D02*
X193035043Y-107596240D01*
X193035043Y-107596240D02*
X192987424Y-107501001D01*
X192987424Y-107501001D02*
X192987424Y-107120049D01*
X192987424Y-107120049D02*
X193035043Y-107024811D01*
X193035043Y-107024811D02*
X193130281Y-106977192D01*
X193130281Y-106977192D02*
X193320757Y-106977192D01*
X193320757Y-106977192D02*
X193415995Y-107024811D01*
X193415995Y-107024811D02*
X193463614Y-107120049D01*
X193463614Y-107120049D02*
X193463614Y-107215287D01*
X193463614Y-107215287D02*
X192987424Y-107310525D01*
X194320757Y-107596240D02*
X194225519Y-107643859D01*
X194225519Y-107643859D02*
X194035043Y-107643859D01*
X194035043Y-107643859D02*
X193939805Y-107596240D01*
X193939805Y-107596240D02*
X193892186Y-107548620D01*
X193892186Y-107548620D02*
X193844567Y-107453382D01*
X193844567Y-107453382D02*
X193844567Y-107167668D01*
X193844567Y-107167668D02*
X193892186Y-107072430D01*
X193892186Y-107072430D02*
X193939805Y-107024811D01*
X193939805Y-107024811D02*
X194035043Y-106977192D01*
X194035043Y-106977192D02*
X194225519Y-106977192D01*
X194225519Y-106977192D02*
X194320757Y-107024811D01*
X195130281Y-107596240D02*
X195035043Y-107643859D01*
X195035043Y-107643859D02*
X194844567Y-107643859D01*
X194844567Y-107643859D02*
X194749329Y-107596240D01*
X194749329Y-107596240D02*
X194701710Y-107501001D01*
X194701710Y-107501001D02*
X194701710Y-107120049D01*
X194701710Y-107120049D02*
X194749329Y-107024811D01*
X194749329Y-107024811D02*
X194844567Y-106977192D01*
X194844567Y-106977192D02*
X195035043Y-106977192D01*
X195035043Y-106977192D02*
X195130281Y-107024811D01*
X195130281Y-107024811D02*
X195177900Y-107120049D01*
X195177900Y-107120049D02*
X195177900Y-107215287D01*
X195177900Y-107215287D02*
X194701710Y-107310525D01*
X195606472Y-107643859D02*
X195606472Y-106977192D01*
X195606472Y-107167668D02*
X195654091Y-107072430D01*
X195654091Y-107072430D02*
X195701710Y-107024811D01*
X195701710Y-107024811D02*
X195796948Y-106977192D01*
X195796948Y-106977192D02*
X195892186Y-106977192D01*
X196082663Y-106977192D02*
X196463615Y-106977192D01*
X196225520Y-106643859D02*
X196225520Y-107501001D01*
X196225520Y-107501001D02*
X196273139Y-107596240D01*
X196273139Y-107596240D02*
X196368377Y-107643859D01*
X196368377Y-107643859D02*
X196463615Y-107643859D01*
X196796949Y-107643859D02*
X196796949Y-106977192D01*
X196796949Y-107167668D02*
X196844568Y-107072430D01*
X196844568Y-107072430D02*
X196892187Y-107024811D01*
X196892187Y-107024811D02*
X196987425Y-106977192D01*
X196987425Y-106977192D02*
X197082663Y-106977192D01*
X197558854Y-107643859D02*
X197463616Y-107596240D01*
X197463616Y-107596240D02*
X197415997Y-107548620D01*
X197415997Y-107548620D02*
X197368378Y-107453382D01*
X197368378Y-107453382D02*
X197368378Y-107167668D01*
X197368378Y-107167668D02*
X197415997Y-107072430D01*
X197415997Y-107072430D02*
X197463616Y-107024811D01*
X197463616Y-107024811D02*
X197558854Y-106977192D01*
X197558854Y-106977192D02*
X197701711Y-106977192D01*
X197701711Y-106977192D02*
X197796949Y-107024811D01*
X197796949Y-107024811D02*
X197844568Y-107072430D01*
X197844568Y-107072430D02*
X197892187Y-107167668D01*
X197892187Y-107167668D02*
X197892187Y-107453382D01*
X197892187Y-107453382D02*
X197844568Y-107548620D01*
X197844568Y-107548620D02*
X197796949Y-107596240D01*
X197796949Y-107596240D02*
X197701711Y-107643859D01*
X197701711Y-107643859D02*
X197558854Y-107643859D01*
X198320759Y-107643859D02*
X198320759Y-106643859D01*
X198320759Y-107024811D02*
X198415997Y-106977192D01*
X198415997Y-106977192D02*
X198606473Y-106977192D01*
X198606473Y-106977192D02*
X198701711Y-107024811D01*
X198701711Y-107024811D02*
X198749330Y-107072430D01*
X198749330Y-107072430D02*
X198796949Y-107167668D01*
X198796949Y-107167668D02*
X198796949Y-107453382D01*
X198796949Y-107453382D02*
X198749330Y-107548620D01*
X198749330Y-107548620D02*
X198701711Y-107596240D01*
X198701711Y-107596240D02*
X198606473Y-107643859D01*
X198606473Y-107643859D02*
X198415997Y-107643859D01*
X198415997Y-107643859D02*
X198320759Y-107596240D01*
X199368378Y-107643859D02*
X199273140Y-107596240D01*
X199273140Y-107596240D02*
X199225521Y-107548620D01*
X199225521Y-107548620D02*
X199177902Y-107453382D01*
X199177902Y-107453382D02*
X199177902Y-107167668D01*
X199177902Y-107167668D02*
X199225521Y-107072430D01*
X199225521Y-107072430D02*
X199273140Y-107024811D01*
X199273140Y-107024811D02*
X199368378Y-106977192D01*
X199368378Y-106977192D02*
X199511235Y-106977192D01*
X199511235Y-106977192D02*
X199606473Y-107024811D01*
X199606473Y-107024811D02*
X199654092Y-107072430D01*
X199654092Y-107072430D02*
X199701711Y-107167668D01*
X199701711Y-107167668D02*
X199701711Y-107453382D01*
X199701711Y-107453382D02*
X199654092Y-107548620D01*
X199654092Y-107548620D02*
X199606473Y-107596240D01*
X199606473Y-107596240D02*
X199511235Y-107643859D01*
X199511235Y-107643859D02*
X199368378Y-107643859D01*
X199987426Y-106977192D02*
X200368378Y-106977192D01*
X200130283Y-106643859D02*
X200130283Y-107501001D01*
X200130283Y-107501001D02*
X200177902Y-107596240D01*
X200177902Y-107596240D02*
X200273140Y-107643859D01*
X200273140Y-107643859D02*
X200368378Y-107643859D01*
X200701712Y-107643859D02*
X200701712Y-106977192D01*
X200701712Y-106643859D02*
X200654093Y-106691478D01*
X200654093Y-106691478D02*
X200701712Y-106739097D01*
X200701712Y-106739097D02*
X200749331Y-106691478D01*
X200749331Y-106691478D02*
X200701712Y-106643859D01*
X200701712Y-106643859D02*
X200701712Y-106739097D01*
X201606473Y-107596240D02*
X201511235Y-107643859D01*
X201511235Y-107643859D02*
X201320759Y-107643859D01*
X201320759Y-107643859D02*
X201225521Y-107596240D01*
X201225521Y-107596240D02*
X201177902Y-107548620D01*
X201177902Y-107548620D02*
X201130283Y-107453382D01*
X201130283Y-107453382D02*
X201130283Y-107167668D01*
X201130283Y-107167668D02*
X201177902Y-107072430D01*
X201177902Y-107072430D02*
X201225521Y-107024811D01*
X201225521Y-107024811D02*
X201320759Y-106977192D01*
X201320759Y-106977192D02*
X201511235Y-106977192D01*
X201511235Y-106977192D02*
X201606473Y-107024811D01*
X201987426Y-107596240D02*
X202082664Y-107643859D01*
X202082664Y-107643859D02*
X202273140Y-107643859D01*
X202273140Y-107643859D02*
X202368378Y-107596240D01*
X202368378Y-107596240D02*
X202415997Y-107501001D01*
X202415997Y-107501001D02*
X202415997Y-107453382D01*
X202415997Y-107453382D02*
X202368378Y-107358144D01*
X202368378Y-107358144D02*
X202273140Y-107310525D01*
X202273140Y-107310525D02*
X202130283Y-107310525D01*
X202130283Y-107310525D02*
X202035045Y-107262906D01*
X202035045Y-107262906D02*
X201987426Y-107167668D01*
X201987426Y-107167668D02*
X201987426Y-107120049D01*
X201987426Y-107120049D02*
X202035045Y-107024811D01*
X202035045Y-107024811D02*
X202130283Y-106977192D01*
X202130283Y-106977192D02*
X202273140Y-106977192D01*
X202273140Y-106977192D02*
X202368378Y-107024811D01*
D10*
X183526651Y-104834795D02*
X184050461Y-104834795D01*
X183421889Y-105149080D02*
X183788556Y-104049080D01*
X183788556Y-104049080D02*
X184155223Y-105149080D01*
X184521889Y-105149080D02*
X184521889Y-104415747D01*
X184521889Y-104625271D02*
X184574270Y-104520509D01*
X184574270Y-104520509D02*
X184626651Y-104468128D01*
X184626651Y-104468128D02*
X184731413Y-104415747D01*
X184731413Y-104415747D02*
X184836175Y-104415747D01*
X185674270Y-105149080D02*
X185674270Y-104049080D01*
X185674270Y-105096700D02*
X185569508Y-105149080D01*
X185569508Y-105149080D02*
X185359984Y-105149080D01*
X185359984Y-105149080D02*
X185255222Y-105096700D01*
X185255222Y-105096700D02*
X185202841Y-105044319D01*
X185202841Y-105044319D02*
X185150460Y-104939557D01*
X185150460Y-104939557D02*
X185150460Y-104625271D01*
X185150460Y-104625271D02*
X185202841Y-104520509D01*
X185202841Y-104520509D02*
X185255222Y-104468128D01*
X185255222Y-104468128D02*
X185359984Y-104415747D01*
X185359984Y-104415747D02*
X185569508Y-104415747D01*
X185569508Y-104415747D02*
X185674270Y-104468128D01*
X186669508Y-104415747D02*
X186669508Y-105149080D01*
X186198079Y-104415747D02*
X186198079Y-104991938D01*
X186198079Y-104991938D02*
X186250460Y-105096700D01*
X186250460Y-105096700D02*
X186355222Y-105149080D01*
X186355222Y-105149080D02*
X186512365Y-105149080D01*
X186512365Y-105149080D02*
X186617127Y-105096700D01*
X186617127Y-105096700D02*
X186669508Y-105044319D01*
X187193317Y-105149080D02*
X187193317Y-104415747D01*
X187193317Y-104049080D02*
X187140936Y-104101461D01*
X187140936Y-104101461D02*
X187193317Y-104153842D01*
X187193317Y-104153842D02*
X187245698Y-104101461D01*
X187245698Y-104101461D02*
X187193317Y-104049080D01*
X187193317Y-104049080D02*
X187193317Y-104153842D01*
X187717127Y-104415747D02*
X187717127Y-105149080D01*
X187717127Y-104520509D02*
X187769508Y-104468128D01*
X187769508Y-104468128D02*
X187874270Y-104415747D01*
X187874270Y-104415747D02*
X188031413Y-104415747D01*
X188031413Y-104415747D02*
X188136175Y-104468128D01*
X188136175Y-104468128D02*
X188188556Y-104572890D01*
X188188556Y-104572890D02*
X188188556Y-105149080D01*
X188869508Y-105149080D02*
X188764746Y-105096700D01*
X188764746Y-105096700D02*
X188712365Y-105044319D01*
X188712365Y-105044319D02*
X188659984Y-104939557D01*
X188659984Y-104939557D02*
X188659984Y-104625271D01*
X188659984Y-104625271D02*
X188712365Y-104520509D01*
X188712365Y-104520509D02*
X188764746Y-104468128D01*
X188764746Y-104468128D02*
X188869508Y-104415747D01*
X188869508Y-104415747D02*
X189026651Y-104415747D01*
X189026651Y-104415747D02*
X189131413Y-104468128D01*
X189131413Y-104468128D02*
X189183794Y-104520509D01*
X189183794Y-104520509D02*
X189236175Y-104625271D01*
X189236175Y-104625271D02*
X189236175Y-104939557D01*
X189236175Y-104939557D02*
X189183794Y-105044319D01*
X189183794Y-105044319D02*
X189131413Y-105096700D01*
X189131413Y-105096700D02*
X189026651Y-105149080D01*
X189026651Y-105149080D02*
X188869508Y-105149080D01*
X191174270Y-105149080D02*
X190807603Y-104625271D01*
X190545698Y-105149080D02*
X190545698Y-104049080D01*
X190545698Y-104049080D02*
X190964746Y-104049080D01*
X190964746Y-104049080D02*
X191069508Y-104101461D01*
X191069508Y-104101461D02*
X191121889Y-104153842D01*
X191121889Y-104153842D02*
X191174270Y-104258604D01*
X191174270Y-104258604D02*
X191174270Y-104415747D01*
X191174270Y-104415747D02*
X191121889Y-104520509D01*
X191121889Y-104520509D02*
X191069508Y-104572890D01*
X191069508Y-104572890D02*
X190964746Y-104625271D01*
X190964746Y-104625271D02*
X190545698Y-104625271D01*
X192274270Y-105044319D02*
X192221889Y-105096700D01*
X192221889Y-105096700D02*
X192064746Y-105149080D01*
X192064746Y-105149080D02*
X191959984Y-105149080D01*
X191959984Y-105149080D02*
X191802841Y-105096700D01*
X191802841Y-105096700D02*
X191698079Y-104991938D01*
X191698079Y-104991938D02*
X191645698Y-104887176D01*
X191645698Y-104887176D02*
X191593317Y-104677652D01*
X191593317Y-104677652D02*
X191593317Y-104520509D01*
X191593317Y-104520509D02*
X191645698Y-104310985D01*
X191645698Y-104310985D02*
X191698079Y-104206223D01*
X191698079Y-104206223D02*
X191802841Y-104101461D01*
X191802841Y-104101461D02*
X191959984Y-104049080D01*
X191959984Y-104049080D02*
X192064746Y-104049080D01*
X192064746Y-104049080D02*
X192221889Y-104101461D01*
X192221889Y-104101461D02*
X192274270Y-104153842D01*
X193426650Y-104049080D02*
X194055222Y-104049080D01*
X193740936Y-105149080D02*
X193740936Y-104049080D01*
X194421888Y-105149080D02*
X194421888Y-104415747D01*
X194421888Y-104625271D02*
X194474269Y-104520509D01*
X194474269Y-104520509D02*
X194526650Y-104468128D01*
X194526650Y-104468128D02*
X194631412Y-104415747D01*
X194631412Y-104415747D02*
X194736174Y-104415747D01*
X195574269Y-105149080D02*
X195574269Y-104572890D01*
X195574269Y-104572890D02*
X195521888Y-104468128D01*
X195521888Y-104468128D02*
X195417126Y-104415747D01*
X195417126Y-104415747D02*
X195207602Y-104415747D01*
X195207602Y-104415747D02*
X195102840Y-104468128D01*
X195574269Y-105096700D02*
X195469507Y-105149080D01*
X195469507Y-105149080D02*
X195207602Y-105149080D01*
X195207602Y-105149080D02*
X195102840Y-105096700D01*
X195102840Y-105096700D02*
X195050459Y-104991938D01*
X195050459Y-104991938D02*
X195050459Y-104887176D01*
X195050459Y-104887176D02*
X195102840Y-104782414D01*
X195102840Y-104782414D02*
X195207602Y-104730033D01*
X195207602Y-104730033D02*
X195469507Y-104730033D01*
X195469507Y-104730033D02*
X195574269Y-104677652D01*
X196098078Y-104415747D02*
X196098078Y-105149080D01*
X196098078Y-104520509D02*
X196150459Y-104468128D01*
X196150459Y-104468128D02*
X196255221Y-104415747D01*
X196255221Y-104415747D02*
X196412364Y-104415747D01*
X196412364Y-104415747D02*
X196517126Y-104468128D01*
X196517126Y-104468128D02*
X196569507Y-104572890D01*
X196569507Y-104572890D02*
X196569507Y-105149080D01*
X197040935Y-105096700D02*
X197145697Y-105149080D01*
X197145697Y-105149080D02*
X197355221Y-105149080D01*
X197355221Y-105149080D02*
X197459983Y-105096700D01*
X197459983Y-105096700D02*
X197512364Y-104991938D01*
X197512364Y-104991938D02*
X197512364Y-104939557D01*
X197512364Y-104939557D02*
X197459983Y-104834795D01*
X197459983Y-104834795D02*
X197355221Y-104782414D01*
X197355221Y-104782414D02*
X197198078Y-104782414D01*
X197198078Y-104782414D02*
X197093316Y-104730033D01*
X197093316Y-104730033D02*
X197040935Y-104625271D01*
X197040935Y-104625271D02*
X197040935Y-104572890D01*
X197040935Y-104572890D02*
X197093316Y-104468128D01*
X197093316Y-104468128D02*
X197198078Y-104415747D01*
X197198078Y-104415747D02*
X197355221Y-104415747D01*
X197355221Y-104415747D02*
X197459983Y-104468128D01*
X197983792Y-105149080D02*
X197983792Y-104415747D01*
X197983792Y-104520509D02*
X198036173Y-104468128D01*
X198036173Y-104468128D02*
X198140935Y-104415747D01*
X198140935Y-104415747D02*
X198298078Y-104415747D01*
X198298078Y-104415747D02*
X198402840Y-104468128D01*
X198402840Y-104468128D02*
X198455221Y-104572890D01*
X198455221Y-104572890D02*
X198455221Y-105149080D01*
X198455221Y-104572890D02*
X198507602Y-104468128D01*
X198507602Y-104468128D02*
X198612364Y-104415747D01*
X198612364Y-104415747D02*
X198769507Y-104415747D01*
X198769507Y-104415747D02*
X198874268Y-104468128D01*
X198874268Y-104468128D02*
X198926649Y-104572890D01*
X198926649Y-104572890D02*
X198926649Y-105149080D01*
X199450459Y-105149080D02*
X199450459Y-104415747D01*
X199450459Y-104049080D02*
X199398078Y-104101461D01*
X199398078Y-104101461D02*
X199450459Y-104153842D01*
X199450459Y-104153842D02*
X199502840Y-104101461D01*
X199502840Y-104101461D02*
X199450459Y-104049080D01*
X199450459Y-104049080D02*
X199450459Y-104153842D01*
X199817126Y-104415747D02*
X200236174Y-104415747D01*
X199974269Y-104049080D02*
X199974269Y-104991938D01*
X199974269Y-104991938D02*
X200026650Y-105096700D01*
X200026650Y-105096700D02*
X200131412Y-105149080D01*
X200131412Y-105149080D02*
X200236174Y-105149080D01*
X200445697Y-104415747D02*
X200864745Y-104415747D01*
X200602840Y-104049080D02*
X200602840Y-104991938D01*
X200602840Y-104991938D02*
X200655221Y-105096700D01*
X200655221Y-105096700D02*
X200759983Y-105149080D01*
X200759983Y-105149080D02*
X200864745Y-105149080D01*
X201650459Y-105096700D02*
X201545697Y-105149080D01*
X201545697Y-105149080D02*
X201336173Y-105149080D01*
X201336173Y-105149080D02*
X201231411Y-105096700D01*
X201231411Y-105096700D02*
X201179030Y-104991938D01*
X201179030Y-104991938D02*
X201179030Y-104572890D01*
X201179030Y-104572890D02*
X201231411Y-104468128D01*
X201231411Y-104468128D02*
X201336173Y-104415747D01*
X201336173Y-104415747D02*
X201545697Y-104415747D01*
X201545697Y-104415747D02*
X201650459Y-104468128D01*
X201650459Y-104468128D02*
X201702840Y-104572890D01*
X201702840Y-104572890D02*
X201702840Y-104677652D01*
X201702840Y-104677652D02*
X201179030Y-104782414D01*
X202174268Y-105149080D02*
X202174268Y-104415747D01*
X202174268Y-104625271D02*
X202226649Y-104520509D01*
X202226649Y-104520509D02*
X202279030Y-104468128D01*
X202279030Y-104468128D02*
X202383792Y-104415747D01*
X202383792Y-104415747D02*
X202488554Y-104415747D01*
X189532001Y-138378128D02*
X190032001Y-139878128D01*
X190032001Y-139878128D02*
X190532001Y-138378128D01*
X191817715Y-139878128D02*
X190960572Y-139878128D01*
X191389143Y-139878128D02*
X191389143Y-138378128D01*
X191389143Y-138378128D02*
X191246286Y-138592414D01*
X191246286Y-138592414D02*
X191103429Y-138735271D01*
X191103429Y-138735271D02*
X190960572Y-138806700D01*
X192460571Y-139735271D02*
X192532000Y-139806700D01*
X192532000Y-139806700D02*
X192460571Y-139878128D01*
X192460571Y-139878128D02*
X192389143Y-139806700D01*
X192389143Y-139806700D02*
X192460571Y-139735271D01*
X192460571Y-139735271D02*
X192460571Y-139878128D01*
X193460572Y-138378128D02*
X193603429Y-138378128D01*
X193603429Y-138378128D02*
X193746286Y-138449557D01*
X193746286Y-138449557D02*
X193817715Y-138520985D01*
X193817715Y-138520985D02*
X193889143Y-138663842D01*
X193889143Y-138663842D02*
X193960572Y-138949557D01*
X193960572Y-138949557D02*
X193960572Y-139306700D01*
X193960572Y-139306700D02*
X193889143Y-139592414D01*
X193889143Y-139592414D02*
X193817715Y-139735271D01*
X193817715Y-139735271D02*
X193746286Y-139806700D01*
X193746286Y-139806700D02*
X193603429Y-139878128D01*
X193603429Y-139878128D02*
X193460572Y-139878128D01*
X193460572Y-139878128D02*
X193317715Y-139806700D01*
X193317715Y-139806700D02*
X193246286Y-139735271D01*
X193246286Y-139735271D02*
X193174857Y-139592414D01*
X193174857Y-139592414D02*
X193103429Y-139306700D01*
X193103429Y-139306700D02*
X193103429Y-138949557D01*
X193103429Y-138949557D02*
X193174857Y-138663842D01*
X193174857Y-138663842D02*
X193246286Y-138520985D01*
X193246286Y-138520985D02*
X193317715Y-138449557D01*
X193317715Y-138449557D02*
X193460572Y-138378128D01*
X194532000Y-138520985D02*
X194603428Y-138449557D01*
X194603428Y-138449557D02*
X194746286Y-138378128D01*
X194746286Y-138378128D02*
X195103428Y-138378128D01*
X195103428Y-138378128D02*
X195246286Y-138449557D01*
X195246286Y-138449557D02*
X195317714Y-138520985D01*
X195317714Y-138520985D02*
X195389143Y-138663842D01*
X195389143Y-138663842D02*
X195389143Y-138806700D01*
X195389143Y-138806700D02*
X195317714Y-139020985D01*
X195317714Y-139020985D02*
X194460571Y-139878128D01*
X194460571Y-139878128D02*
X195389143Y-139878128D01*
X82550095Y-135074819D02*
X82550095Y-134074819D01*
X82550095Y-134551009D02*
X83121523Y-134551009D01*
X83121523Y-135074819D02*
X83121523Y-134074819D01*
X83502476Y-134074819D02*
X84121523Y-134074819D01*
X84121523Y-134074819D02*
X83788190Y-134455771D01*
X83788190Y-134455771D02*
X83931047Y-134455771D01*
X83931047Y-134455771D02*
X84026285Y-134503390D01*
X84026285Y-134503390D02*
X84073904Y-134551009D01*
X84073904Y-134551009D02*
X84121523Y-134646247D01*
X84121523Y-134646247D02*
X84121523Y-134884342D01*
X84121523Y-134884342D02*
X84073904Y-134979580D01*
X84073904Y-134979580D02*
X84026285Y-135027200D01*
X84026285Y-135027200D02*
X83931047Y-135074819D01*
X83931047Y-135074819D02*
X83645333Y-135074819D01*
X83645333Y-135074819D02*
X83550095Y-135027200D01*
X83550095Y-135027200D02*
X83502476Y-134979580D01*
X114477764Y-68549439D02*
X115049192Y-68549439D01*
X114763478Y-69549439D02*
X114763478Y-68549439D01*
X115525383Y-69549439D02*
X115430145Y-69501820D01*
X115430145Y-69501820D02*
X115382526Y-69454200D01*
X115382526Y-69454200D02*
X115334907Y-69358962D01*
X115334907Y-69358962D02*
X115334907Y-69073248D01*
X115334907Y-69073248D02*
X115382526Y-68978010D01*
X115382526Y-68978010D02*
X115430145Y-68930391D01*
X115430145Y-68930391D02*
X115525383Y-68882772D01*
X115525383Y-68882772D02*
X115668240Y-68882772D01*
X115668240Y-68882772D02*
X115763478Y-68930391D01*
X115763478Y-68930391D02*
X115811097Y-68978010D01*
X115811097Y-68978010D02*
X115858716Y-69073248D01*
X115858716Y-69073248D02*
X115858716Y-69358962D01*
X115858716Y-69358962D02*
X115811097Y-69454200D01*
X115811097Y-69454200D02*
X115763478Y-69501820D01*
X115763478Y-69501820D02*
X115668240Y-69549439D01*
X115668240Y-69549439D02*
X115525383Y-69549439D01*
X116715859Y-68882772D02*
X116715859Y-69692296D01*
X116715859Y-69692296D02*
X116668240Y-69787534D01*
X116668240Y-69787534D02*
X116620621Y-69835153D01*
X116620621Y-69835153D02*
X116525383Y-69882772D01*
X116525383Y-69882772D02*
X116382526Y-69882772D01*
X116382526Y-69882772D02*
X116287288Y-69835153D01*
X116715859Y-69501820D02*
X116620621Y-69549439D01*
X116620621Y-69549439D02*
X116430145Y-69549439D01*
X116430145Y-69549439D02*
X116334907Y-69501820D01*
X116334907Y-69501820D02*
X116287288Y-69454200D01*
X116287288Y-69454200D02*
X116239669Y-69358962D01*
X116239669Y-69358962D02*
X116239669Y-69073248D01*
X116239669Y-69073248D02*
X116287288Y-68978010D01*
X116287288Y-68978010D02*
X116334907Y-68930391D01*
X116334907Y-68930391D02*
X116430145Y-68882772D01*
X116430145Y-68882772D02*
X116620621Y-68882772D01*
X116620621Y-68882772D02*
X116715859Y-68930391D01*
X117620621Y-68882772D02*
X117620621Y-69692296D01*
X117620621Y-69692296D02*
X117573002Y-69787534D01*
X117573002Y-69787534D02*
X117525383Y-69835153D01*
X117525383Y-69835153D02*
X117430145Y-69882772D01*
X117430145Y-69882772D02*
X117287288Y-69882772D01*
X117287288Y-69882772D02*
X117192050Y-69835153D01*
X117620621Y-69501820D02*
X117525383Y-69549439D01*
X117525383Y-69549439D02*
X117334907Y-69549439D01*
X117334907Y-69549439D02*
X117239669Y-69501820D01*
X117239669Y-69501820D02*
X117192050Y-69454200D01*
X117192050Y-69454200D02*
X117144431Y-69358962D01*
X117144431Y-69358962D02*
X117144431Y-69073248D01*
X117144431Y-69073248D02*
X117192050Y-68978010D01*
X117192050Y-68978010D02*
X117239669Y-68930391D01*
X117239669Y-68930391D02*
X117334907Y-68882772D01*
X117334907Y-68882772D02*
X117525383Y-68882772D01*
X117525383Y-68882772D02*
X117620621Y-68930391D01*
X118239669Y-69549439D02*
X118144431Y-69501820D01*
X118144431Y-69501820D02*
X118096812Y-69406581D01*
X118096812Y-69406581D02*
X118096812Y-68549439D01*
X119001574Y-69501820D02*
X118906336Y-69549439D01*
X118906336Y-69549439D02*
X118715860Y-69549439D01*
X118715860Y-69549439D02*
X118620622Y-69501820D01*
X118620622Y-69501820D02*
X118573003Y-69406581D01*
X118573003Y-69406581D02*
X118573003Y-69025629D01*
X118573003Y-69025629D02*
X118620622Y-68930391D01*
X118620622Y-68930391D02*
X118715860Y-68882772D01*
X118715860Y-68882772D02*
X118906336Y-68882772D01*
X118906336Y-68882772D02*
X119001574Y-68930391D01*
X119001574Y-68930391D02*
X119049193Y-69025629D01*
X119049193Y-69025629D02*
X119049193Y-69120867D01*
X119049193Y-69120867D02*
X118573003Y-69216105D01*
X120001574Y-69549439D02*
X119430146Y-69549439D01*
X119715860Y-69549439D02*
X119715860Y-68549439D01*
X119715860Y-68549439D02*
X119620622Y-68692296D01*
X119620622Y-68692296D02*
X119525384Y-68787534D01*
X119525384Y-68787534D02*
X119430146Y-68835153D01*
X183063236Y-112214819D02*
X182729903Y-111738628D01*
X182491808Y-112214819D02*
X182491808Y-111214819D01*
X182491808Y-111214819D02*
X182872760Y-111214819D01*
X182872760Y-111214819D02*
X182967998Y-111262438D01*
X182967998Y-111262438D02*
X183015617Y-111310057D01*
X183015617Y-111310057D02*
X183063236Y-111405295D01*
X183063236Y-111405295D02*
X183063236Y-111548152D01*
X183063236Y-111548152D02*
X183015617Y-111643390D01*
X183015617Y-111643390D02*
X182967998Y-111691009D01*
X182967998Y-111691009D02*
X182872760Y-111738628D01*
X182872760Y-111738628D02*
X182491808Y-111738628D01*
X183634665Y-112214819D02*
X183539427Y-112167200D01*
X183539427Y-112167200D02*
X183491808Y-112119580D01*
X183491808Y-112119580D02*
X183444189Y-112024342D01*
X183444189Y-112024342D02*
X183444189Y-111738628D01*
X183444189Y-111738628D02*
X183491808Y-111643390D01*
X183491808Y-111643390D02*
X183539427Y-111595771D01*
X183539427Y-111595771D02*
X183634665Y-111548152D01*
X183634665Y-111548152D02*
X183777522Y-111548152D01*
X183777522Y-111548152D02*
X183872760Y-111595771D01*
X183872760Y-111595771D02*
X183920379Y-111643390D01*
X183920379Y-111643390D02*
X183967998Y-111738628D01*
X183967998Y-111738628D02*
X183967998Y-112024342D01*
X183967998Y-112024342D02*
X183920379Y-112119580D01*
X183920379Y-112119580D02*
X183872760Y-112167200D01*
X183872760Y-112167200D02*
X183777522Y-112214819D01*
X183777522Y-112214819D02*
X183634665Y-112214819D01*
X184253713Y-111548152D02*
X184634665Y-111548152D01*
X184396570Y-111214819D02*
X184396570Y-112071961D01*
X184396570Y-112071961D02*
X184444189Y-112167200D01*
X184444189Y-112167200D02*
X184539427Y-112214819D01*
X184539427Y-112214819D02*
X184634665Y-112214819D01*
X185396570Y-112214819D02*
X185396570Y-111691009D01*
X185396570Y-111691009D02*
X185348951Y-111595771D01*
X185348951Y-111595771D02*
X185253713Y-111548152D01*
X185253713Y-111548152D02*
X185063237Y-111548152D01*
X185063237Y-111548152D02*
X184967999Y-111595771D01*
X185396570Y-112167200D02*
X185301332Y-112214819D01*
X185301332Y-112214819D02*
X185063237Y-112214819D01*
X185063237Y-112214819D02*
X184967999Y-112167200D01*
X184967999Y-112167200D02*
X184920380Y-112071961D01*
X184920380Y-112071961D02*
X184920380Y-111976723D01*
X184920380Y-111976723D02*
X184967999Y-111881485D01*
X184967999Y-111881485D02*
X185063237Y-111833866D01*
X185063237Y-111833866D02*
X185301332Y-111833866D01*
X185301332Y-111833866D02*
X185396570Y-111786247D01*
X185872761Y-112214819D02*
X185872761Y-111548152D01*
X185872761Y-111738628D02*
X185920380Y-111643390D01*
X185920380Y-111643390D02*
X185967999Y-111595771D01*
X185967999Y-111595771D02*
X186063237Y-111548152D01*
X186063237Y-111548152D02*
X186158475Y-111548152D01*
X186396571Y-111548152D02*
X186634666Y-112214819D01*
X186872761Y-111548152D02*
X186634666Y-112214819D01*
X186634666Y-112214819D02*
X186539428Y-112452914D01*
X186539428Y-112452914D02*
X186491809Y-112500533D01*
X186491809Y-112500533D02*
X186396571Y-112548152D01*
X187015619Y-112310057D02*
X187777523Y-112310057D01*
X188015619Y-111691009D02*
X188348952Y-111691009D01*
X188491809Y-112214819D02*
X188015619Y-112214819D01*
X188015619Y-112214819D02*
X188015619Y-111214819D01*
X188015619Y-111214819D02*
X188491809Y-111214819D01*
X188920381Y-111548152D02*
X188920381Y-112214819D01*
X188920381Y-111643390D02*
X188968000Y-111595771D01*
X188968000Y-111595771D02*
X189063238Y-111548152D01*
X189063238Y-111548152D02*
X189206095Y-111548152D01*
X189206095Y-111548152D02*
X189301333Y-111595771D01*
X189301333Y-111595771D02*
X189348952Y-111691009D01*
X189348952Y-111691009D02*
X189348952Y-112214819D01*
X190253714Y-112167200D02*
X190158476Y-112214819D01*
X190158476Y-112214819D02*
X189968000Y-112214819D01*
X189968000Y-112214819D02*
X189872762Y-112167200D01*
X189872762Y-112167200D02*
X189825143Y-112119580D01*
X189825143Y-112119580D02*
X189777524Y-112024342D01*
X189777524Y-112024342D02*
X189777524Y-111738628D01*
X189777524Y-111738628D02*
X189825143Y-111643390D01*
X189825143Y-111643390D02*
X189872762Y-111595771D01*
X189872762Y-111595771D02*
X189968000Y-111548152D01*
X189968000Y-111548152D02*
X190158476Y-111548152D01*
X190158476Y-111548152D02*
X190253714Y-111595771D01*
X190825143Y-112214819D02*
X190729905Y-112167200D01*
X190729905Y-112167200D02*
X190682286Y-112119580D01*
X190682286Y-112119580D02*
X190634667Y-112024342D01*
X190634667Y-112024342D02*
X190634667Y-111738628D01*
X190634667Y-111738628D02*
X190682286Y-111643390D01*
X190682286Y-111643390D02*
X190729905Y-111595771D01*
X190729905Y-111595771D02*
X190825143Y-111548152D01*
X190825143Y-111548152D02*
X190968000Y-111548152D01*
X190968000Y-111548152D02*
X191063238Y-111595771D01*
X191063238Y-111595771D02*
X191110857Y-111643390D01*
X191110857Y-111643390D02*
X191158476Y-111738628D01*
X191158476Y-111738628D02*
X191158476Y-112024342D01*
X191158476Y-112024342D02*
X191110857Y-112119580D01*
X191110857Y-112119580D02*
X191063238Y-112167200D01*
X191063238Y-112167200D02*
X190968000Y-112214819D01*
X190968000Y-112214819D02*
X190825143Y-112214819D01*
X192015619Y-112214819D02*
X192015619Y-111214819D01*
X192015619Y-112167200D02*
X191920381Y-112214819D01*
X191920381Y-112214819D02*
X191729905Y-112214819D01*
X191729905Y-112214819D02*
X191634667Y-112167200D01*
X191634667Y-112167200D02*
X191587048Y-112119580D01*
X191587048Y-112119580D02*
X191539429Y-112024342D01*
X191539429Y-112024342D02*
X191539429Y-111738628D01*
X191539429Y-111738628D02*
X191587048Y-111643390D01*
X191587048Y-111643390D02*
X191634667Y-111595771D01*
X191634667Y-111595771D02*
X191729905Y-111548152D01*
X191729905Y-111548152D02*
X191920381Y-111548152D01*
X191920381Y-111548152D02*
X192015619Y-111595771D01*
X192872762Y-112167200D02*
X192777524Y-112214819D01*
X192777524Y-112214819D02*
X192587048Y-112214819D01*
X192587048Y-112214819D02*
X192491810Y-112167200D01*
X192491810Y-112167200D02*
X192444191Y-112071961D01*
X192444191Y-112071961D02*
X192444191Y-111691009D01*
X192444191Y-111691009D02*
X192491810Y-111595771D01*
X192491810Y-111595771D02*
X192587048Y-111548152D01*
X192587048Y-111548152D02*
X192777524Y-111548152D01*
X192777524Y-111548152D02*
X192872762Y-111595771D01*
X192872762Y-111595771D02*
X192920381Y-111691009D01*
X192920381Y-111691009D02*
X192920381Y-111786247D01*
X192920381Y-111786247D02*
X192444191Y-111881485D01*
X193348953Y-112214819D02*
X193348953Y-111548152D01*
X193348953Y-111738628D02*
X193396572Y-111643390D01*
X193396572Y-111643390D02*
X193444191Y-111595771D01*
X193444191Y-111595771D02*
X193539429Y-111548152D01*
X193539429Y-111548152D02*
X193634667Y-111548152D01*
X194491810Y-112214819D02*
X193920382Y-112214819D01*
X194206096Y-112214819D02*
X194206096Y-111214819D01*
X194206096Y-111214819D02*
X194110858Y-111357676D01*
X194110858Y-111357676D02*
X194015620Y-111452914D01*
X194015620Y-111452914D02*
X193920382Y-111500533D01*
X197866095Y-135074819D02*
X197866095Y-134074819D01*
X197866095Y-134551009D02*
X198437523Y-134551009D01*
X198437523Y-135074819D02*
X198437523Y-134074819D01*
X199342285Y-134408152D02*
X199342285Y-135074819D01*
X199104190Y-134027200D02*
X198866095Y-134741485D01*
X198866095Y-134741485D02*
X199485142Y-134741485D01*
X106544127Y-103578819D02*
X106544127Y-102578819D01*
X106544127Y-103055009D02*
X107115555Y-103055009D01*
X107115555Y-103578819D02*
X107115555Y-102578819D01*
X108067936Y-102578819D02*
X107591746Y-102578819D01*
X107591746Y-102578819D02*
X107544127Y-103055009D01*
X107544127Y-103055009D02*
X107591746Y-103007390D01*
X107591746Y-103007390D02*
X107686984Y-102959771D01*
X107686984Y-102959771D02*
X107925079Y-102959771D01*
X107925079Y-102959771D02*
X108020317Y-103007390D01*
X108020317Y-103007390D02*
X108067936Y-103055009D01*
X108067936Y-103055009D02*
X108115555Y-103150247D01*
X108115555Y-103150247D02*
X108115555Y-103388342D01*
X108115555Y-103388342D02*
X108067936Y-103483580D01*
X108067936Y-103483580D02*
X108020317Y-103531200D01*
X108020317Y-103531200D02*
X107925079Y-103578819D01*
X107925079Y-103578819D02*
X107686984Y-103578819D01*
X107686984Y-103578819D02*
X107591746Y-103531200D01*
X107591746Y-103531200D02*
X107544127Y-103483580D01*
X179270819Y-134278666D02*
X178794628Y-134611999D01*
X179270819Y-134850094D02*
X178270819Y-134850094D01*
X178270819Y-134850094D02*
X178270819Y-134469142D01*
X178270819Y-134469142D02*
X178318438Y-134373904D01*
X178318438Y-134373904D02*
X178366057Y-134326285D01*
X178366057Y-134326285D02*
X178461295Y-134278666D01*
X178461295Y-134278666D02*
X178604152Y-134278666D01*
X178604152Y-134278666D02*
X178699390Y-134326285D01*
X178699390Y-134326285D02*
X178747009Y-134373904D01*
X178747009Y-134373904D02*
X178794628Y-134469142D01*
X178794628Y-134469142D02*
X178794628Y-134850094D01*
X178604152Y-133421523D02*
X179270819Y-133421523D01*
X178223200Y-133659618D02*
X178937485Y-133897713D01*
X178937485Y-133897713D02*
X178937485Y-133278666D01*
X179356364Y-131151238D02*
X179356364Y-131722666D01*
X179356364Y-131436952D02*
X178356364Y-131436952D01*
X178356364Y-131436952D02*
X178499221Y-131532190D01*
X178499221Y-131532190D02*
X178594459Y-131627428D01*
X178594459Y-131627428D02*
X178642078Y-131722666D01*
X178356364Y-130532190D02*
X178356364Y-130436952D01*
X178356364Y-130436952D02*
X178403983Y-130341714D01*
X178403983Y-130341714D02*
X178451602Y-130294095D01*
X178451602Y-130294095D02*
X178546840Y-130246476D01*
X178546840Y-130246476D02*
X178737316Y-130198857D01*
X178737316Y-130198857D02*
X178975411Y-130198857D01*
X178975411Y-130198857D02*
X179165887Y-130246476D01*
X179165887Y-130246476D02*
X179261125Y-130294095D01*
X179261125Y-130294095D02*
X179308745Y-130341714D01*
X179308745Y-130341714D02*
X179356364Y-130436952D01*
X179356364Y-130436952D02*
X179356364Y-130532190D01*
X179356364Y-130532190D02*
X179308745Y-130627428D01*
X179308745Y-130627428D02*
X179261125Y-130675047D01*
X179261125Y-130675047D02*
X179165887Y-130722666D01*
X179165887Y-130722666D02*
X178975411Y-130770285D01*
X178975411Y-130770285D02*
X178737316Y-130770285D01*
X178737316Y-130770285D02*
X178546840Y-130722666D01*
X178546840Y-130722666D02*
X178451602Y-130675047D01*
X178451602Y-130675047D02*
X178403983Y-130627428D01*
X178403983Y-130627428D02*
X178356364Y-130532190D01*
X179356364Y-129770285D02*
X178356364Y-129770285D01*
X178975411Y-129675047D02*
X179356364Y-129389333D01*
X178689697Y-129389333D02*
X179070649Y-129770285D01*
X95456666Y-121411009D02*
X95599523Y-121458628D01*
X95599523Y-121458628D02*
X95647142Y-121506247D01*
X95647142Y-121506247D02*
X95694761Y-121601485D01*
X95694761Y-121601485D02*
X95694761Y-121744342D01*
X95694761Y-121744342D02*
X95647142Y-121839580D01*
X95647142Y-121839580D02*
X95599523Y-121887200D01*
X95599523Y-121887200D02*
X95504285Y-121934819D01*
X95504285Y-121934819D02*
X95123333Y-121934819D01*
X95123333Y-121934819D02*
X95123333Y-120934819D01*
X95123333Y-120934819D02*
X95456666Y-120934819D01*
X95456666Y-120934819D02*
X95551904Y-120982438D01*
X95551904Y-120982438D02*
X95599523Y-121030057D01*
X95599523Y-121030057D02*
X95647142Y-121125295D01*
X95647142Y-121125295D02*
X95647142Y-121220533D01*
X95647142Y-121220533D02*
X95599523Y-121315771D01*
X95599523Y-121315771D02*
X95551904Y-121363390D01*
X95551904Y-121363390D02*
X95456666Y-121411009D01*
X95456666Y-121411009D02*
X95123333Y-121411009D01*
X96551904Y-121268152D02*
X96551904Y-121934819D01*
X96123333Y-121268152D02*
X96123333Y-121791961D01*
X96123333Y-121791961D02*
X96170952Y-121887200D01*
X96170952Y-121887200D02*
X96266190Y-121934819D01*
X96266190Y-121934819D02*
X96409047Y-121934819D01*
X96409047Y-121934819D02*
X96504285Y-121887200D01*
X96504285Y-121887200D02*
X96551904Y-121839580D01*
X96885238Y-121268152D02*
X97266190Y-121268152D01*
X97028095Y-120934819D02*
X97028095Y-121791961D01*
X97028095Y-121791961D02*
X97075714Y-121887200D01*
X97075714Y-121887200D02*
X97170952Y-121934819D01*
X97170952Y-121934819D02*
X97266190Y-121934819D01*
X97456667Y-121268152D02*
X97837619Y-121268152D01*
X97599524Y-120934819D02*
X97599524Y-121791961D01*
X97599524Y-121791961D02*
X97647143Y-121887200D01*
X97647143Y-121887200D02*
X97742381Y-121934819D01*
X97742381Y-121934819D02*
X97837619Y-121934819D01*
X98313810Y-121934819D02*
X98218572Y-121887200D01*
X98218572Y-121887200D02*
X98170953Y-121839580D01*
X98170953Y-121839580D02*
X98123334Y-121744342D01*
X98123334Y-121744342D02*
X98123334Y-121458628D01*
X98123334Y-121458628D02*
X98170953Y-121363390D01*
X98170953Y-121363390D02*
X98218572Y-121315771D01*
X98218572Y-121315771D02*
X98313810Y-121268152D01*
X98313810Y-121268152D02*
X98456667Y-121268152D01*
X98456667Y-121268152D02*
X98551905Y-121315771D01*
X98551905Y-121315771D02*
X98599524Y-121363390D01*
X98599524Y-121363390D02*
X98647143Y-121458628D01*
X98647143Y-121458628D02*
X98647143Y-121744342D01*
X98647143Y-121744342D02*
X98599524Y-121839580D01*
X98599524Y-121839580D02*
X98551905Y-121887200D01*
X98551905Y-121887200D02*
X98456667Y-121934819D01*
X98456667Y-121934819D02*
X98313810Y-121934819D01*
X99075715Y-121268152D02*
X99075715Y-121934819D01*
X99075715Y-121363390D02*
X99123334Y-121315771D01*
X99123334Y-121315771D02*
X99218572Y-121268152D01*
X99218572Y-121268152D02*
X99361429Y-121268152D01*
X99361429Y-121268152D02*
X99456667Y-121315771D01*
X99456667Y-121315771D02*
X99504286Y-121411009D01*
X99504286Y-121411009D02*
X99504286Y-121934819D01*
X99885239Y-120934819D02*
X100504286Y-120934819D01*
X100504286Y-120934819D02*
X100170953Y-121315771D01*
X100170953Y-121315771D02*
X100313810Y-121315771D01*
X100313810Y-121315771D02*
X100409048Y-121363390D01*
X100409048Y-121363390D02*
X100456667Y-121411009D01*
X100456667Y-121411009D02*
X100504286Y-121506247D01*
X100504286Y-121506247D02*
X100504286Y-121744342D01*
X100504286Y-121744342D02*
X100456667Y-121839580D01*
X100456667Y-121839580D02*
X100409048Y-121887200D01*
X100409048Y-121887200D02*
X100313810Y-121934819D01*
X100313810Y-121934819D02*
X100028096Y-121934819D01*
X100028096Y-121934819D02*
X99932858Y-121887200D01*
X99932858Y-121887200D02*
X99885239Y-121839580D01*
X140300015Y-66494819D02*
X140300015Y-65494819D01*
X140300015Y-65971009D02*
X140871443Y-65971009D01*
X140871443Y-66494819D02*
X140871443Y-65494819D01*
X141395253Y-66494819D02*
X141585729Y-66494819D01*
X141585729Y-66494819D02*
X141680967Y-66447200D01*
X141680967Y-66447200D02*
X141728586Y-66399580D01*
X141728586Y-66399580D02*
X141823824Y-66256723D01*
X141823824Y-66256723D02*
X141871443Y-66066247D01*
X141871443Y-66066247D02*
X141871443Y-65685295D01*
X141871443Y-65685295D02*
X141823824Y-65590057D01*
X141823824Y-65590057D02*
X141776205Y-65542438D01*
X141776205Y-65542438D02*
X141680967Y-65494819D01*
X141680967Y-65494819D02*
X141490491Y-65494819D01*
X141490491Y-65494819D02*
X141395253Y-65542438D01*
X141395253Y-65542438D02*
X141347634Y-65590057D01*
X141347634Y-65590057D02*
X141300015Y-65685295D01*
X141300015Y-65685295D02*
X141300015Y-65923390D01*
X141300015Y-65923390D02*
X141347634Y-66018628D01*
X141347634Y-66018628D02*
X141395253Y-66066247D01*
X141395253Y-66066247D02*
X141490491Y-66113866D01*
X141490491Y-66113866D02*
X141680967Y-66113866D01*
X141680967Y-66113866D02*
X141776205Y-66066247D01*
X141776205Y-66066247D02*
X141823824Y-66018628D01*
X141823824Y-66018628D02*
X141871443Y-65923390D01*
X146516678Y-68511579D02*
X147088106Y-68511579D01*
X146802392Y-69511579D02*
X146802392Y-68511579D01*
X147564297Y-69511579D02*
X147469059Y-69463960D01*
X147469059Y-69463960D02*
X147421440Y-69416340D01*
X147421440Y-69416340D02*
X147373821Y-69321102D01*
X147373821Y-69321102D02*
X147373821Y-69035388D01*
X147373821Y-69035388D02*
X147421440Y-68940150D01*
X147421440Y-68940150D02*
X147469059Y-68892531D01*
X147469059Y-68892531D02*
X147564297Y-68844912D01*
X147564297Y-68844912D02*
X147707154Y-68844912D01*
X147707154Y-68844912D02*
X147802392Y-68892531D01*
X147802392Y-68892531D02*
X147850011Y-68940150D01*
X147850011Y-68940150D02*
X147897630Y-69035388D01*
X147897630Y-69035388D02*
X147897630Y-69321102D01*
X147897630Y-69321102D02*
X147850011Y-69416340D01*
X147850011Y-69416340D02*
X147802392Y-69463960D01*
X147802392Y-69463960D02*
X147707154Y-69511579D01*
X147707154Y-69511579D02*
X147564297Y-69511579D01*
X148754773Y-68844912D02*
X148754773Y-69654436D01*
X148754773Y-69654436D02*
X148707154Y-69749674D01*
X148707154Y-69749674D02*
X148659535Y-69797293D01*
X148659535Y-69797293D02*
X148564297Y-69844912D01*
X148564297Y-69844912D02*
X148421440Y-69844912D01*
X148421440Y-69844912D02*
X148326202Y-69797293D01*
X148754773Y-69463960D02*
X148659535Y-69511579D01*
X148659535Y-69511579D02*
X148469059Y-69511579D01*
X148469059Y-69511579D02*
X148373821Y-69463960D01*
X148373821Y-69463960D02*
X148326202Y-69416340D01*
X148326202Y-69416340D02*
X148278583Y-69321102D01*
X148278583Y-69321102D02*
X148278583Y-69035388D01*
X148278583Y-69035388D02*
X148326202Y-68940150D01*
X148326202Y-68940150D02*
X148373821Y-68892531D01*
X148373821Y-68892531D02*
X148469059Y-68844912D01*
X148469059Y-68844912D02*
X148659535Y-68844912D01*
X148659535Y-68844912D02*
X148754773Y-68892531D01*
X149659535Y-68844912D02*
X149659535Y-69654436D01*
X149659535Y-69654436D02*
X149611916Y-69749674D01*
X149611916Y-69749674D02*
X149564297Y-69797293D01*
X149564297Y-69797293D02*
X149469059Y-69844912D01*
X149469059Y-69844912D02*
X149326202Y-69844912D01*
X149326202Y-69844912D02*
X149230964Y-69797293D01*
X149659535Y-69463960D02*
X149564297Y-69511579D01*
X149564297Y-69511579D02*
X149373821Y-69511579D01*
X149373821Y-69511579D02*
X149278583Y-69463960D01*
X149278583Y-69463960D02*
X149230964Y-69416340D01*
X149230964Y-69416340D02*
X149183345Y-69321102D01*
X149183345Y-69321102D02*
X149183345Y-69035388D01*
X149183345Y-69035388D02*
X149230964Y-68940150D01*
X149230964Y-68940150D02*
X149278583Y-68892531D01*
X149278583Y-68892531D02*
X149373821Y-68844912D01*
X149373821Y-68844912D02*
X149564297Y-68844912D01*
X149564297Y-68844912D02*
X149659535Y-68892531D01*
X150278583Y-69511579D02*
X150183345Y-69463960D01*
X150183345Y-69463960D02*
X150135726Y-69368721D01*
X150135726Y-69368721D02*
X150135726Y-68511579D01*
X151040488Y-69463960D02*
X150945250Y-69511579D01*
X150945250Y-69511579D02*
X150754774Y-69511579D01*
X150754774Y-69511579D02*
X150659536Y-69463960D01*
X150659536Y-69463960D02*
X150611917Y-69368721D01*
X150611917Y-69368721D02*
X150611917Y-68987769D01*
X150611917Y-68987769D02*
X150659536Y-68892531D01*
X150659536Y-68892531D02*
X150754774Y-68844912D01*
X150754774Y-68844912D02*
X150945250Y-68844912D01*
X150945250Y-68844912D02*
X151040488Y-68892531D01*
X151040488Y-68892531D02*
X151088107Y-68987769D01*
X151088107Y-68987769D02*
X151088107Y-69083007D01*
X151088107Y-69083007D02*
X150611917Y-69178245D01*
X151421441Y-68511579D02*
X152040488Y-68511579D01*
X152040488Y-68511579D02*
X151707155Y-68892531D01*
X151707155Y-68892531D02*
X151850012Y-68892531D01*
X151850012Y-68892531D02*
X151945250Y-68940150D01*
X151945250Y-68940150D02*
X151992869Y-68987769D01*
X151992869Y-68987769D02*
X152040488Y-69083007D01*
X152040488Y-69083007D02*
X152040488Y-69321102D01*
X152040488Y-69321102D02*
X151992869Y-69416340D01*
X151992869Y-69416340D02*
X151945250Y-69463960D01*
X151945250Y-69463960D02*
X151850012Y-69511579D01*
X151850012Y-69511579D02*
X151564298Y-69511579D01*
X151564298Y-69511579D02*
X151469060Y-69463960D01*
X151469060Y-69463960D02*
X151421441Y-69416340D01*
D12*
X93805714Y-63433609D02*
X93948571Y-63481228D01*
X93948571Y-63481228D02*
X93996190Y-63528847D01*
X93996190Y-63528847D02*
X94043809Y-63624085D01*
X94043809Y-63624085D02*
X94043809Y-63766942D01*
X94043809Y-63766942D02*
X93996190Y-63862180D01*
X93996190Y-63862180D02*
X93948571Y-63909800D01*
X93948571Y-63909800D02*
X93853333Y-63957419D01*
X93853333Y-63957419D02*
X93472381Y-63957419D01*
X93472381Y-63957419D02*
X93472381Y-62957419D01*
X93472381Y-62957419D02*
X93805714Y-62957419D01*
X93805714Y-62957419D02*
X93900952Y-63005038D01*
X93900952Y-63005038D02*
X93948571Y-63052657D01*
X93948571Y-63052657D02*
X93996190Y-63147895D01*
X93996190Y-63147895D02*
X93996190Y-63243133D01*
X93996190Y-63243133D02*
X93948571Y-63338371D01*
X93948571Y-63338371D02*
X93900952Y-63385990D01*
X93900952Y-63385990D02*
X93805714Y-63433609D01*
X93805714Y-63433609D02*
X93472381Y-63433609D01*
X94900952Y-63290752D02*
X94900952Y-63957419D01*
X94472381Y-63290752D02*
X94472381Y-63814561D01*
X94472381Y-63814561D02*
X94520000Y-63909800D01*
X94520000Y-63909800D02*
X94615238Y-63957419D01*
X94615238Y-63957419D02*
X94758095Y-63957419D01*
X94758095Y-63957419D02*
X94853333Y-63909800D01*
X94853333Y-63909800D02*
X94900952Y-63862180D01*
X95377143Y-63957419D02*
X95377143Y-63290752D01*
X95377143Y-63385990D02*
X95424762Y-63338371D01*
X95424762Y-63338371D02*
X95520000Y-63290752D01*
X95520000Y-63290752D02*
X95662857Y-63290752D01*
X95662857Y-63290752D02*
X95758095Y-63338371D01*
X95758095Y-63338371D02*
X95805714Y-63433609D01*
X95805714Y-63433609D02*
X95805714Y-63957419D01*
X95805714Y-63433609D02*
X95853333Y-63338371D01*
X95853333Y-63338371D02*
X95948571Y-63290752D01*
X95948571Y-63290752D02*
X96091428Y-63290752D01*
X96091428Y-63290752D02*
X96186667Y-63338371D01*
X96186667Y-63338371D02*
X96234286Y-63433609D01*
X96234286Y-63433609D02*
X96234286Y-63957419D01*
X96710476Y-63290752D02*
X96710476Y-64290752D01*
X96710476Y-63338371D02*
X96805714Y-63290752D01*
X96805714Y-63290752D02*
X96996190Y-63290752D01*
X96996190Y-63290752D02*
X97091428Y-63338371D01*
X97091428Y-63338371D02*
X97139047Y-63385990D01*
X97139047Y-63385990D02*
X97186666Y-63481228D01*
X97186666Y-63481228D02*
X97186666Y-63766942D01*
X97186666Y-63766942D02*
X97139047Y-63862180D01*
X97139047Y-63862180D02*
X97091428Y-63909800D01*
X97091428Y-63909800D02*
X96996190Y-63957419D01*
X96996190Y-63957419D02*
X96805714Y-63957419D01*
X96805714Y-63957419D02*
X96710476Y-63909800D01*
X97996190Y-63909800D02*
X97900952Y-63957419D01*
X97900952Y-63957419D02*
X97710476Y-63957419D01*
X97710476Y-63957419D02*
X97615238Y-63909800D01*
X97615238Y-63909800D02*
X97567619Y-63814561D01*
X97567619Y-63814561D02*
X97567619Y-63433609D01*
X97567619Y-63433609D02*
X97615238Y-63338371D01*
X97615238Y-63338371D02*
X97710476Y-63290752D01*
X97710476Y-63290752D02*
X97900952Y-63290752D01*
X97900952Y-63290752D02*
X97996190Y-63338371D01*
X97996190Y-63338371D02*
X98043809Y-63433609D01*
X98043809Y-63433609D02*
X98043809Y-63528847D01*
X98043809Y-63528847D02*
X97567619Y-63624085D01*
X98472381Y-63957419D02*
X98472381Y-63290752D01*
X98472381Y-63481228D02*
X98520000Y-63385990D01*
X98520000Y-63385990D02*
X98567619Y-63338371D01*
X98567619Y-63338371D02*
X98662857Y-63290752D01*
X98662857Y-63290752D02*
X98758095Y-63290752D01*
X99043810Y-63052657D02*
X99091429Y-63005038D01*
X99091429Y-63005038D02*
X99186667Y-62957419D01*
X99186667Y-62957419D02*
X99424762Y-62957419D01*
X99424762Y-62957419D02*
X99520000Y-63005038D01*
X99520000Y-63005038D02*
X99567619Y-63052657D01*
X99567619Y-63052657D02*
X99615238Y-63147895D01*
X99615238Y-63147895D02*
X99615238Y-63243133D01*
X99615238Y-63243133D02*
X99567619Y-63385990D01*
X99567619Y-63385990D02*
X98996191Y-63957419D01*
X98996191Y-63957419D02*
X99615238Y-63957419D01*
D10*
X197866095Y-57858819D02*
X197866095Y-56858819D01*
X197866095Y-57335009D02*
X198437523Y-57335009D01*
X198437523Y-57858819D02*
X198437523Y-56858819D01*
X198866095Y-56954057D02*
X198913714Y-56906438D01*
X198913714Y-56906438D02*
X199008952Y-56858819D01*
X199008952Y-56858819D02*
X199247047Y-56858819D01*
X199247047Y-56858819D02*
X199342285Y-56906438D01*
X199342285Y-56906438D02*
X199389904Y-56954057D01*
X199389904Y-56954057D02*
X199437523Y-57049295D01*
X199437523Y-57049295D02*
X199437523Y-57144533D01*
X199437523Y-57144533D02*
X199389904Y-57287390D01*
X199389904Y-57287390D02*
X198818476Y-57858819D01*
X198818476Y-57858819D02*
X199437523Y-57858819D01*
X106683873Y-136090819D02*
X106683873Y-135090819D01*
X106683873Y-135567009D02*
X107255301Y-135567009D01*
X107255301Y-136090819D02*
X107255301Y-135090819D01*
X107636254Y-135090819D02*
X108302920Y-135090819D01*
X108302920Y-135090819D02*
X107874349Y-136090819D01*
X95456666Y-131231009D02*
X95599523Y-131278628D01*
X95599523Y-131278628D02*
X95647142Y-131326247D01*
X95647142Y-131326247D02*
X95694761Y-131421485D01*
X95694761Y-131421485D02*
X95694761Y-131564342D01*
X95694761Y-131564342D02*
X95647142Y-131659580D01*
X95647142Y-131659580D02*
X95599523Y-131707200D01*
X95599523Y-131707200D02*
X95504285Y-131754819D01*
X95504285Y-131754819D02*
X95123333Y-131754819D01*
X95123333Y-131754819D02*
X95123333Y-130754819D01*
X95123333Y-130754819D02*
X95456666Y-130754819D01*
X95456666Y-130754819D02*
X95551904Y-130802438D01*
X95551904Y-130802438D02*
X95599523Y-130850057D01*
X95599523Y-130850057D02*
X95647142Y-130945295D01*
X95647142Y-130945295D02*
X95647142Y-131040533D01*
X95647142Y-131040533D02*
X95599523Y-131135771D01*
X95599523Y-131135771D02*
X95551904Y-131183390D01*
X95551904Y-131183390D02*
X95456666Y-131231009D01*
X95456666Y-131231009D02*
X95123333Y-131231009D01*
X96551904Y-131088152D02*
X96551904Y-131754819D01*
X96123333Y-131088152D02*
X96123333Y-131611961D01*
X96123333Y-131611961D02*
X96170952Y-131707200D01*
X96170952Y-131707200D02*
X96266190Y-131754819D01*
X96266190Y-131754819D02*
X96409047Y-131754819D01*
X96409047Y-131754819D02*
X96504285Y-131707200D01*
X96504285Y-131707200D02*
X96551904Y-131659580D01*
X96885238Y-131088152D02*
X97266190Y-131088152D01*
X97028095Y-130754819D02*
X97028095Y-131611961D01*
X97028095Y-131611961D02*
X97075714Y-131707200D01*
X97075714Y-131707200D02*
X97170952Y-131754819D01*
X97170952Y-131754819D02*
X97266190Y-131754819D01*
X97456667Y-131088152D02*
X97837619Y-131088152D01*
X97599524Y-130754819D02*
X97599524Y-131611961D01*
X97599524Y-131611961D02*
X97647143Y-131707200D01*
X97647143Y-131707200D02*
X97742381Y-131754819D01*
X97742381Y-131754819D02*
X97837619Y-131754819D01*
X98313810Y-131754819D02*
X98218572Y-131707200D01*
X98218572Y-131707200D02*
X98170953Y-131659580D01*
X98170953Y-131659580D02*
X98123334Y-131564342D01*
X98123334Y-131564342D02*
X98123334Y-131278628D01*
X98123334Y-131278628D02*
X98170953Y-131183390D01*
X98170953Y-131183390D02*
X98218572Y-131135771D01*
X98218572Y-131135771D02*
X98313810Y-131088152D01*
X98313810Y-131088152D02*
X98456667Y-131088152D01*
X98456667Y-131088152D02*
X98551905Y-131135771D01*
X98551905Y-131135771D02*
X98599524Y-131183390D01*
X98599524Y-131183390D02*
X98647143Y-131278628D01*
X98647143Y-131278628D02*
X98647143Y-131564342D01*
X98647143Y-131564342D02*
X98599524Y-131659580D01*
X98599524Y-131659580D02*
X98551905Y-131707200D01*
X98551905Y-131707200D02*
X98456667Y-131754819D01*
X98456667Y-131754819D02*
X98313810Y-131754819D01*
X99075715Y-131088152D02*
X99075715Y-131754819D01*
X99075715Y-131183390D02*
X99123334Y-131135771D01*
X99123334Y-131135771D02*
X99218572Y-131088152D01*
X99218572Y-131088152D02*
X99361429Y-131088152D01*
X99361429Y-131088152D02*
X99456667Y-131135771D01*
X99456667Y-131135771D02*
X99504286Y-131231009D01*
X99504286Y-131231009D02*
X99504286Y-131754819D01*
X100409048Y-131088152D02*
X100409048Y-131754819D01*
X100170953Y-130707200D02*
X99932858Y-131421485D01*
X99932858Y-131421485D02*
X100551905Y-131421485D01*
X95456666Y-111251009D02*
X95599523Y-111298628D01*
X95599523Y-111298628D02*
X95647142Y-111346247D01*
X95647142Y-111346247D02*
X95694761Y-111441485D01*
X95694761Y-111441485D02*
X95694761Y-111584342D01*
X95694761Y-111584342D02*
X95647142Y-111679580D01*
X95647142Y-111679580D02*
X95599523Y-111727200D01*
X95599523Y-111727200D02*
X95504285Y-111774819D01*
X95504285Y-111774819D02*
X95123333Y-111774819D01*
X95123333Y-111774819D02*
X95123333Y-110774819D01*
X95123333Y-110774819D02*
X95456666Y-110774819D01*
X95456666Y-110774819D02*
X95551904Y-110822438D01*
X95551904Y-110822438D02*
X95599523Y-110870057D01*
X95599523Y-110870057D02*
X95647142Y-110965295D01*
X95647142Y-110965295D02*
X95647142Y-111060533D01*
X95647142Y-111060533D02*
X95599523Y-111155771D01*
X95599523Y-111155771D02*
X95551904Y-111203390D01*
X95551904Y-111203390D02*
X95456666Y-111251009D01*
X95456666Y-111251009D02*
X95123333Y-111251009D01*
X96551904Y-111108152D02*
X96551904Y-111774819D01*
X96123333Y-111108152D02*
X96123333Y-111631961D01*
X96123333Y-111631961D02*
X96170952Y-111727200D01*
X96170952Y-111727200D02*
X96266190Y-111774819D01*
X96266190Y-111774819D02*
X96409047Y-111774819D01*
X96409047Y-111774819D02*
X96504285Y-111727200D01*
X96504285Y-111727200D02*
X96551904Y-111679580D01*
X96885238Y-111108152D02*
X97266190Y-111108152D01*
X97028095Y-110774819D02*
X97028095Y-111631961D01*
X97028095Y-111631961D02*
X97075714Y-111727200D01*
X97075714Y-111727200D02*
X97170952Y-111774819D01*
X97170952Y-111774819D02*
X97266190Y-111774819D01*
X97456667Y-111108152D02*
X97837619Y-111108152D01*
X97599524Y-110774819D02*
X97599524Y-111631961D01*
X97599524Y-111631961D02*
X97647143Y-111727200D01*
X97647143Y-111727200D02*
X97742381Y-111774819D01*
X97742381Y-111774819D02*
X97837619Y-111774819D01*
X98313810Y-111774819D02*
X98218572Y-111727200D01*
X98218572Y-111727200D02*
X98170953Y-111679580D01*
X98170953Y-111679580D02*
X98123334Y-111584342D01*
X98123334Y-111584342D02*
X98123334Y-111298628D01*
X98123334Y-111298628D02*
X98170953Y-111203390D01*
X98170953Y-111203390D02*
X98218572Y-111155771D01*
X98218572Y-111155771D02*
X98313810Y-111108152D01*
X98313810Y-111108152D02*
X98456667Y-111108152D01*
X98456667Y-111108152D02*
X98551905Y-111155771D01*
X98551905Y-111155771D02*
X98599524Y-111203390D01*
X98599524Y-111203390D02*
X98647143Y-111298628D01*
X98647143Y-111298628D02*
X98647143Y-111584342D01*
X98647143Y-111584342D02*
X98599524Y-111679580D01*
X98599524Y-111679580D02*
X98551905Y-111727200D01*
X98551905Y-111727200D02*
X98456667Y-111774819D01*
X98456667Y-111774819D02*
X98313810Y-111774819D01*
X99075715Y-111108152D02*
X99075715Y-111774819D01*
X99075715Y-111203390D02*
X99123334Y-111155771D01*
X99123334Y-111155771D02*
X99218572Y-111108152D01*
X99218572Y-111108152D02*
X99361429Y-111108152D01*
X99361429Y-111108152D02*
X99456667Y-111155771D01*
X99456667Y-111155771D02*
X99504286Y-111251009D01*
X99504286Y-111251009D02*
X99504286Y-111774819D01*
X99932858Y-110870057D02*
X99980477Y-110822438D01*
X99980477Y-110822438D02*
X100075715Y-110774819D01*
X100075715Y-110774819D02*
X100313810Y-110774819D01*
X100313810Y-110774819D02*
X100409048Y-110822438D01*
X100409048Y-110822438D02*
X100456667Y-110870057D01*
X100456667Y-110870057D02*
X100504286Y-110965295D01*
X100504286Y-110965295D02*
X100504286Y-111060533D01*
X100504286Y-111060533D02*
X100456667Y-111203390D01*
X100456667Y-111203390D02*
X99885239Y-111774819D01*
X99885239Y-111774819D02*
X100504286Y-111774819D01*
X95456666Y-101091009D02*
X95599523Y-101138628D01*
X95599523Y-101138628D02*
X95647142Y-101186247D01*
X95647142Y-101186247D02*
X95694761Y-101281485D01*
X95694761Y-101281485D02*
X95694761Y-101424342D01*
X95694761Y-101424342D02*
X95647142Y-101519580D01*
X95647142Y-101519580D02*
X95599523Y-101567200D01*
X95599523Y-101567200D02*
X95504285Y-101614819D01*
X95504285Y-101614819D02*
X95123333Y-101614819D01*
X95123333Y-101614819D02*
X95123333Y-100614819D01*
X95123333Y-100614819D02*
X95456666Y-100614819D01*
X95456666Y-100614819D02*
X95551904Y-100662438D01*
X95551904Y-100662438D02*
X95599523Y-100710057D01*
X95599523Y-100710057D02*
X95647142Y-100805295D01*
X95647142Y-100805295D02*
X95647142Y-100900533D01*
X95647142Y-100900533D02*
X95599523Y-100995771D01*
X95599523Y-100995771D02*
X95551904Y-101043390D01*
X95551904Y-101043390D02*
X95456666Y-101091009D01*
X95456666Y-101091009D02*
X95123333Y-101091009D01*
X96551904Y-100948152D02*
X96551904Y-101614819D01*
X96123333Y-100948152D02*
X96123333Y-101471961D01*
X96123333Y-101471961D02*
X96170952Y-101567200D01*
X96170952Y-101567200D02*
X96266190Y-101614819D01*
X96266190Y-101614819D02*
X96409047Y-101614819D01*
X96409047Y-101614819D02*
X96504285Y-101567200D01*
X96504285Y-101567200D02*
X96551904Y-101519580D01*
X96885238Y-100948152D02*
X97266190Y-100948152D01*
X97028095Y-100614819D02*
X97028095Y-101471961D01*
X97028095Y-101471961D02*
X97075714Y-101567200D01*
X97075714Y-101567200D02*
X97170952Y-101614819D01*
X97170952Y-101614819D02*
X97266190Y-101614819D01*
X97456667Y-100948152D02*
X97837619Y-100948152D01*
X97599524Y-100614819D02*
X97599524Y-101471961D01*
X97599524Y-101471961D02*
X97647143Y-101567200D01*
X97647143Y-101567200D02*
X97742381Y-101614819D01*
X97742381Y-101614819D02*
X97837619Y-101614819D01*
X98313810Y-101614819D02*
X98218572Y-101567200D01*
X98218572Y-101567200D02*
X98170953Y-101519580D01*
X98170953Y-101519580D02*
X98123334Y-101424342D01*
X98123334Y-101424342D02*
X98123334Y-101138628D01*
X98123334Y-101138628D02*
X98170953Y-101043390D01*
X98170953Y-101043390D02*
X98218572Y-100995771D01*
X98218572Y-100995771D02*
X98313810Y-100948152D01*
X98313810Y-100948152D02*
X98456667Y-100948152D01*
X98456667Y-100948152D02*
X98551905Y-100995771D01*
X98551905Y-100995771D02*
X98599524Y-101043390D01*
X98599524Y-101043390D02*
X98647143Y-101138628D01*
X98647143Y-101138628D02*
X98647143Y-101424342D01*
X98647143Y-101424342D02*
X98599524Y-101519580D01*
X98599524Y-101519580D02*
X98551905Y-101567200D01*
X98551905Y-101567200D02*
X98456667Y-101614819D01*
X98456667Y-101614819D02*
X98313810Y-101614819D01*
X99075715Y-100948152D02*
X99075715Y-101614819D01*
X99075715Y-101043390D02*
X99123334Y-100995771D01*
X99123334Y-100995771D02*
X99218572Y-100948152D01*
X99218572Y-100948152D02*
X99361429Y-100948152D01*
X99361429Y-100948152D02*
X99456667Y-100995771D01*
X99456667Y-100995771D02*
X99504286Y-101091009D01*
X99504286Y-101091009D02*
X99504286Y-101614819D01*
X100504286Y-101614819D02*
X99932858Y-101614819D01*
X100218572Y-101614819D02*
X100218572Y-100614819D01*
X100218572Y-100614819D02*
X100123334Y-100757676D01*
X100123334Y-100757676D02*
X100028096Y-100852914D01*
X100028096Y-100852914D02*
X99932858Y-100900533D01*
D12*
X86693714Y-63433609D02*
X86836571Y-63481228D01*
X86836571Y-63481228D02*
X86884190Y-63528847D01*
X86884190Y-63528847D02*
X86931809Y-63624085D01*
X86931809Y-63624085D02*
X86931809Y-63766942D01*
X86931809Y-63766942D02*
X86884190Y-63862180D01*
X86884190Y-63862180D02*
X86836571Y-63909800D01*
X86836571Y-63909800D02*
X86741333Y-63957419D01*
X86741333Y-63957419D02*
X86360381Y-63957419D01*
X86360381Y-63957419D02*
X86360381Y-62957419D01*
X86360381Y-62957419D02*
X86693714Y-62957419D01*
X86693714Y-62957419D02*
X86788952Y-63005038D01*
X86788952Y-63005038D02*
X86836571Y-63052657D01*
X86836571Y-63052657D02*
X86884190Y-63147895D01*
X86884190Y-63147895D02*
X86884190Y-63243133D01*
X86884190Y-63243133D02*
X86836571Y-63338371D01*
X86836571Y-63338371D02*
X86788952Y-63385990D01*
X86788952Y-63385990D02*
X86693714Y-63433609D01*
X86693714Y-63433609D02*
X86360381Y-63433609D01*
X87788952Y-63290752D02*
X87788952Y-63957419D01*
X87360381Y-63290752D02*
X87360381Y-63814561D01*
X87360381Y-63814561D02*
X87408000Y-63909800D01*
X87408000Y-63909800D02*
X87503238Y-63957419D01*
X87503238Y-63957419D02*
X87646095Y-63957419D01*
X87646095Y-63957419D02*
X87741333Y-63909800D01*
X87741333Y-63909800D02*
X87788952Y-63862180D01*
X88265143Y-63957419D02*
X88265143Y-63290752D01*
X88265143Y-63385990D02*
X88312762Y-63338371D01*
X88312762Y-63338371D02*
X88408000Y-63290752D01*
X88408000Y-63290752D02*
X88550857Y-63290752D01*
X88550857Y-63290752D02*
X88646095Y-63338371D01*
X88646095Y-63338371D02*
X88693714Y-63433609D01*
X88693714Y-63433609D02*
X88693714Y-63957419D01*
X88693714Y-63433609D02*
X88741333Y-63338371D01*
X88741333Y-63338371D02*
X88836571Y-63290752D01*
X88836571Y-63290752D02*
X88979428Y-63290752D01*
X88979428Y-63290752D02*
X89074667Y-63338371D01*
X89074667Y-63338371D02*
X89122286Y-63433609D01*
X89122286Y-63433609D02*
X89122286Y-63957419D01*
X89598476Y-63290752D02*
X89598476Y-64290752D01*
X89598476Y-63338371D02*
X89693714Y-63290752D01*
X89693714Y-63290752D02*
X89884190Y-63290752D01*
X89884190Y-63290752D02*
X89979428Y-63338371D01*
X89979428Y-63338371D02*
X90027047Y-63385990D01*
X90027047Y-63385990D02*
X90074666Y-63481228D01*
X90074666Y-63481228D02*
X90074666Y-63766942D01*
X90074666Y-63766942D02*
X90027047Y-63862180D01*
X90027047Y-63862180D02*
X89979428Y-63909800D01*
X89979428Y-63909800D02*
X89884190Y-63957419D01*
X89884190Y-63957419D02*
X89693714Y-63957419D01*
X89693714Y-63957419D02*
X89598476Y-63909800D01*
X90884190Y-63909800D02*
X90788952Y-63957419D01*
X90788952Y-63957419D02*
X90598476Y-63957419D01*
X90598476Y-63957419D02*
X90503238Y-63909800D01*
X90503238Y-63909800D02*
X90455619Y-63814561D01*
X90455619Y-63814561D02*
X90455619Y-63433609D01*
X90455619Y-63433609D02*
X90503238Y-63338371D01*
X90503238Y-63338371D02*
X90598476Y-63290752D01*
X90598476Y-63290752D02*
X90788952Y-63290752D01*
X90788952Y-63290752D02*
X90884190Y-63338371D01*
X90884190Y-63338371D02*
X90931809Y-63433609D01*
X90931809Y-63433609D02*
X90931809Y-63528847D01*
X90931809Y-63528847D02*
X90455619Y-63624085D01*
X91360381Y-63957419D02*
X91360381Y-63290752D01*
X91360381Y-63481228D02*
X91408000Y-63385990D01*
X91408000Y-63385990D02*
X91455619Y-63338371D01*
X91455619Y-63338371D02*
X91550857Y-63290752D01*
X91550857Y-63290752D02*
X91646095Y-63290752D01*
X92503238Y-63957419D02*
X91931810Y-63957419D01*
X92217524Y-63957419D02*
X92217524Y-62957419D01*
X92217524Y-62957419D02*
X92122286Y-63100276D01*
X92122286Y-63100276D02*
X92027048Y-63195514D01*
X92027048Y-63195514D02*
X91931810Y-63243133D01*
D10*
X136188197Y-72289181D02*
X136188197Y-71289181D01*
X136188197Y-71289181D02*
X136569149Y-71289181D01*
X136569149Y-71289181D02*
X136664387Y-71336800D01*
X136664387Y-71336800D02*
X136712006Y-71384419D01*
X136712006Y-71384419D02*
X136759625Y-71479657D01*
X136759625Y-71479657D02*
X136759625Y-71622514D01*
X136759625Y-71622514D02*
X136712006Y-71717752D01*
X136712006Y-71717752D02*
X136664387Y-71765371D01*
X136664387Y-71765371D02*
X136569149Y-71812990D01*
X136569149Y-71812990D02*
X136188197Y-71812990D01*
X137331054Y-72289181D02*
X137235816Y-72241562D01*
X137235816Y-72241562D02*
X137188197Y-72193942D01*
X137188197Y-72193942D02*
X137140578Y-72098704D01*
X137140578Y-72098704D02*
X137140578Y-71812990D01*
X137140578Y-71812990D02*
X137188197Y-71717752D01*
X137188197Y-71717752D02*
X137235816Y-71670133D01*
X137235816Y-71670133D02*
X137331054Y-71622514D01*
X137331054Y-71622514D02*
X137473911Y-71622514D01*
X137473911Y-71622514D02*
X137569149Y-71670133D01*
X137569149Y-71670133D02*
X137616768Y-71717752D01*
X137616768Y-71717752D02*
X137664387Y-71812990D01*
X137664387Y-71812990D02*
X137664387Y-72098704D01*
X137664387Y-72098704D02*
X137616768Y-72193942D01*
X137616768Y-72193942D02*
X137569149Y-72241562D01*
X137569149Y-72241562D02*
X137473911Y-72289181D01*
X137473911Y-72289181D02*
X137331054Y-72289181D01*
X137997721Y-71622514D02*
X138188197Y-72289181D01*
X138188197Y-72289181D02*
X138378673Y-71812990D01*
X138378673Y-71812990D02*
X138569149Y-72289181D01*
X138569149Y-72289181D02*
X138759625Y-71622514D01*
X139521530Y-72241562D02*
X139426292Y-72289181D01*
X139426292Y-72289181D02*
X139235816Y-72289181D01*
X139235816Y-72289181D02*
X139140578Y-72241562D01*
X139140578Y-72241562D02*
X139092959Y-72146323D01*
X139092959Y-72146323D02*
X139092959Y-71765371D01*
X139092959Y-71765371D02*
X139140578Y-71670133D01*
X139140578Y-71670133D02*
X139235816Y-71622514D01*
X139235816Y-71622514D02*
X139426292Y-71622514D01*
X139426292Y-71622514D02*
X139521530Y-71670133D01*
X139521530Y-71670133D02*
X139569149Y-71765371D01*
X139569149Y-71765371D02*
X139569149Y-71860609D01*
X139569149Y-71860609D02*
X139092959Y-71955847D01*
X139997721Y-72289181D02*
X139997721Y-71622514D01*
X139997721Y-71812990D02*
X140045340Y-71717752D01*
X140045340Y-71717752D02*
X140092959Y-71670133D01*
X140092959Y-71670133D02*
X140188197Y-71622514D01*
X140188197Y-71622514D02*
X140283435Y-71622514D01*
X140569150Y-72241562D02*
X140712007Y-72289181D01*
X140712007Y-72289181D02*
X140950102Y-72289181D01*
X140950102Y-72289181D02*
X141045340Y-72241562D01*
X141045340Y-72241562D02*
X141092959Y-72193942D01*
X141092959Y-72193942D02*
X141140578Y-72098704D01*
X141140578Y-72098704D02*
X141140578Y-72003466D01*
X141140578Y-72003466D02*
X141092959Y-71908228D01*
X141092959Y-71908228D02*
X141045340Y-71860609D01*
X141045340Y-71860609D02*
X140950102Y-71812990D01*
X140950102Y-71812990D02*
X140759626Y-71765371D01*
X140759626Y-71765371D02*
X140664388Y-71717752D01*
X140664388Y-71717752D02*
X140616769Y-71670133D01*
X140616769Y-71670133D02*
X140569150Y-71574895D01*
X140569150Y-71574895D02*
X140569150Y-71479657D01*
X140569150Y-71479657D02*
X140616769Y-71384419D01*
X140616769Y-71384419D02*
X140664388Y-71336800D01*
X140664388Y-71336800D02*
X140759626Y-71289181D01*
X140759626Y-71289181D02*
X140997721Y-71289181D01*
X140997721Y-71289181D02*
X141140578Y-71336800D01*
X141473912Y-71622514D02*
X141664388Y-72289181D01*
X141664388Y-72289181D02*
X141854864Y-71812990D01*
X141854864Y-71812990D02*
X142045340Y-72289181D01*
X142045340Y-72289181D02*
X142235816Y-71622514D01*
X142616769Y-72289181D02*
X142616769Y-71622514D01*
X142616769Y-71289181D02*
X142569150Y-71336800D01*
X142569150Y-71336800D02*
X142616769Y-71384419D01*
X142616769Y-71384419D02*
X142664388Y-71336800D01*
X142664388Y-71336800D02*
X142616769Y-71289181D01*
X142616769Y-71289181D02*
X142616769Y-71384419D01*
X142950102Y-71622514D02*
X143331054Y-71622514D01*
X143092959Y-71289181D02*
X143092959Y-72146323D01*
X143092959Y-72146323D02*
X143140578Y-72241562D01*
X143140578Y-72241562D02*
X143235816Y-72289181D01*
X143235816Y-72289181D02*
X143331054Y-72289181D01*
X144092959Y-72241562D02*
X143997721Y-72289181D01*
X143997721Y-72289181D02*
X143807245Y-72289181D01*
X143807245Y-72289181D02*
X143712007Y-72241562D01*
X143712007Y-72241562D02*
X143664388Y-72193942D01*
X143664388Y-72193942D02*
X143616769Y-72098704D01*
X143616769Y-72098704D02*
X143616769Y-71812990D01*
X143616769Y-71812990D02*
X143664388Y-71717752D01*
X143664388Y-71717752D02*
X143712007Y-71670133D01*
X143712007Y-71670133D02*
X143807245Y-71622514D01*
X143807245Y-71622514D02*
X143997721Y-71622514D01*
X143997721Y-71622514D02*
X144092959Y-71670133D01*
X144521531Y-72289181D02*
X144521531Y-71289181D01*
X144950102Y-72289181D02*
X144950102Y-71765371D01*
X144950102Y-71765371D02*
X144902483Y-71670133D01*
X144902483Y-71670133D02*
X144807245Y-71622514D01*
X144807245Y-71622514D02*
X144664388Y-71622514D01*
X144664388Y-71622514D02*
X144569150Y-71670133D01*
X144569150Y-71670133D02*
X144521531Y-71717752D01*
X145950102Y-72289181D02*
X145378674Y-72289181D01*
X145664388Y-72289181D02*
X145664388Y-71289181D01*
X145664388Y-71289181D02*
X145569150Y-71432038D01*
X145569150Y-71432038D02*
X145473912Y-71527276D01*
X145473912Y-71527276D02*
X145378674Y-71574895D01*
X173863095Y-103578819D02*
X173863095Y-102578819D01*
X173863095Y-103055009D02*
X174434523Y-103055009D01*
X174434523Y-103578819D02*
X174434523Y-102578819D01*
X175339285Y-102578819D02*
X175148809Y-102578819D01*
X175148809Y-102578819D02*
X175053571Y-102626438D01*
X175053571Y-102626438D02*
X175005952Y-102674057D01*
X175005952Y-102674057D02*
X174910714Y-102816914D01*
X174910714Y-102816914D02*
X174863095Y-103007390D01*
X174863095Y-103007390D02*
X174863095Y-103388342D01*
X174863095Y-103388342D02*
X174910714Y-103483580D01*
X174910714Y-103483580D02*
X174958333Y-103531200D01*
X174958333Y-103531200D02*
X175053571Y-103578819D01*
X175053571Y-103578819D02*
X175244047Y-103578819D01*
X175244047Y-103578819D02*
X175339285Y-103531200D01*
X175339285Y-103531200D02*
X175386904Y-103483580D01*
X175386904Y-103483580D02*
X175434523Y-103388342D01*
X175434523Y-103388342D02*
X175434523Y-103150247D01*
X175434523Y-103150247D02*
X175386904Y-103055009D01*
X175386904Y-103055009D02*
X175339285Y-103007390D01*
X175339285Y-103007390D02*
X175244047Y-102959771D01*
X175244047Y-102959771D02*
X175053571Y-102959771D01*
X175053571Y-102959771D02*
X174958333Y-103007390D01*
X174958333Y-103007390D02*
X174910714Y-103055009D01*
X174910714Y-103055009D02*
X174863095Y-103150247D01*
X161925573Y-68549439D02*
X162497001Y-68549439D01*
X162211287Y-69549439D02*
X162211287Y-68549439D01*
X162973192Y-69549439D02*
X162877954Y-69501820D01*
X162877954Y-69501820D02*
X162830335Y-69454200D01*
X162830335Y-69454200D02*
X162782716Y-69358962D01*
X162782716Y-69358962D02*
X162782716Y-69073248D01*
X162782716Y-69073248D02*
X162830335Y-68978010D01*
X162830335Y-68978010D02*
X162877954Y-68930391D01*
X162877954Y-68930391D02*
X162973192Y-68882772D01*
X162973192Y-68882772D02*
X163116049Y-68882772D01*
X163116049Y-68882772D02*
X163211287Y-68930391D01*
X163211287Y-68930391D02*
X163258906Y-68978010D01*
X163258906Y-68978010D02*
X163306525Y-69073248D01*
X163306525Y-69073248D02*
X163306525Y-69358962D01*
X163306525Y-69358962D02*
X163258906Y-69454200D01*
X163258906Y-69454200D02*
X163211287Y-69501820D01*
X163211287Y-69501820D02*
X163116049Y-69549439D01*
X163116049Y-69549439D02*
X162973192Y-69549439D01*
X164163668Y-68882772D02*
X164163668Y-69692296D01*
X164163668Y-69692296D02*
X164116049Y-69787534D01*
X164116049Y-69787534D02*
X164068430Y-69835153D01*
X164068430Y-69835153D02*
X163973192Y-69882772D01*
X163973192Y-69882772D02*
X163830335Y-69882772D01*
X163830335Y-69882772D02*
X163735097Y-69835153D01*
X164163668Y-69501820D02*
X164068430Y-69549439D01*
X164068430Y-69549439D02*
X163877954Y-69549439D01*
X163877954Y-69549439D02*
X163782716Y-69501820D01*
X163782716Y-69501820D02*
X163735097Y-69454200D01*
X163735097Y-69454200D02*
X163687478Y-69358962D01*
X163687478Y-69358962D02*
X163687478Y-69073248D01*
X163687478Y-69073248D02*
X163735097Y-68978010D01*
X163735097Y-68978010D02*
X163782716Y-68930391D01*
X163782716Y-68930391D02*
X163877954Y-68882772D01*
X163877954Y-68882772D02*
X164068430Y-68882772D01*
X164068430Y-68882772D02*
X164163668Y-68930391D01*
X165068430Y-68882772D02*
X165068430Y-69692296D01*
X165068430Y-69692296D02*
X165020811Y-69787534D01*
X165020811Y-69787534D02*
X164973192Y-69835153D01*
X164973192Y-69835153D02*
X164877954Y-69882772D01*
X164877954Y-69882772D02*
X164735097Y-69882772D01*
X164735097Y-69882772D02*
X164639859Y-69835153D01*
X165068430Y-69501820D02*
X164973192Y-69549439D01*
X164973192Y-69549439D02*
X164782716Y-69549439D01*
X164782716Y-69549439D02*
X164687478Y-69501820D01*
X164687478Y-69501820D02*
X164639859Y-69454200D01*
X164639859Y-69454200D02*
X164592240Y-69358962D01*
X164592240Y-69358962D02*
X164592240Y-69073248D01*
X164592240Y-69073248D02*
X164639859Y-68978010D01*
X164639859Y-68978010D02*
X164687478Y-68930391D01*
X164687478Y-68930391D02*
X164782716Y-68882772D01*
X164782716Y-68882772D02*
X164973192Y-68882772D01*
X164973192Y-68882772D02*
X165068430Y-68930391D01*
X165687478Y-69549439D02*
X165592240Y-69501820D01*
X165592240Y-69501820D02*
X165544621Y-69406581D01*
X165544621Y-69406581D02*
X165544621Y-68549439D01*
X166449383Y-69501820D02*
X166354145Y-69549439D01*
X166354145Y-69549439D02*
X166163669Y-69549439D01*
X166163669Y-69549439D02*
X166068431Y-69501820D01*
X166068431Y-69501820D02*
X166020812Y-69406581D01*
X166020812Y-69406581D02*
X166020812Y-69025629D01*
X166020812Y-69025629D02*
X166068431Y-68930391D01*
X166068431Y-68930391D02*
X166163669Y-68882772D01*
X166163669Y-68882772D02*
X166354145Y-68882772D01*
X166354145Y-68882772D02*
X166449383Y-68930391D01*
X166449383Y-68930391D02*
X166497002Y-69025629D01*
X166497002Y-69025629D02*
X166497002Y-69120867D01*
X166497002Y-69120867D02*
X166020812Y-69216105D01*
X167354145Y-68882772D02*
X167354145Y-69549439D01*
X167116050Y-68501820D02*
X166877955Y-69216105D01*
X166877955Y-69216105D02*
X167497002Y-69216105D01*
X125571809Y-81734819D02*
X125571809Y-80734819D01*
X125571809Y-80734819D02*
X125952761Y-80734819D01*
X125952761Y-80734819D02*
X126047999Y-80782438D01*
X126047999Y-80782438D02*
X126095618Y-80830057D01*
X126095618Y-80830057D02*
X126143237Y-80925295D01*
X126143237Y-80925295D02*
X126143237Y-81068152D01*
X126143237Y-81068152D02*
X126095618Y-81163390D01*
X126095618Y-81163390D02*
X126047999Y-81211009D01*
X126047999Y-81211009D02*
X125952761Y-81258628D01*
X125952761Y-81258628D02*
X125571809Y-81258628D01*
X126714666Y-81734819D02*
X126619428Y-81687200D01*
X126619428Y-81687200D02*
X126571809Y-81639580D01*
X126571809Y-81639580D02*
X126524190Y-81544342D01*
X126524190Y-81544342D02*
X126524190Y-81258628D01*
X126524190Y-81258628D02*
X126571809Y-81163390D01*
X126571809Y-81163390D02*
X126619428Y-81115771D01*
X126619428Y-81115771D02*
X126714666Y-81068152D01*
X126714666Y-81068152D02*
X126857523Y-81068152D01*
X126857523Y-81068152D02*
X126952761Y-81115771D01*
X126952761Y-81115771D02*
X127000380Y-81163390D01*
X127000380Y-81163390D02*
X127047999Y-81258628D01*
X127047999Y-81258628D02*
X127047999Y-81544342D01*
X127047999Y-81544342D02*
X127000380Y-81639580D01*
X127000380Y-81639580D02*
X126952761Y-81687200D01*
X126952761Y-81687200D02*
X126857523Y-81734819D01*
X126857523Y-81734819D02*
X126714666Y-81734819D01*
X127333714Y-81068152D02*
X127714666Y-81068152D01*
X127476571Y-80734819D02*
X127476571Y-81591961D01*
X127476571Y-81591961D02*
X127524190Y-81687200D01*
X127524190Y-81687200D02*
X127619428Y-81734819D01*
X127619428Y-81734819D02*
X127714666Y-81734819D01*
X128571809Y-81734819D02*
X128000381Y-81734819D01*
X128286095Y-81734819D02*
X128286095Y-80734819D01*
X128286095Y-80734819D02*
X128190857Y-80877676D01*
X128190857Y-80877676D02*
X128095619Y-80972914D01*
X128095619Y-80972914D02*
X128000381Y-81020533D01*
D12*
X183721714Y-63433609D02*
X183864571Y-63481228D01*
X183864571Y-63481228D02*
X183912190Y-63528847D01*
X183912190Y-63528847D02*
X183959809Y-63624085D01*
X183959809Y-63624085D02*
X183959809Y-63766942D01*
X183959809Y-63766942D02*
X183912190Y-63862180D01*
X183912190Y-63862180D02*
X183864571Y-63909800D01*
X183864571Y-63909800D02*
X183769333Y-63957419D01*
X183769333Y-63957419D02*
X183388381Y-63957419D01*
X183388381Y-63957419D02*
X183388381Y-62957419D01*
X183388381Y-62957419D02*
X183721714Y-62957419D01*
X183721714Y-62957419D02*
X183816952Y-63005038D01*
X183816952Y-63005038D02*
X183864571Y-63052657D01*
X183864571Y-63052657D02*
X183912190Y-63147895D01*
X183912190Y-63147895D02*
X183912190Y-63243133D01*
X183912190Y-63243133D02*
X183864571Y-63338371D01*
X183864571Y-63338371D02*
X183816952Y-63385990D01*
X183816952Y-63385990D02*
X183721714Y-63433609D01*
X183721714Y-63433609D02*
X183388381Y-63433609D01*
X184816952Y-63290752D02*
X184816952Y-63957419D01*
X184388381Y-63290752D02*
X184388381Y-63814561D01*
X184388381Y-63814561D02*
X184436000Y-63909800D01*
X184436000Y-63909800D02*
X184531238Y-63957419D01*
X184531238Y-63957419D02*
X184674095Y-63957419D01*
X184674095Y-63957419D02*
X184769333Y-63909800D01*
X184769333Y-63909800D02*
X184816952Y-63862180D01*
X185293143Y-63957419D02*
X185293143Y-63290752D01*
X185293143Y-63385990D02*
X185340762Y-63338371D01*
X185340762Y-63338371D02*
X185436000Y-63290752D01*
X185436000Y-63290752D02*
X185578857Y-63290752D01*
X185578857Y-63290752D02*
X185674095Y-63338371D01*
X185674095Y-63338371D02*
X185721714Y-63433609D01*
X185721714Y-63433609D02*
X185721714Y-63957419D01*
X185721714Y-63433609D02*
X185769333Y-63338371D01*
X185769333Y-63338371D02*
X185864571Y-63290752D01*
X185864571Y-63290752D02*
X186007428Y-63290752D01*
X186007428Y-63290752D02*
X186102667Y-63338371D01*
X186102667Y-63338371D02*
X186150286Y-63433609D01*
X186150286Y-63433609D02*
X186150286Y-63957419D01*
X186626476Y-63290752D02*
X186626476Y-64290752D01*
X186626476Y-63338371D02*
X186721714Y-63290752D01*
X186721714Y-63290752D02*
X186912190Y-63290752D01*
X186912190Y-63290752D02*
X187007428Y-63338371D01*
X187007428Y-63338371D02*
X187055047Y-63385990D01*
X187055047Y-63385990D02*
X187102666Y-63481228D01*
X187102666Y-63481228D02*
X187102666Y-63766942D01*
X187102666Y-63766942D02*
X187055047Y-63862180D01*
X187055047Y-63862180D02*
X187007428Y-63909800D01*
X187007428Y-63909800D02*
X186912190Y-63957419D01*
X186912190Y-63957419D02*
X186721714Y-63957419D01*
X186721714Y-63957419D02*
X186626476Y-63909800D01*
X187912190Y-63909800D02*
X187816952Y-63957419D01*
X187816952Y-63957419D02*
X187626476Y-63957419D01*
X187626476Y-63957419D02*
X187531238Y-63909800D01*
X187531238Y-63909800D02*
X187483619Y-63814561D01*
X187483619Y-63814561D02*
X187483619Y-63433609D01*
X187483619Y-63433609D02*
X187531238Y-63338371D01*
X187531238Y-63338371D02*
X187626476Y-63290752D01*
X187626476Y-63290752D02*
X187816952Y-63290752D01*
X187816952Y-63290752D02*
X187912190Y-63338371D01*
X187912190Y-63338371D02*
X187959809Y-63433609D01*
X187959809Y-63433609D02*
X187959809Y-63528847D01*
X187959809Y-63528847D02*
X187483619Y-63624085D01*
X188388381Y-63957419D02*
X188388381Y-63290752D01*
X188388381Y-63481228D02*
X188436000Y-63385990D01*
X188436000Y-63385990D02*
X188483619Y-63338371D01*
X188483619Y-63338371D02*
X188578857Y-63290752D01*
X188578857Y-63290752D02*
X188674095Y-63290752D01*
X188912191Y-62957419D02*
X189531238Y-62957419D01*
X189531238Y-62957419D02*
X189197905Y-63338371D01*
X189197905Y-63338371D02*
X189340762Y-63338371D01*
X189340762Y-63338371D02*
X189436000Y-63385990D01*
X189436000Y-63385990D02*
X189483619Y-63433609D01*
X189483619Y-63433609D02*
X189531238Y-63528847D01*
X189531238Y-63528847D02*
X189531238Y-63766942D01*
X189531238Y-63766942D02*
X189483619Y-63862180D01*
X189483619Y-63862180D02*
X189436000Y-63909800D01*
X189436000Y-63909800D02*
X189340762Y-63957419D01*
X189340762Y-63957419D02*
X189055048Y-63957419D01*
X189055048Y-63957419D02*
X188959810Y-63909800D01*
X188959810Y-63909800D02*
X188912191Y-63862180D01*
D10*
X129810940Y-68511579D02*
X130382368Y-68511579D01*
X130096654Y-69511579D02*
X130096654Y-68511579D01*
X130858559Y-69511579D02*
X130763321Y-69463960D01*
X130763321Y-69463960D02*
X130715702Y-69416340D01*
X130715702Y-69416340D02*
X130668083Y-69321102D01*
X130668083Y-69321102D02*
X130668083Y-69035388D01*
X130668083Y-69035388D02*
X130715702Y-68940150D01*
X130715702Y-68940150D02*
X130763321Y-68892531D01*
X130763321Y-68892531D02*
X130858559Y-68844912D01*
X130858559Y-68844912D02*
X131001416Y-68844912D01*
X131001416Y-68844912D02*
X131096654Y-68892531D01*
X131096654Y-68892531D02*
X131144273Y-68940150D01*
X131144273Y-68940150D02*
X131191892Y-69035388D01*
X131191892Y-69035388D02*
X131191892Y-69321102D01*
X131191892Y-69321102D02*
X131144273Y-69416340D01*
X131144273Y-69416340D02*
X131096654Y-69463960D01*
X131096654Y-69463960D02*
X131001416Y-69511579D01*
X131001416Y-69511579D02*
X130858559Y-69511579D01*
X132049035Y-68844912D02*
X132049035Y-69654436D01*
X132049035Y-69654436D02*
X132001416Y-69749674D01*
X132001416Y-69749674D02*
X131953797Y-69797293D01*
X131953797Y-69797293D02*
X131858559Y-69844912D01*
X131858559Y-69844912D02*
X131715702Y-69844912D01*
X131715702Y-69844912D02*
X131620464Y-69797293D01*
X132049035Y-69463960D02*
X131953797Y-69511579D01*
X131953797Y-69511579D02*
X131763321Y-69511579D01*
X131763321Y-69511579D02*
X131668083Y-69463960D01*
X131668083Y-69463960D02*
X131620464Y-69416340D01*
X131620464Y-69416340D02*
X131572845Y-69321102D01*
X131572845Y-69321102D02*
X131572845Y-69035388D01*
X131572845Y-69035388D02*
X131620464Y-68940150D01*
X131620464Y-68940150D02*
X131668083Y-68892531D01*
X131668083Y-68892531D02*
X131763321Y-68844912D01*
X131763321Y-68844912D02*
X131953797Y-68844912D01*
X131953797Y-68844912D02*
X132049035Y-68892531D01*
X132953797Y-68844912D02*
X132953797Y-69654436D01*
X132953797Y-69654436D02*
X132906178Y-69749674D01*
X132906178Y-69749674D02*
X132858559Y-69797293D01*
X132858559Y-69797293D02*
X132763321Y-69844912D01*
X132763321Y-69844912D02*
X132620464Y-69844912D01*
X132620464Y-69844912D02*
X132525226Y-69797293D01*
X132953797Y-69463960D02*
X132858559Y-69511579D01*
X132858559Y-69511579D02*
X132668083Y-69511579D01*
X132668083Y-69511579D02*
X132572845Y-69463960D01*
X132572845Y-69463960D02*
X132525226Y-69416340D01*
X132525226Y-69416340D02*
X132477607Y-69321102D01*
X132477607Y-69321102D02*
X132477607Y-69035388D01*
X132477607Y-69035388D02*
X132525226Y-68940150D01*
X132525226Y-68940150D02*
X132572845Y-68892531D01*
X132572845Y-68892531D02*
X132668083Y-68844912D01*
X132668083Y-68844912D02*
X132858559Y-68844912D01*
X132858559Y-68844912D02*
X132953797Y-68892531D01*
X133572845Y-69511579D02*
X133477607Y-69463960D01*
X133477607Y-69463960D02*
X133429988Y-69368721D01*
X133429988Y-69368721D02*
X133429988Y-68511579D01*
X134334750Y-69463960D02*
X134239512Y-69511579D01*
X134239512Y-69511579D02*
X134049036Y-69511579D01*
X134049036Y-69511579D02*
X133953798Y-69463960D01*
X133953798Y-69463960D02*
X133906179Y-69368721D01*
X133906179Y-69368721D02*
X133906179Y-68987769D01*
X133906179Y-68987769D02*
X133953798Y-68892531D01*
X133953798Y-68892531D02*
X134049036Y-68844912D01*
X134049036Y-68844912D02*
X134239512Y-68844912D01*
X134239512Y-68844912D02*
X134334750Y-68892531D01*
X134334750Y-68892531D02*
X134382369Y-68987769D01*
X134382369Y-68987769D02*
X134382369Y-69083007D01*
X134382369Y-69083007D02*
X133906179Y-69178245D01*
X134763322Y-68606817D02*
X134810941Y-68559198D01*
X134810941Y-68559198D02*
X134906179Y-68511579D01*
X134906179Y-68511579D02*
X135144274Y-68511579D01*
X135144274Y-68511579D02*
X135239512Y-68559198D01*
X135239512Y-68559198D02*
X135287131Y-68606817D01*
X135287131Y-68606817D02*
X135334750Y-68702055D01*
X135334750Y-68702055D02*
X135334750Y-68797293D01*
X135334750Y-68797293D02*
X135287131Y-68940150D01*
X135287131Y-68940150D02*
X134715703Y-69511579D01*
X134715703Y-69511579D02*
X135334750Y-69511579D01*
X153415809Y-81734819D02*
X153415809Y-80734819D01*
X153415809Y-80734819D02*
X153796761Y-80734819D01*
X153796761Y-80734819D02*
X153891999Y-80782438D01*
X153891999Y-80782438D02*
X153939618Y-80830057D01*
X153939618Y-80830057D02*
X153987237Y-80925295D01*
X153987237Y-80925295D02*
X153987237Y-81068152D01*
X153987237Y-81068152D02*
X153939618Y-81163390D01*
X153939618Y-81163390D02*
X153891999Y-81211009D01*
X153891999Y-81211009D02*
X153796761Y-81258628D01*
X153796761Y-81258628D02*
X153415809Y-81258628D01*
X154558666Y-81734819D02*
X154463428Y-81687200D01*
X154463428Y-81687200D02*
X154415809Y-81639580D01*
X154415809Y-81639580D02*
X154368190Y-81544342D01*
X154368190Y-81544342D02*
X154368190Y-81258628D01*
X154368190Y-81258628D02*
X154415809Y-81163390D01*
X154415809Y-81163390D02*
X154463428Y-81115771D01*
X154463428Y-81115771D02*
X154558666Y-81068152D01*
X154558666Y-81068152D02*
X154701523Y-81068152D01*
X154701523Y-81068152D02*
X154796761Y-81115771D01*
X154796761Y-81115771D02*
X154844380Y-81163390D01*
X154844380Y-81163390D02*
X154891999Y-81258628D01*
X154891999Y-81258628D02*
X154891999Y-81544342D01*
X154891999Y-81544342D02*
X154844380Y-81639580D01*
X154844380Y-81639580D02*
X154796761Y-81687200D01*
X154796761Y-81687200D02*
X154701523Y-81734819D01*
X154701523Y-81734819D02*
X154558666Y-81734819D01*
X155177714Y-81068152D02*
X155558666Y-81068152D01*
X155320571Y-80734819D02*
X155320571Y-81591961D01*
X155320571Y-81591961D02*
X155368190Y-81687200D01*
X155368190Y-81687200D02*
X155463428Y-81734819D01*
X155463428Y-81734819D02*
X155558666Y-81734819D01*
X155844381Y-80830057D02*
X155892000Y-80782438D01*
X155892000Y-80782438D02*
X155987238Y-80734819D01*
X155987238Y-80734819D02*
X156225333Y-80734819D01*
X156225333Y-80734819D02*
X156320571Y-80782438D01*
X156320571Y-80782438D02*
X156368190Y-80830057D01*
X156368190Y-80830057D02*
X156415809Y-80925295D01*
X156415809Y-80925295D02*
X156415809Y-81020533D01*
X156415809Y-81020533D02*
X156368190Y-81163390D01*
X156368190Y-81163390D02*
X155796762Y-81734819D01*
X155796762Y-81734819D02*
X156415809Y-81734819D01*
X188414819Y-134278666D02*
X187938628Y-134611999D01*
X188414819Y-134850094D02*
X187414819Y-134850094D01*
X187414819Y-134850094D02*
X187414819Y-134469142D01*
X187414819Y-134469142D02*
X187462438Y-134373904D01*
X187462438Y-134373904D02*
X187510057Y-134326285D01*
X187510057Y-134326285D02*
X187605295Y-134278666D01*
X187605295Y-134278666D02*
X187748152Y-134278666D01*
X187748152Y-134278666D02*
X187843390Y-134326285D01*
X187843390Y-134326285D02*
X187891009Y-134373904D01*
X187891009Y-134373904D02*
X187938628Y-134469142D01*
X187938628Y-134469142D02*
X187938628Y-134850094D01*
X187414819Y-133945332D02*
X187414819Y-133326285D01*
X187414819Y-133326285D02*
X187795771Y-133659618D01*
X187795771Y-133659618D02*
X187795771Y-133516761D01*
X187795771Y-133516761D02*
X187843390Y-133421523D01*
X187843390Y-133421523D02*
X187891009Y-133373904D01*
X187891009Y-133373904D02*
X187986247Y-133326285D01*
X187986247Y-133326285D02*
X188224342Y-133326285D01*
X188224342Y-133326285D02*
X188319580Y-133373904D01*
X188319580Y-133373904D02*
X188367200Y-133421523D01*
X188367200Y-133421523D02*
X188414819Y-133516761D01*
X188414819Y-133516761D02*
X188414819Y-133802475D01*
X188414819Y-133802475D02*
X188367200Y-133897713D01*
X188367200Y-133897713D02*
X188319580Y-133945332D01*
X188414819Y-131151238D02*
X188414819Y-131722666D01*
X188414819Y-131436952D02*
X187414819Y-131436952D01*
X187414819Y-131436952D02*
X187557676Y-131532190D01*
X187557676Y-131532190D02*
X187652914Y-131627428D01*
X187652914Y-131627428D02*
X187700533Y-131722666D01*
X187414819Y-130532190D02*
X187414819Y-130436952D01*
X187414819Y-130436952D02*
X187462438Y-130341714D01*
X187462438Y-130341714D02*
X187510057Y-130294095D01*
X187510057Y-130294095D02*
X187605295Y-130246476D01*
X187605295Y-130246476D02*
X187795771Y-130198857D01*
X187795771Y-130198857D02*
X188033866Y-130198857D01*
X188033866Y-130198857D02*
X188224342Y-130246476D01*
X188224342Y-130246476D02*
X188319580Y-130294095D01*
X188319580Y-130294095D02*
X188367200Y-130341714D01*
X188367200Y-130341714D02*
X188414819Y-130436952D01*
X188414819Y-130436952D02*
X188414819Y-130532190D01*
X188414819Y-130532190D02*
X188367200Y-130627428D01*
X188367200Y-130627428D02*
X188319580Y-130675047D01*
X188319580Y-130675047D02*
X188224342Y-130722666D01*
X188224342Y-130722666D02*
X188033866Y-130770285D01*
X188033866Y-130770285D02*
X187795771Y-130770285D01*
X187795771Y-130770285D02*
X187605295Y-130722666D01*
X187605295Y-130722666D02*
X187510057Y-130675047D01*
X187510057Y-130675047D02*
X187462438Y-130627428D01*
X187462438Y-130627428D02*
X187414819Y-130532190D01*
X188414819Y-129770285D02*
X187414819Y-129770285D01*
X188033866Y-129675047D02*
X188414819Y-129389333D01*
X187748152Y-129389333D02*
X188129104Y-129770285D01*
X82550095Y-57858819D02*
X82550095Y-56858819D01*
X82550095Y-57335009D02*
X83121523Y-57335009D01*
X83121523Y-57858819D02*
X83121523Y-56858819D01*
X84121523Y-57858819D02*
X83550095Y-57858819D01*
X83835809Y-57858819D02*
X83835809Y-56858819D01*
X83835809Y-56858819D02*
X83740571Y-57001676D01*
X83740571Y-57001676D02*
X83645333Y-57096914D01*
X83645333Y-57096914D02*
X83550095Y-57144533D01*
X155266285Y-95974819D02*
X155456761Y-95974819D01*
X155456761Y-95974819D02*
X155551999Y-96022438D01*
X155551999Y-96022438D02*
X155647237Y-96117676D01*
X155647237Y-96117676D02*
X155694856Y-96308152D01*
X155694856Y-96308152D02*
X155694856Y-96641485D01*
X155694856Y-96641485D02*
X155647237Y-96831961D01*
X155647237Y-96831961D02*
X155551999Y-96927200D01*
X155551999Y-96927200D02*
X155456761Y-96974819D01*
X155456761Y-96974819D02*
X155266285Y-96974819D01*
X155266285Y-96974819D02*
X155171047Y-96927200D01*
X155171047Y-96927200D02*
X155075809Y-96831961D01*
X155075809Y-96831961D02*
X155028190Y-96641485D01*
X155028190Y-96641485D02*
X155028190Y-96308152D01*
X155028190Y-96308152D02*
X155075809Y-96117676D01*
X155075809Y-96117676D02*
X155171047Y-96022438D01*
X155171047Y-96022438D02*
X155266285Y-95974819D01*
X156599618Y-96974819D02*
X156123428Y-96974819D01*
X156123428Y-96974819D02*
X156123428Y-95974819D01*
X156932952Y-96451009D02*
X157266285Y-96451009D01*
X157409142Y-96974819D02*
X156932952Y-96974819D01*
X156932952Y-96974819D02*
X156932952Y-95974819D01*
X156932952Y-95974819D02*
X157409142Y-95974819D01*
X157837714Y-96974819D02*
X157837714Y-95974819D01*
X157837714Y-95974819D02*
X158075809Y-95974819D01*
X158075809Y-95974819D02*
X158218666Y-96022438D01*
X158218666Y-96022438D02*
X158313904Y-96117676D01*
X158313904Y-96117676D02*
X158361523Y-96212914D01*
X158361523Y-96212914D02*
X158409142Y-96403390D01*
X158409142Y-96403390D02*
X158409142Y-96546247D01*
X158409142Y-96546247D02*
X158361523Y-96736723D01*
X158361523Y-96736723D02*
X158313904Y-96831961D01*
X158313904Y-96831961D02*
X158218666Y-96927200D01*
X158218666Y-96927200D02*
X158075809Y-96974819D01*
X158075809Y-96974819D02*
X157837714Y-96974819D01*
X158599619Y-97070057D02*
X159361523Y-97070057D01*
X160075809Y-96974819D02*
X159599619Y-96974819D01*
X159599619Y-96974819D02*
X159599619Y-95974819D01*
X160980571Y-96879580D02*
X160932952Y-96927200D01*
X160932952Y-96927200D02*
X160790095Y-96974819D01*
X160790095Y-96974819D02*
X160694857Y-96974819D01*
X160694857Y-96974819D02*
X160552000Y-96927200D01*
X160552000Y-96927200D02*
X160456762Y-96831961D01*
X160456762Y-96831961D02*
X160409143Y-96736723D01*
X160409143Y-96736723D02*
X160361524Y-96546247D01*
X160361524Y-96546247D02*
X160361524Y-96403390D01*
X160361524Y-96403390D02*
X160409143Y-96212914D01*
X160409143Y-96212914D02*
X160456762Y-96117676D01*
X160456762Y-96117676D02*
X160552000Y-96022438D01*
X160552000Y-96022438D02*
X160694857Y-95974819D01*
X160694857Y-95974819D02*
X160790095Y-95974819D01*
X160790095Y-95974819D02*
X160932952Y-96022438D01*
X160932952Y-96022438D02*
X160980571Y-96070057D01*
X161409143Y-96974819D02*
X161409143Y-95974819D01*
X161409143Y-95974819D02*
X161647238Y-95974819D01*
X161647238Y-95974819D02*
X161790095Y-96022438D01*
X161790095Y-96022438D02*
X161885333Y-96117676D01*
X161885333Y-96117676D02*
X161932952Y-96212914D01*
X161932952Y-96212914D02*
X161980571Y-96403390D01*
X161980571Y-96403390D02*
X161980571Y-96546247D01*
X161980571Y-96546247D02*
X161932952Y-96736723D01*
X161932952Y-96736723D02*
X161885333Y-96831961D01*
X161885333Y-96831961D02*
X161790095Y-96927200D01*
X161790095Y-96927200D02*
X161647238Y-96974819D01*
X161647238Y-96974819D02*
X161409143Y-96974819D01*
X162171048Y-97070057D02*
X162932952Y-97070057D01*
X163171048Y-96974819D02*
X163171048Y-95974819D01*
X163171048Y-95974819D02*
X163409143Y-95974819D01*
X163409143Y-95974819D02*
X163552000Y-96022438D01*
X163552000Y-96022438D02*
X163647238Y-96117676D01*
X163647238Y-96117676D02*
X163694857Y-96212914D01*
X163694857Y-96212914D02*
X163742476Y-96403390D01*
X163742476Y-96403390D02*
X163742476Y-96546247D01*
X163742476Y-96546247D02*
X163694857Y-96736723D01*
X163694857Y-96736723D02*
X163647238Y-96831961D01*
X163647238Y-96831961D02*
X163552000Y-96927200D01*
X163552000Y-96927200D02*
X163409143Y-96974819D01*
X163409143Y-96974819D02*
X163171048Y-96974819D01*
X164171048Y-96974819D02*
X164171048Y-96308152D01*
X164171048Y-95974819D02*
X164123429Y-96022438D01*
X164123429Y-96022438D02*
X164171048Y-96070057D01*
X164171048Y-96070057D02*
X164218667Y-96022438D01*
X164218667Y-96022438D02*
X164171048Y-95974819D01*
X164171048Y-95974819D02*
X164171048Y-96070057D01*
X164599619Y-96927200D02*
X164694857Y-96974819D01*
X164694857Y-96974819D02*
X164885333Y-96974819D01*
X164885333Y-96974819D02*
X164980571Y-96927200D01*
X164980571Y-96927200D02*
X165028190Y-96831961D01*
X165028190Y-96831961D02*
X165028190Y-96784342D01*
X165028190Y-96784342D02*
X164980571Y-96689104D01*
X164980571Y-96689104D02*
X164885333Y-96641485D01*
X164885333Y-96641485D02*
X164742476Y-96641485D01*
X164742476Y-96641485D02*
X164647238Y-96593866D01*
X164647238Y-96593866D02*
X164599619Y-96498628D01*
X164599619Y-96498628D02*
X164599619Y-96451009D01*
X164599619Y-96451009D02*
X164647238Y-96355771D01*
X164647238Y-96355771D02*
X164742476Y-96308152D01*
X164742476Y-96308152D02*
X164885333Y-96308152D01*
X164885333Y-96308152D02*
X164980571Y-96355771D01*
X165456762Y-96308152D02*
X165456762Y-97308152D01*
X165456762Y-96355771D02*
X165552000Y-96308152D01*
X165552000Y-96308152D02*
X165742476Y-96308152D01*
X165742476Y-96308152D02*
X165837714Y-96355771D01*
X165837714Y-96355771D02*
X165885333Y-96403390D01*
X165885333Y-96403390D02*
X165932952Y-96498628D01*
X165932952Y-96498628D02*
X165932952Y-96784342D01*
X165932952Y-96784342D02*
X165885333Y-96879580D01*
X165885333Y-96879580D02*
X165837714Y-96927200D01*
X165837714Y-96927200D02*
X165742476Y-96974819D01*
X165742476Y-96974819D02*
X165552000Y-96974819D01*
X165552000Y-96974819D02*
X165456762Y-96927200D01*
X166504381Y-96974819D02*
X166409143Y-96927200D01*
X166409143Y-96927200D02*
X166361524Y-96831961D01*
X166361524Y-96831961D02*
X166361524Y-95974819D01*
X167313905Y-96974819D02*
X167313905Y-96451009D01*
X167313905Y-96451009D02*
X167266286Y-96355771D01*
X167266286Y-96355771D02*
X167171048Y-96308152D01*
X167171048Y-96308152D02*
X166980572Y-96308152D01*
X166980572Y-96308152D02*
X166885334Y-96355771D01*
X167313905Y-96927200D02*
X167218667Y-96974819D01*
X167218667Y-96974819D02*
X166980572Y-96974819D01*
X166980572Y-96974819D02*
X166885334Y-96927200D01*
X166885334Y-96927200D02*
X166837715Y-96831961D01*
X166837715Y-96831961D02*
X166837715Y-96736723D01*
X166837715Y-96736723D02*
X166885334Y-96641485D01*
X166885334Y-96641485D02*
X166980572Y-96593866D01*
X166980572Y-96593866D02*
X167218667Y-96593866D01*
X167218667Y-96593866D02*
X167313905Y-96546247D01*
X167694858Y-96308152D02*
X167932953Y-96974819D01*
X168171048Y-96308152D02*
X167932953Y-96974819D01*
X167932953Y-96974819D02*
X167837715Y-97212914D01*
X167837715Y-97212914D02*
X167790096Y-97260533D01*
X167790096Y-97260533D02*
X167694858Y-97308152D01*
X169075810Y-96974819D02*
X168504382Y-96974819D01*
X168790096Y-96974819D02*
X168790096Y-95974819D01*
X168790096Y-95974819D02*
X168694858Y-96117676D01*
X168694858Y-96117676D02*
X168599620Y-96212914D01*
X168599620Y-96212914D02*
X168504382Y-96260533D01*
X139820549Y-127110230D02*
X139820549Y-126110230D01*
X139820549Y-126586420D02*
X140391977Y-126586420D01*
X140391977Y-127110230D02*
X140391977Y-126110230D01*
X141391977Y-127110230D02*
X140820549Y-127110230D01*
X141106263Y-127110230D02*
X141106263Y-126110230D01*
X141106263Y-126110230D02*
X141011025Y-126253087D01*
X141011025Y-126253087D02*
X140915787Y-126348325D01*
X140915787Y-126348325D02*
X140820549Y-126395944D01*
X142011025Y-126110230D02*
X142106263Y-126110230D01*
X142106263Y-126110230D02*
X142201501Y-126157849D01*
X142201501Y-126157849D02*
X142249120Y-126205468D01*
X142249120Y-126205468D02*
X142296739Y-126300706D01*
X142296739Y-126300706D02*
X142344358Y-126491182D01*
X142344358Y-126491182D02*
X142344358Y-126729277D01*
X142344358Y-126729277D02*
X142296739Y-126919753D01*
X142296739Y-126919753D02*
X142249120Y-127014991D01*
X142249120Y-127014991D02*
X142201501Y-127062611D01*
X142201501Y-127062611D02*
X142106263Y-127110230D01*
X142106263Y-127110230D02*
X142011025Y-127110230D01*
X142011025Y-127110230D02*
X141915787Y-127062611D01*
X141915787Y-127062611D02*
X141868168Y-127014991D01*
X141868168Y-127014991D02*
X141820549Y-126919753D01*
X141820549Y-126919753D02*
X141772930Y-126729277D01*
X141772930Y-126729277D02*
X141772930Y-126491182D01*
X141772930Y-126491182D02*
X141820549Y-126300706D01*
X141820549Y-126300706D02*
X141868168Y-126205468D01*
X141868168Y-126205468D02*
X141915787Y-126157849D01*
X141915787Y-126157849D02*
X142011025Y-126110230D01*
X173736246Y-136598819D02*
X173736246Y-135598819D01*
X173736246Y-136075009D02*
X174307674Y-136075009D01*
X174307674Y-136598819D02*
X174307674Y-135598819D01*
X174926722Y-136027390D02*
X174831484Y-135979771D01*
X174831484Y-135979771D02*
X174783865Y-135932152D01*
X174783865Y-135932152D02*
X174736246Y-135836914D01*
X174736246Y-135836914D02*
X174736246Y-135789295D01*
X174736246Y-135789295D02*
X174783865Y-135694057D01*
X174783865Y-135694057D02*
X174831484Y-135646438D01*
X174831484Y-135646438D02*
X174926722Y-135598819D01*
X174926722Y-135598819D02*
X175117198Y-135598819D01*
X175117198Y-135598819D02*
X175212436Y-135646438D01*
X175212436Y-135646438D02*
X175260055Y-135694057D01*
X175260055Y-135694057D02*
X175307674Y-135789295D01*
X175307674Y-135789295D02*
X175307674Y-135836914D01*
X175307674Y-135836914D02*
X175260055Y-135932152D01*
X175260055Y-135932152D02*
X175212436Y-135979771D01*
X175212436Y-135979771D02*
X175117198Y-136027390D01*
X175117198Y-136027390D02*
X174926722Y-136027390D01*
X174926722Y-136027390D02*
X174831484Y-136075009D01*
X174831484Y-136075009D02*
X174783865Y-136122628D01*
X174783865Y-136122628D02*
X174736246Y-136217866D01*
X174736246Y-136217866D02*
X174736246Y-136408342D01*
X174736246Y-136408342D02*
X174783865Y-136503580D01*
X174783865Y-136503580D02*
X174831484Y-136551200D01*
X174831484Y-136551200D02*
X174926722Y-136598819D01*
X174926722Y-136598819D02*
X175117198Y-136598819D01*
X175117198Y-136598819D02*
X175212436Y-136551200D01*
X175212436Y-136551200D02*
X175260055Y-136503580D01*
X175260055Y-136503580D02*
X175307674Y-136408342D01*
X175307674Y-136408342D02*
X175307674Y-136217866D01*
X175307674Y-136217866D02*
X175260055Y-136122628D01*
X175260055Y-136122628D02*
X175212436Y-136075009D01*
X175212436Y-136075009D02*
X175117198Y-136027390D01*
D13*
X91552715Y-74979318D02*
X91552715Y-75886461D01*
X91552715Y-75886461D02*
X91492238Y-76067889D01*
X91492238Y-76067889D02*
X91371286Y-76188842D01*
X91371286Y-76188842D02*
X91189857Y-76249318D01*
X91189857Y-76249318D02*
X91068905Y-76249318D01*
X92338905Y-76249318D02*
X92217953Y-76188842D01*
X92217953Y-76188842D02*
X92157476Y-76128365D01*
X92157476Y-76128365D02*
X92097000Y-76007413D01*
X92097000Y-76007413D02*
X92097000Y-75644556D01*
X92097000Y-75644556D02*
X92157476Y-75523603D01*
X92157476Y-75523603D02*
X92217953Y-75463127D01*
X92217953Y-75463127D02*
X92338905Y-75402651D01*
X92338905Y-75402651D02*
X92520334Y-75402651D01*
X92520334Y-75402651D02*
X92641286Y-75463127D01*
X92641286Y-75463127D02*
X92701762Y-75523603D01*
X92701762Y-75523603D02*
X92762238Y-75644556D01*
X92762238Y-75644556D02*
X92762238Y-76007413D01*
X92762238Y-76007413D02*
X92701762Y-76128365D01*
X92701762Y-76128365D02*
X92641286Y-76188842D01*
X92641286Y-76188842D02*
X92520334Y-76249318D01*
X92520334Y-76249318D02*
X92338905Y-76249318D01*
X93185572Y-75402651D02*
X93487953Y-76249318D01*
X93790334Y-75402651D02*
X93487953Y-76249318D01*
X93487953Y-76249318D02*
X93367001Y-76551699D01*
X93367001Y-76551699D02*
X93306524Y-76612175D01*
X93306524Y-76612175D02*
X93185572Y-76672651D01*
X94213667Y-76188842D02*
X94334620Y-76249318D01*
X94334620Y-76249318D02*
X94576524Y-76249318D01*
X94576524Y-76249318D02*
X94697477Y-76188842D01*
X94697477Y-76188842D02*
X94757953Y-76067889D01*
X94757953Y-76067889D02*
X94757953Y-76007413D01*
X94757953Y-76007413D02*
X94697477Y-75886461D01*
X94697477Y-75886461D02*
X94576524Y-75825984D01*
X94576524Y-75825984D02*
X94395096Y-75825984D01*
X94395096Y-75825984D02*
X94274143Y-75765508D01*
X94274143Y-75765508D02*
X94213667Y-75644556D01*
X94213667Y-75644556D02*
X94213667Y-75584080D01*
X94213667Y-75584080D02*
X94274143Y-75463127D01*
X94274143Y-75463127D02*
X94395096Y-75402651D01*
X94395096Y-75402651D02*
X94576524Y-75402651D01*
X94576524Y-75402651D02*
X94697477Y-75463127D01*
X95120810Y-75402651D02*
X95604619Y-75402651D01*
X95302238Y-74979318D02*
X95302238Y-76067889D01*
X95302238Y-76067889D02*
X95362715Y-76188842D01*
X95362715Y-76188842D02*
X95483667Y-76249318D01*
X95483667Y-76249318D02*
X95604619Y-76249318D01*
X96027952Y-76249318D02*
X96027952Y-75402651D01*
X96027952Y-74979318D02*
X95967476Y-75039794D01*
X95967476Y-75039794D02*
X96027952Y-75100270D01*
X96027952Y-75100270D02*
X96088429Y-75039794D01*
X96088429Y-75039794D02*
X96027952Y-74979318D01*
X96027952Y-74979318D02*
X96027952Y-75100270D01*
X97177000Y-76188842D02*
X97056048Y-76249318D01*
X97056048Y-76249318D02*
X96814143Y-76249318D01*
X96814143Y-76249318D02*
X96693191Y-76188842D01*
X96693191Y-76188842D02*
X96632714Y-76128365D01*
X96632714Y-76128365D02*
X96572238Y-76007413D01*
X96572238Y-76007413D02*
X96572238Y-75644556D01*
X96572238Y-75644556D02*
X96632714Y-75523603D01*
X96632714Y-75523603D02*
X96693191Y-75463127D01*
X96693191Y-75463127D02*
X96814143Y-75402651D01*
X96814143Y-75402651D02*
X97056048Y-75402651D01*
X97056048Y-75402651D02*
X97177000Y-75463127D01*
X97721285Y-76249318D02*
X97721285Y-74979318D01*
X97842238Y-75765508D02*
X98205095Y-76249318D01*
X98205095Y-75402651D02*
X97721285Y-75886461D01*
X99414619Y-76249318D02*
X98688904Y-76249318D01*
X99051761Y-76249318D02*
X99051761Y-74979318D01*
X99051761Y-74979318D02*
X98930809Y-75160746D01*
X98930809Y-75160746D02*
X98809857Y-75281699D01*
X98809857Y-75281699D02*
X98688904Y-75342175D01*
D12*
X191341714Y-63433609D02*
X191484571Y-63481228D01*
X191484571Y-63481228D02*
X191532190Y-63528847D01*
X191532190Y-63528847D02*
X191579809Y-63624085D01*
X191579809Y-63624085D02*
X191579809Y-63766942D01*
X191579809Y-63766942D02*
X191532190Y-63862180D01*
X191532190Y-63862180D02*
X191484571Y-63909800D01*
X191484571Y-63909800D02*
X191389333Y-63957419D01*
X191389333Y-63957419D02*
X191008381Y-63957419D01*
X191008381Y-63957419D02*
X191008381Y-62957419D01*
X191008381Y-62957419D02*
X191341714Y-62957419D01*
X191341714Y-62957419D02*
X191436952Y-63005038D01*
X191436952Y-63005038D02*
X191484571Y-63052657D01*
X191484571Y-63052657D02*
X191532190Y-63147895D01*
X191532190Y-63147895D02*
X191532190Y-63243133D01*
X191532190Y-63243133D02*
X191484571Y-63338371D01*
X191484571Y-63338371D02*
X191436952Y-63385990D01*
X191436952Y-63385990D02*
X191341714Y-63433609D01*
X191341714Y-63433609D02*
X191008381Y-63433609D01*
X192436952Y-63290752D02*
X192436952Y-63957419D01*
X192008381Y-63290752D02*
X192008381Y-63814561D01*
X192008381Y-63814561D02*
X192056000Y-63909800D01*
X192056000Y-63909800D02*
X192151238Y-63957419D01*
X192151238Y-63957419D02*
X192294095Y-63957419D01*
X192294095Y-63957419D02*
X192389333Y-63909800D01*
X192389333Y-63909800D02*
X192436952Y-63862180D01*
X192913143Y-63957419D02*
X192913143Y-63290752D01*
X192913143Y-63385990D02*
X192960762Y-63338371D01*
X192960762Y-63338371D02*
X193056000Y-63290752D01*
X193056000Y-63290752D02*
X193198857Y-63290752D01*
X193198857Y-63290752D02*
X193294095Y-63338371D01*
X193294095Y-63338371D02*
X193341714Y-63433609D01*
X193341714Y-63433609D02*
X193341714Y-63957419D01*
X193341714Y-63433609D02*
X193389333Y-63338371D01*
X193389333Y-63338371D02*
X193484571Y-63290752D01*
X193484571Y-63290752D02*
X193627428Y-63290752D01*
X193627428Y-63290752D02*
X193722667Y-63338371D01*
X193722667Y-63338371D02*
X193770286Y-63433609D01*
X193770286Y-63433609D02*
X193770286Y-63957419D01*
X194246476Y-63290752D02*
X194246476Y-64290752D01*
X194246476Y-63338371D02*
X194341714Y-63290752D01*
X194341714Y-63290752D02*
X194532190Y-63290752D01*
X194532190Y-63290752D02*
X194627428Y-63338371D01*
X194627428Y-63338371D02*
X194675047Y-63385990D01*
X194675047Y-63385990D02*
X194722666Y-63481228D01*
X194722666Y-63481228D02*
X194722666Y-63766942D01*
X194722666Y-63766942D02*
X194675047Y-63862180D01*
X194675047Y-63862180D02*
X194627428Y-63909800D01*
X194627428Y-63909800D02*
X194532190Y-63957419D01*
X194532190Y-63957419D02*
X194341714Y-63957419D01*
X194341714Y-63957419D02*
X194246476Y-63909800D01*
X195532190Y-63909800D02*
X195436952Y-63957419D01*
X195436952Y-63957419D02*
X195246476Y-63957419D01*
X195246476Y-63957419D02*
X195151238Y-63909800D01*
X195151238Y-63909800D02*
X195103619Y-63814561D01*
X195103619Y-63814561D02*
X195103619Y-63433609D01*
X195103619Y-63433609D02*
X195151238Y-63338371D01*
X195151238Y-63338371D02*
X195246476Y-63290752D01*
X195246476Y-63290752D02*
X195436952Y-63290752D01*
X195436952Y-63290752D02*
X195532190Y-63338371D01*
X195532190Y-63338371D02*
X195579809Y-63433609D01*
X195579809Y-63433609D02*
X195579809Y-63528847D01*
X195579809Y-63528847D02*
X195103619Y-63624085D01*
X196008381Y-63957419D02*
X196008381Y-63290752D01*
X196008381Y-63481228D02*
X196056000Y-63385990D01*
X196056000Y-63385990D02*
X196103619Y-63338371D01*
X196103619Y-63338371D02*
X196198857Y-63290752D01*
X196198857Y-63290752D02*
X196294095Y-63290752D01*
X197056000Y-63290752D02*
X197056000Y-63957419D01*
X196817905Y-62909800D02*
X196579810Y-63624085D01*
X196579810Y-63624085D02*
X197198857Y-63624085D01*
D13*
X179822715Y-74979318D02*
X179822715Y-75886461D01*
X179822715Y-75886461D02*
X179762238Y-76067889D01*
X179762238Y-76067889D02*
X179641286Y-76188842D01*
X179641286Y-76188842D02*
X179459857Y-76249318D01*
X179459857Y-76249318D02*
X179338905Y-76249318D01*
X180608905Y-76249318D02*
X180487953Y-76188842D01*
X180487953Y-76188842D02*
X180427476Y-76128365D01*
X180427476Y-76128365D02*
X180367000Y-76007413D01*
X180367000Y-76007413D02*
X180367000Y-75644556D01*
X180367000Y-75644556D02*
X180427476Y-75523603D01*
X180427476Y-75523603D02*
X180487953Y-75463127D01*
X180487953Y-75463127D02*
X180608905Y-75402651D01*
X180608905Y-75402651D02*
X180790334Y-75402651D01*
X180790334Y-75402651D02*
X180911286Y-75463127D01*
X180911286Y-75463127D02*
X180971762Y-75523603D01*
X180971762Y-75523603D02*
X181032238Y-75644556D01*
X181032238Y-75644556D02*
X181032238Y-76007413D01*
X181032238Y-76007413D02*
X180971762Y-76128365D01*
X180971762Y-76128365D02*
X180911286Y-76188842D01*
X180911286Y-76188842D02*
X180790334Y-76249318D01*
X180790334Y-76249318D02*
X180608905Y-76249318D01*
X181455572Y-75402651D02*
X181757953Y-76249318D01*
X182060334Y-75402651D02*
X181757953Y-76249318D01*
X181757953Y-76249318D02*
X181637001Y-76551699D01*
X181637001Y-76551699D02*
X181576524Y-76612175D01*
X181576524Y-76612175D02*
X181455572Y-76672651D01*
X182483667Y-76188842D02*
X182604620Y-76249318D01*
X182604620Y-76249318D02*
X182846524Y-76249318D01*
X182846524Y-76249318D02*
X182967477Y-76188842D01*
X182967477Y-76188842D02*
X183027953Y-76067889D01*
X183027953Y-76067889D02*
X183027953Y-76007413D01*
X183027953Y-76007413D02*
X182967477Y-75886461D01*
X182967477Y-75886461D02*
X182846524Y-75825984D01*
X182846524Y-75825984D02*
X182665096Y-75825984D01*
X182665096Y-75825984D02*
X182544143Y-75765508D01*
X182544143Y-75765508D02*
X182483667Y-75644556D01*
X182483667Y-75644556D02*
X182483667Y-75584080D01*
X182483667Y-75584080D02*
X182544143Y-75463127D01*
X182544143Y-75463127D02*
X182665096Y-75402651D01*
X182665096Y-75402651D02*
X182846524Y-75402651D01*
X182846524Y-75402651D02*
X182967477Y-75463127D01*
X183390810Y-75402651D02*
X183874619Y-75402651D01*
X183572238Y-74979318D02*
X183572238Y-76067889D01*
X183572238Y-76067889D02*
X183632715Y-76188842D01*
X183632715Y-76188842D02*
X183753667Y-76249318D01*
X183753667Y-76249318D02*
X183874619Y-76249318D01*
X184297952Y-76249318D02*
X184297952Y-75402651D01*
X184297952Y-74979318D02*
X184237476Y-75039794D01*
X184237476Y-75039794D02*
X184297952Y-75100270D01*
X184297952Y-75100270D02*
X184358429Y-75039794D01*
X184358429Y-75039794D02*
X184297952Y-74979318D01*
X184297952Y-74979318D02*
X184297952Y-75100270D01*
X185447000Y-76188842D02*
X185326048Y-76249318D01*
X185326048Y-76249318D02*
X185084143Y-76249318D01*
X185084143Y-76249318D02*
X184963191Y-76188842D01*
X184963191Y-76188842D02*
X184902714Y-76128365D01*
X184902714Y-76128365D02*
X184842238Y-76007413D01*
X184842238Y-76007413D02*
X184842238Y-75644556D01*
X184842238Y-75644556D02*
X184902714Y-75523603D01*
X184902714Y-75523603D02*
X184963191Y-75463127D01*
X184963191Y-75463127D02*
X185084143Y-75402651D01*
X185084143Y-75402651D02*
X185326048Y-75402651D01*
X185326048Y-75402651D02*
X185447000Y-75463127D01*
X185991285Y-76249318D02*
X185991285Y-74979318D01*
X186112238Y-75765508D02*
X186475095Y-76249318D01*
X186475095Y-75402651D02*
X185991285Y-75886461D01*
X186958904Y-75100270D02*
X187019380Y-75039794D01*
X187019380Y-75039794D02*
X187140333Y-74979318D01*
X187140333Y-74979318D02*
X187442714Y-74979318D01*
X187442714Y-74979318D02*
X187563666Y-75039794D01*
X187563666Y-75039794D02*
X187624142Y-75100270D01*
X187624142Y-75100270D02*
X187684619Y-75221222D01*
X187684619Y-75221222D02*
X187684619Y-75342175D01*
X187684619Y-75342175D02*
X187624142Y-75523603D01*
X187624142Y-75523603D02*
X186898428Y-76249318D01*
X186898428Y-76249318D02*
X187684619Y-76249318D01*
D12*
%TO.C,Toggle1*%
X113348000Y-68072000D02*
X121348000Y-68072000D01*
X121348000Y-68072000D02*
X121348000Y-55072000D01*
X121348000Y-55072000D02*
X113348000Y-55072000D01*
X113348000Y-55072000D02*
X113348000Y-68072000D01*
D14*
%TO.C,Rotary_Encoder1*%
X180780000Y-115320000D02*
X181380000Y-115320000D01*
X181080000Y-115620000D02*
X180780000Y-115320000D01*
X181380000Y-115320000D02*
X181080000Y-115620000D01*
X182480000Y-113520000D02*
X182480000Y-125320000D01*
X186580000Y-113520000D02*
X182480000Y-113520000D01*
X186580000Y-125320000D02*
X182480000Y-125320000D01*
X188080000Y-119420000D02*
X189080000Y-119420000D01*
X188580000Y-118920000D02*
X188580000Y-119920000D01*
X190580000Y-113520000D02*
X194680000Y-113520000D01*
X194680000Y-113520000D02*
X194680000Y-115920000D01*
X194680000Y-118120000D02*
X194680000Y-120720000D01*
X194680000Y-122920000D02*
X194680000Y-125320000D01*
X194680000Y-125320000D02*
X190580000Y-125320000D01*
X191580000Y-119420000D02*
G75*
G03*
X191580000Y-119420000I-3000000J0D01*
G01*
%TO.C,R4*%
X179732000Y-135350000D02*
X179732000Y-128810000D01*
X180062000Y-135350000D02*
X179732000Y-135350000D01*
X182142000Y-135350000D02*
X182472000Y-135350000D01*
X182472000Y-135350000D02*
X182472000Y-128810000D01*
X179732000Y-128810000D02*
X180062000Y-128810000D01*
X182472000Y-128810000D02*
X182142000Y-128810000D01*
%TO.C,Button3*%
X94290000Y-124980000D02*
X94290000Y-126480000D01*
X95540000Y-128980000D02*
X100040000Y-128980000D01*
X100040000Y-122480000D02*
X95540000Y-122480000D01*
X101290000Y-126480000D02*
X101290000Y-124980000D01*
D12*
%TO.C,Toggle3*%
X145352000Y-68072000D02*
X153352000Y-68072000D01*
X153352000Y-68072000D02*
X153352000Y-55072000D01*
X153352000Y-55072000D02*
X145352000Y-55072000D01*
X145352000Y-55072000D02*
X145352000Y-68072000D01*
%TO.C,Bumper2*%
X94488000Y-56388000D02*
X97536000Y-56388000D01*
X97536000Y-56388000D02*
X97536000Y-62992000D01*
X97536000Y-62992000D02*
X94488000Y-62992000D01*
X94488000Y-62992000D02*
X94488000Y-56388000D01*
D14*
%TO.C,Button4*%
X94290000Y-134800000D02*
X94290000Y-136300000D01*
X95540000Y-138800000D02*
X100040000Y-138800000D01*
X100040000Y-132300000D02*
X95540000Y-132300000D01*
X101290000Y-136300000D02*
X101290000Y-134800000D01*
%TO.C,Button2*%
X94290000Y-114820000D02*
X94290000Y-116320000D01*
X95540000Y-118820000D02*
X100040000Y-118820000D01*
X100040000Y-112320000D02*
X95540000Y-112320000D01*
X101290000Y-116320000D02*
X101290000Y-114820000D01*
%TO.C,Button1*%
X94290000Y-104660000D02*
X94290000Y-106160000D01*
X95540000Y-108660000D02*
X100040000Y-108660000D01*
X100040000Y-102160000D02*
X95540000Y-102160000D01*
X101290000Y-106160000D02*
X101290000Y-104660000D01*
D12*
%TO.C,Bumper1*%
X87884000Y-56388000D02*
X90932000Y-56388000D01*
X90932000Y-56388000D02*
X90932000Y-62992000D01*
X90932000Y-62992000D02*
X87884000Y-62992000D01*
X87884000Y-62992000D02*
X87884000Y-56388000D01*
%TO.C,PowerSwitch1*%
X148470000Y-93700000D02*
X133470000Y-93700000D01*
X133470000Y-93700000D02*
X133470000Y-72700000D01*
X133470000Y-72700000D02*
X148470000Y-72700000D01*
X148470000Y-72700000D02*
X148470000Y-93700000D01*
%TO.C,Toggle4*%
X160592000Y-68072000D02*
X168592000Y-68072000D01*
X168592000Y-68072000D02*
X168592000Y-55072000D01*
X168592000Y-55072000D02*
X160592000Y-55072000D01*
X160592000Y-55072000D02*
X160592000Y-68072000D01*
D14*
%TO.C,Pot1*%
X124570000Y-78970000D02*
X122971000Y-78970000D01*
X124570000Y-78970000D02*
X124570000Y-82835000D01*
X121229000Y-78970000D02*
X120470000Y-78970000D01*
X118729000Y-78970000D02*
X117970000Y-78970000D01*
X116230000Y-78970000D02*
X114630000Y-78970000D01*
X114630000Y-78970000D02*
X114630000Y-82835000D01*
X124570000Y-87345000D02*
X124570000Y-91210000D01*
X114630000Y-87345000D02*
X114630000Y-91210000D01*
X124570000Y-91210000D02*
X114630000Y-91210000D01*
D12*
%TO.C,Bumper3*%
X185420000Y-56388000D02*
X188468000Y-56388000D01*
X188468000Y-56388000D02*
X188468000Y-62992000D01*
X188468000Y-62992000D02*
X185420000Y-62992000D01*
X185420000Y-62992000D02*
X185420000Y-56388000D01*
%TO.C,Toggle2*%
X128588000Y-68072000D02*
X136588000Y-68072000D01*
X136588000Y-68072000D02*
X136588000Y-55072000D01*
X136588000Y-55072000D02*
X128588000Y-55072000D01*
X128588000Y-55072000D02*
X128588000Y-68072000D01*
D14*
%TO.C,Pot2*%
X167310000Y-78970000D02*
X165711000Y-78970000D01*
X167310000Y-78970000D02*
X167310000Y-82835000D01*
X163969000Y-78970000D02*
X163210000Y-78970000D01*
X161469000Y-78970000D02*
X160710000Y-78970000D01*
X158970000Y-78970000D02*
X157370000Y-78970000D01*
X157370000Y-78970000D02*
X157370000Y-82835000D01*
X167310000Y-87345000D02*
X167310000Y-91210000D01*
X157370000Y-87345000D02*
X157370000Y-91210000D01*
X167310000Y-91210000D02*
X157370000Y-91210000D01*
%TO.C,R3*%
X184050000Y-135350000D02*
X184050000Y-128810000D01*
X184380000Y-135350000D02*
X184050000Y-135350000D01*
X186460000Y-135350000D02*
X186790000Y-135350000D01*
X186790000Y-135350000D02*
X186790000Y-128810000D01*
X184050000Y-128810000D02*
X184380000Y-128810000D01*
X186790000Y-128810000D02*
X186460000Y-128810000D01*
D12*
%TO.C,OLED_LCD_Display1*%
X105410000Y-97790000D02*
X176530000Y-97790000D01*
X176530000Y-97790000D02*
X176530000Y-141190000D01*
X176530000Y-141190000D02*
X105410000Y-141190000D01*
X105410000Y-141190000D02*
X105410000Y-97790000D01*
X108915000Y-99695000D02*
G75*
G03*
X108915000Y-99695000I-1600000J0D01*
G01*
X109042000Y-139192000D02*
G75*
G03*
X109042000Y-139192000I-1600000J0D01*
G01*
X176098000Y-99822000D02*
G75*
G03*
X176098000Y-99822000I-1600000J0D01*
G01*
X176098000Y-139192000D02*
G75*
G03*
X176098000Y-139192000I-1600000J0D01*
G01*
D15*
%TO.C,Joystick1*%
X103410000Y-82695000D02*
X103410000Y-69545000D01*
D12*
X103410000Y-79120000D02*
X103410000Y-79120000D01*
X103410000Y-79120000D02*
X103410000Y-73120000D01*
X103410000Y-73120000D02*
X103410000Y-79120000D01*
X103410000Y-73120000D02*
X103410000Y-73120000D01*
D15*
X103410000Y-69545000D02*
X90260000Y-69545000D01*
D12*
X101585000Y-85820000D02*
X101585000Y-85820000D01*
X101585000Y-85820000D02*
X101585000Y-82695000D01*
X101585000Y-82695000D02*
X101585000Y-85820000D01*
X101585000Y-82695000D02*
X101585000Y-82695000D01*
X101585000Y-82695000D02*
X101585000Y-82695000D01*
X101585000Y-82695000D02*
X92085000Y-82695000D01*
X101085000Y-82695000D02*
X101085000Y-82695000D01*
X101085000Y-82695000D02*
X92585000Y-82695000D01*
D15*
X101085000Y-64520000D02*
X101085000Y-69545000D01*
D12*
X98335000Y-69545000D02*
X98335000Y-69545000D01*
X98335000Y-69545000D02*
X95335000Y-69545000D01*
X95335000Y-69545000D02*
X98335000Y-69545000D01*
X95335000Y-69545000D02*
X95335000Y-69545000D01*
D15*
X94335000Y-86720000D02*
X94335000Y-86720000D01*
X94335000Y-86720000D02*
X94335000Y-86720000D01*
D12*
X92585000Y-82695000D02*
X101085000Y-82695000D01*
X92585000Y-82695000D02*
X92585000Y-82695000D01*
D15*
X92585000Y-69545000D02*
X92585000Y-64520000D01*
X92585000Y-64520000D02*
X101085000Y-64520000D01*
X92085000Y-85820000D02*
X101585000Y-85820000D01*
D12*
X92085000Y-85820000D02*
X92085000Y-85820000D01*
X92085000Y-85820000D02*
X92085000Y-82695000D01*
X92085000Y-82695000D02*
X101585000Y-82695000D01*
X92085000Y-82695000D02*
X92085000Y-85820000D01*
X92085000Y-82695000D02*
X92085000Y-82695000D01*
X92085000Y-82695000D02*
X92085000Y-82695000D01*
D15*
X90260000Y-82695000D02*
X103410000Y-82695000D01*
X90260000Y-80870000D02*
X87135000Y-80870000D01*
D12*
X90260000Y-79120000D02*
X90260000Y-79120000D01*
X90260000Y-79120000D02*
X90260000Y-79120000D01*
X90260000Y-79120000D02*
X90260000Y-73120000D01*
X90260000Y-79120000D02*
X90260000Y-73120000D01*
X90260000Y-73120000D02*
X90260000Y-79120000D01*
X90260000Y-73120000D02*
X90260000Y-79120000D01*
X90260000Y-73120000D02*
X90260000Y-73120000D01*
X90260000Y-73120000D02*
X90260000Y-73120000D01*
D15*
X90260000Y-69545000D02*
X90260000Y-82695000D01*
D12*
X88510000Y-80870000D02*
X88510000Y-80870000D01*
X88510000Y-80870000D02*
X87135000Y-80870000D01*
X88510000Y-71370000D02*
X88510000Y-71370000D01*
X88510000Y-71370000D02*
X87135000Y-71370000D01*
X87135000Y-80870000D02*
X88510000Y-80870000D01*
X87135000Y-80870000D02*
X87135000Y-80870000D01*
D15*
X87135000Y-80870000D02*
X87135000Y-71370000D01*
X87135000Y-71370000D02*
X90260000Y-71370000D01*
D12*
X87135000Y-71370000D02*
X88510000Y-71370000D01*
X87135000Y-71370000D02*
X87135000Y-71370000D01*
D15*
X94335000Y-86720000D02*
G75*
G03*
X94335000Y-86830000I0J-55000D01*
G01*
X94335000Y-86720000D02*
G75*
G03*
X94335000Y-86830000I0J-55000D01*
G01*
X94335000Y-86830000D02*
G75*
G03*
X94335000Y-86720000I0J55000D01*
G01*
D12*
%TO.C,Bumper4*%
X192024000Y-56388000D02*
X195072000Y-56388000D01*
X195072000Y-56388000D02*
X195072000Y-62992000D01*
X195072000Y-62992000D02*
X192024000Y-62992000D01*
X192024000Y-62992000D02*
X192024000Y-56388000D01*
D15*
%TO.C,Joystick2*%
X191680000Y-82695000D02*
X191680000Y-69545000D01*
D12*
X191680000Y-79120000D02*
X191680000Y-79120000D01*
X191680000Y-79120000D02*
X191680000Y-73120000D01*
X191680000Y-73120000D02*
X191680000Y-79120000D01*
X191680000Y-73120000D02*
X191680000Y-73120000D01*
D15*
X191680000Y-69545000D02*
X178530000Y-69545000D01*
D12*
X189855000Y-85820000D02*
X189855000Y-85820000D01*
X189855000Y-85820000D02*
X189855000Y-82695000D01*
X189855000Y-82695000D02*
X189855000Y-85820000D01*
X189855000Y-82695000D02*
X189855000Y-82695000D01*
X189855000Y-82695000D02*
X189855000Y-82695000D01*
X189855000Y-82695000D02*
X180355000Y-82695000D01*
X189355000Y-82695000D02*
X189355000Y-82695000D01*
X189355000Y-82695000D02*
X180855000Y-82695000D01*
D15*
X189355000Y-64520000D02*
X189355000Y-69545000D01*
D12*
X186605000Y-69545000D02*
X186605000Y-69545000D01*
X186605000Y-69545000D02*
X183605000Y-69545000D01*
X183605000Y-69545000D02*
X186605000Y-69545000D01*
X183605000Y-69545000D02*
X183605000Y-69545000D01*
D15*
X182605000Y-86720000D02*
X182605000Y-86720000D01*
X182605000Y-86720000D02*
X182605000Y-86720000D01*
D12*
X180855000Y-82695000D02*
X189355000Y-82695000D01*
X180855000Y-82695000D02*
X180855000Y-82695000D01*
D15*
X180855000Y-69545000D02*
X180855000Y-64520000D01*
X180855000Y-64520000D02*
X189355000Y-64520000D01*
X180355000Y-85820000D02*
X189855000Y-85820000D01*
D12*
X180355000Y-85820000D02*
X180355000Y-85820000D01*
X180355000Y-85820000D02*
X180355000Y-82695000D01*
X180355000Y-82695000D02*
X189855000Y-82695000D01*
X180355000Y-82695000D02*
X180355000Y-85820000D01*
X180355000Y-82695000D02*
X180355000Y-82695000D01*
X180355000Y-82695000D02*
X180355000Y-82695000D01*
D15*
X178530000Y-82695000D02*
X191680000Y-82695000D01*
X178530000Y-80870000D02*
X175405000Y-80870000D01*
D12*
X178530000Y-79120000D02*
X178530000Y-79120000D01*
X178530000Y-79120000D02*
X178530000Y-79120000D01*
X178530000Y-79120000D02*
X178530000Y-73120000D01*
X178530000Y-79120000D02*
X178530000Y-73120000D01*
X178530000Y-73120000D02*
X178530000Y-79120000D01*
X178530000Y-73120000D02*
X178530000Y-79120000D01*
X178530000Y-73120000D02*
X178530000Y-73120000D01*
X178530000Y-73120000D02*
X178530000Y-73120000D01*
D15*
X178530000Y-69545000D02*
X178530000Y-82695000D01*
D12*
X176780000Y-80870000D02*
X176780000Y-80870000D01*
X176780000Y-80870000D02*
X175405000Y-80870000D01*
X176780000Y-71370000D02*
X176780000Y-71370000D01*
X176780000Y-71370000D02*
X175405000Y-71370000D01*
X175405000Y-80870000D02*
X176780000Y-80870000D01*
X175405000Y-80870000D02*
X175405000Y-80870000D01*
D15*
X175405000Y-80870000D02*
X175405000Y-71370000D01*
X175405000Y-71370000D02*
X178530000Y-71370000D01*
D12*
X175405000Y-71370000D02*
X176780000Y-71370000D01*
X175405000Y-71370000D02*
X175405000Y-71370000D01*
D15*
X182605000Y-86720000D02*
G75*
G03*
X182605000Y-86830000I0J-55000D01*
G01*
X182605000Y-86720000D02*
G75*
G03*
X182605000Y-86830000I0J-55000D01*
G01*
X182605000Y-86830000D02*
G75*
G03*
X182605000Y-86720000I0J55000D01*
G01*
%TD*%
M02*
