%TF.GenerationSoftware,KiCad,Pcbnew,7.0.8*%
%TF.CreationDate,2023-11-22T02:38:07-05:00*%
%TF.ProjectId,RCTransmitterAecertRobotics,52435472-616e-4736-9d69-747465724165,rev?*%
%TF.SameCoordinates,Original*%
%TF.FileFunction,Plated,1,2,PTH,Mixed*%
%TF.FilePolarity,Positive*%
%FSLAX46Y46*%
G04 Gerber Fmt 4.6, Leading zero omitted, Abs format (unit mm)*
G04 Created by KiCad (PCBNEW 7.0.8) date 2023-11-22 02:38:07*
%MOMM*%
%LPD*%
G01*
G04 APERTURE LIST*
%TA.AperFunction,ViaDrill*%
%ADD10C,0.400000*%
%TD*%
%TA.AperFunction,ComponentDrill*%
%ADD11C,0.700000*%
%TD*%
%TA.AperFunction,ComponentDrill*%
%ADD12C,0.800000*%
%TD*%
%TA.AperFunction,ComponentDrill*%
%ADD13C,1.000000*%
%TD*%
G04 aperture for slot hole*
%TA.AperFunction,ComponentDrill*%
%ADD14O,2.500000X1.000000*%
%TD*%
G04 aperture for slot hole*
%TA.AperFunction,ComponentDrill*%
%ADD15O,5.250000X1.000000*%
%TD*%
%TA.AperFunction,ComponentDrill*%
%ADD16C,1.100000*%
%TD*%
%TA.AperFunction,ComponentDrill*%
%ADD17C,1.300000*%
%TD*%
G04 aperture for slot hole*
%TA.AperFunction,ComponentDrill*%
%ADD18O,2.800000X1.500000*%
%TD*%
%TA.AperFunction,ComponentDrill*%
%ADD19C,1.600000*%
%TD*%
G04 APERTURE END LIST*
D10*
X84010994Y-85344000D03*
X85185497Y-85344000D03*
X86360000Y-85344000D03*
X89408000Y-66040000D03*
X89408000Y-84328000D03*
X92456000Y-58928000D03*
X92456000Y-131572000D03*
X93218000Y-140208000D03*
X93472000Y-99568000D03*
X93974276Y-131266266D03*
X96092572Y-73528443D03*
X97889000Y-100584000D03*
X97889000Y-105156000D03*
X97889000Y-130048000D03*
X98044000Y-91440000D03*
X98806000Y-89154000D03*
X99060000Y-121271285D03*
X99568000Y-125476000D03*
X99597535Y-126650131D03*
X102108000Y-98044000D03*
X102929041Y-140295973D03*
X104648000Y-132588000D03*
X105156000Y-65786000D03*
X107188000Y-116332000D03*
X107696000Y-123444000D03*
X109012500Y-87376000D03*
X109410996Y-78231539D03*
X109411038Y-72654093D03*
X110585497Y-72644000D03*
X110585498Y-78233248D03*
X110744000Y-102616000D03*
X111760000Y-72644000D03*
X111760000Y-78232000D03*
X112268000Y-127329500D03*
X112934503Y-78232000D03*
X112938728Y-72644000D03*
X114808000Y-113284000D03*
X114900688Y-111159312D03*
X115824000Y-110236000D03*
X118872000Y-120904000D03*
X119888000Y-110726888D03*
X119888000Y-113135479D03*
X119888000Y-138684000D03*
X124968000Y-69088000D03*
X129032000Y-102616000D03*
X129820556Y-108337148D03*
X130048000Y-96012000D03*
X130850000Y-87590000D03*
X130872180Y-96945918D03*
X131951976Y-97407976D03*
X132080000Y-114808000D03*
X134199500Y-87590000D03*
X135200919Y-124257127D03*
X137160000Y-92622500D03*
X138251968Y-93870873D03*
X139192000Y-94488000D03*
X139700000Y-102616000D03*
X139809127Y-95428032D03*
X140750331Y-96369500D03*
X142902968Y-97251592D03*
X145796000Y-109220000D03*
X146050000Y-87122000D03*
X148336000Y-71628000D03*
X148634307Y-83013693D03*
X152408340Y-99168500D03*
X154432000Y-80772000D03*
X155448000Y-91440000D03*
X156972000Y-117856000D03*
X157988000Y-101092000D03*
X160689312Y-91601312D03*
X165100000Y-72136000D03*
X168148000Y-108204000D03*
X170434000Y-129794000D03*
X172720000Y-94996000D03*
X174244000Y-85344000D03*
X176691312Y-105063312D03*
X176812349Y-115149500D03*
X178308000Y-119634000D03*
X182372000Y-97028000D03*
X185420000Y-106172000D03*
X187452000Y-75184000D03*
X189594180Y-129195269D03*
X189992000Y-59436000D03*
X193040000Y-66040000D03*
X197612000Y-75692000D03*
X199136000Y-109728000D03*
D11*
%TO.C,JST_Connector1*%
X150368000Y-85852000D03*
X150368000Y-87852000D03*
D12*
%TO.C,Arduino_Mega_Pro1*%
X88265000Y-88900000D03*
X88265000Y-91440000D03*
X88265000Y-93980000D03*
X88265000Y-96520000D03*
X88265000Y-99060000D03*
X88265000Y-101600000D03*
X88265000Y-104140000D03*
X88265000Y-106680000D03*
X88265000Y-109220000D03*
X88265000Y-111760000D03*
X88265000Y-114300000D03*
X88265000Y-116840000D03*
X88265000Y-119380000D03*
X88265000Y-121920000D03*
X88265000Y-124460000D03*
X88265000Y-127000000D03*
X88265000Y-129540000D03*
X88265000Y-132080000D03*
X88265000Y-134620000D03*
X88265000Y-137160000D03*
X88265000Y-139700000D03*
%TO.C,Bumper1*%
X89408000Y-57912000D03*
X89408000Y-61468000D03*
%TO.C,Arduino_Mega_Pro1*%
X90805000Y-88900000D03*
X90805000Y-91440000D03*
X90805000Y-93980000D03*
X90805000Y-96520000D03*
X90805000Y-99060000D03*
X90805000Y-101600000D03*
X90805000Y-104140000D03*
X90805000Y-106680000D03*
X90805000Y-109220000D03*
X90805000Y-111760000D03*
X90805000Y-114300000D03*
X90805000Y-116840000D03*
X90805000Y-119380000D03*
X90805000Y-121920000D03*
X90805000Y-124460000D03*
X90805000Y-127000000D03*
X90805000Y-129540000D03*
X90805000Y-132080000D03*
X90805000Y-134620000D03*
X90805000Y-137160000D03*
X90805000Y-139700000D03*
%TO.C,Bumper2*%
X96012000Y-57912000D03*
X96012000Y-61468000D03*
%TO.C,Arduino_Mega_Pro1*%
X101400000Y-88900000D03*
X101400000Y-91440000D03*
X103940000Y-88900000D03*
X103940000Y-91440000D03*
X106480000Y-88900000D03*
X106480000Y-91440000D03*
X114100000Y-88900000D03*
X114100000Y-91440000D03*
X116640000Y-88900000D03*
X116640000Y-91440000D03*
X119180000Y-88900000D03*
X119180000Y-91440000D03*
X121720000Y-88900000D03*
X121720000Y-91440000D03*
X121720000Y-93980000D03*
X121720000Y-96520000D03*
X121720000Y-99060000D03*
X121720000Y-101600000D03*
X121720000Y-104140000D03*
X121720000Y-106680000D03*
X121720000Y-109220000D03*
X121720000Y-111760000D03*
X121720000Y-114300000D03*
X121720000Y-116840000D03*
X121720000Y-119380000D03*
X121720000Y-121920000D03*
X121720000Y-124460000D03*
X121720000Y-127000000D03*
X124260000Y-88900000D03*
X124260000Y-91440000D03*
X124260000Y-93980000D03*
X124260000Y-96520000D03*
X124260000Y-99060000D03*
X124260000Y-101600000D03*
X124260000Y-104140000D03*
X124260000Y-106680000D03*
X124260000Y-109220000D03*
X124260000Y-111760000D03*
X124260000Y-114300000D03*
X124260000Y-116840000D03*
X124260000Y-119380000D03*
X124260000Y-121920000D03*
X124260000Y-124460000D03*
X124260000Y-127000000D03*
%TO.C,C2*%
X129540000Y-120714888D03*
X129540000Y-123214888D03*
%TO.C,Gyroscope1*%
X132009454Y-105816523D03*
%TO.C,OLED_LCD_Display1*%
X133350000Y-99060000D03*
%TO.C,R1*%
X134366000Y-114300000D03*
%TO.C,R2*%
X134366000Y-117856000D03*
%TO.C,Gyroscope1*%
X134549454Y-105816523D03*
%TO.C,OLED_LCD_Display1*%
X135890000Y-99060000D03*
%TO.C,Gyroscope1*%
X137089454Y-105816523D03*
%TO.C,OLED_LCD_Display1*%
X138430000Y-99060000D03*
%TO.C,Gyroscope1*%
X139629454Y-105816523D03*
%TO.C,OLED_LCD_Display1*%
X140970000Y-99060000D03*
%TO.C,R1*%
X141986000Y-114300000D03*
%TO.C,R2*%
X141986000Y-117856000D03*
%TO.C,Gyroscope1*%
X142169454Y-105816523D03*
%TO.C,OLED_LCD_Display1*%
X143510000Y-99060000D03*
%TO.C,Gyroscope1*%
X144709454Y-105816523D03*
%TO.C,OLED_LCD_Display1*%
X146050000Y-99060000D03*
%TO.C,Gyroscope1*%
X147249454Y-105816523D03*
%TO.C,OLED_LCD_Display1*%
X148590000Y-99060000D03*
%TO.C,Gyroscope1*%
X149789454Y-105816523D03*
%TO.C,NRF24*%
X176530000Y-92075000D03*
X176530000Y-94615000D03*
X179070000Y-92075000D03*
X179070000Y-94615000D03*
%TO.C,R4*%
X181102000Y-128270000D03*
X181102000Y-135890000D03*
%TO.C,NRF24*%
X181610000Y-92075000D03*
X181610000Y-94615000D03*
%TO.C,C1*%
X182372000Y-100076000D03*
%TO.C,NRF24*%
X184150000Y-92075000D03*
X184150000Y-94615000D03*
%TO.C,C1*%
X184872000Y-100076000D03*
%TO.C,R3*%
X185420000Y-128270000D03*
X185420000Y-135890000D03*
%TO.C,Bumper3*%
X186944000Y-57912000D03*
X186944000Y-61468000D03*
%TO.C,Bumper4*%
X193548000Y-57912000D03*
X193548000Y-61468000D03*
D13*
%TO.C,Pot1*%
X117100000Y-78090000D03*
D14*
%TO.C,Toggle1*%
X117348000Y-61872000D03*
X117348000Y-66072000D03*
D13*
%TO.C,Pot1*%
X119600000Y-78090000D03*
X122100000Y-78090000D03*
D14*
%TO.C,Toggle2*%
X132588000Y-61872000D03*
X132588000Y-66072000D03*
D15*
%TO.C,PowerSwitch1*%
X140970000Y-76200000D03*
X140970000Y-83200000D03*
X140970000Y-90200000D03*
D14*
%TO.C,Toggle3*%
X149352000Y-61872000D03*
X149352000Y-66072000D03*
D13*
%TO.C,Pot2*%
X159840000Y-78090000D03*
X162340000Y-78090000D03*
D14*
%TO.C,Toggle4*%
X164592000Y-61872000D03*
X164592000Y-66072000D03*
D13*
%TO.C,Pot2*%
X164840000Y-78090000D03*
%TO.C,Rotary_Encoder1*%
X181080000Y-116920000D03*
X181080000Y-119420000D03*
X181080000Y-121920000D03*
X195580000Y-116920000D03*
X195580000Y-121920000D03*
D16*
%TO.C,Joystick1*%
X88105000Y-73620000D03*
X88105000Y-76120000D03*
X88105000Y-78620000D03*
X94335000Y-84850000D03*
%TO.C,Button1*%
X94540000Y-103160000D03*
X94540000Y-107660000D03*
%TO.C,Button2*%
X94540000Y-113320000D03*
X94540000Y-117820000D03*
%TO.C,Button3*%
X94540000Y-123480000D03*
X94540000Y-127980000D03*
%TO.C,Button4*%
X94540000Y-133300000D03*
X94540000Y-137800000D03*
%TO.C,Joystick1*%
X96835000Y-84850000D03*
X99335000Y-84850000D03*
%TO.C,Button1*%
X101040000Y-103160000D03*
X101040000Y-107660000D03*
%TO.C,Button2*%
X101040000Y-113320000D03*
X101040000Y-117820000D03*
%TO.C,Button3*%
X101040000Y-123480000D03*
X101040000Y-127980000D03*
%TO.C,Button4*%
X101040000Y-133300000D03*
X101040000Y-137800000D03*
%TO.C,Joystick2*%
X176375000Y-73620000D03*
X176375000Y-76120000D03*
X176375000Y-78620000D03*
X182605000Y-84850000D03*
X185105000Y-84850000D03*
X187605000Y-84850000D03*
D17*
%TO.C,Joystick1*%
X93585000Y-65870000D03*
X93585000Y-70370000D03*
X100085000Y-65870000D03*
X100085000Y-70370000D03*
%TO.C,Joystick2*%
X181855000Y-65870000D03*
X181855000Y-70370000D03*
X188355000Y-65870000D03*
X188355000Y-70370000D03*
D18*
%TO.C,Rotary_Encoder1*%
X188580000Y-113820000D03*
X188580000Y-125020000D03*
D19*
%TO.C,Joystick1*%
X90510000Y-71120000D03*
X90510000Y-81120000D03*
X103160000Y-71120000D03*
X103160000Y-81120000D03*
%TO.C,Joystick2*%
X178780000Y-71120000D03*
X178780000Y-81120000D03*
X191430000Y-71120000D03*
X191430000Y-81120000D03*
M02*
