%TF.GenerationSoftware,KiCad,Pcbnew,7.0.8*%
%TF.CreationDate,2023-11-09T04:03:27-05:00*%
%TF.ProjectId,RCTransmitterAecertRobotics,52435472-616e-4736-9d69-747465724165,rev?*%
%TF.SameCoordinates,Original*%
%TF.FileFunction,Plated,1,2,PTH,Mixed*%
%TF.FilePolarity,Positive*%
%FSLAX46Y46*%
G04 Gerber Fmt 4.6, Leading zero omitted, Abs format (unit mm)*
G04 Created by KiCad (PCBNEW 7.0.8) date 2023-11-09 04:03:27*
%MOMM*%
%LPD*%
G01*
G04 APERTURE LIST*
%TA.AperFunction,ViaDrill*%
%ADD10C,0.400000*%
%TD*%
%TA.AperFunction,ComponentDrill*%
%ADD11C,0.700000*%
%TD*%
%TA.AperFunction,ComponentDrill*%
%ADD12C,0.750000*%
%TD*%
%TA.AperFunction,ComponentDrill*%
%ADD13C,0.762000*%
%TD*%
%TA.AperFunction,ComponentDrill*%
%ADD14C,0.800000*%
%TD*%
G04 aperture for slot hole*
%TA.AperFunction,ComponentDrill*%
%ADD15O,2.500000X1.000000*%
%TD*%
%TA.AperFunction,ComponentDrill*%
%ADD16C,1.000000*%
%TD*%
G04 aperture for slot hole*
%TA.AperFunction,ComponentDrill*%
%ADD17O,5.250000X1.000000*%
%TD*%
%TA.AperFunction,ComponentDrill*%
%ADD18C,1.100000*%
%TD*%
%TA.AperFunction,ComponentDrill*%
%ADD19C,1.300000*%
%TD*%
G04 aperture for slot hole*
%TA.AperFunction,ComponentDrill*%
%ADD20O,2.800000X1.500000*%
%TD*%
%TA.AperFunction,ComponentDrill*%
%ADD21C,1.600000*%
%TD*%
%TA.AperFunction,ComponentDrill*%
%ADD22C,2.000000*%
%TD*%
G04 APERTURE END LIST*
D10*
X83312000Y-97028000D03*
X83312000Y-104648000D03*
X84010994Y-85344000D03*
X84328000Y-127508000D03*
X85185497Y-85344000D03*
X86360000Y-85344000D03*
X89916000Y-81788000D03*
X90932000Y-66294000D03*
X91141693Y-84537693D03*
X92456000Y-131064000D03*
X93218000Y-140208000D03*
X93472000Y-99568000D03*
X97889000Y-100584000D03*
X97889000Y-105156000D03*
X98044000Y-73660000D03*
X98044000Y-91440000D03*
X98552000Y-136144000D03*
X98806000Y-89154000D03*
X99060000Y-121271285D03*
X99568000Y-125476000D03*
X99568000Y-135128000D03*
X99597535Y-126650131D03*
X102108000Y-98044000D03*
X105156000Y-65786000D03*
X107188000Y-116332000D03*
X107696000Y-123444000D03*
X108204000Y-130048000D03*
X109410996Y-78231539D03*
X109411038Y-72654093D03*
X110160003Y-93980000D03*
X110585497Y-72644000D03*
X110585498Y-78233248D03*
X110744000Y-102616000D03*
X111760000Y-72644000D03*
X111760000Y-78232000D03*
X112934503Y-78232000D03*
X112938728Y-72644000D03*
X115824000Y-111760000D03*
X115824000Y-113284000D03*
X116840000Y-110236000D03*
X119888000Y-138684000D03*
X120787500Y-110726888D03*
X120787500Y-113266888D03*
X120904000Y-72136000D03*
X129032000Y-102616000D03*
X129032000Y-108966000D03*
X130048000Y-96012000D03*
X130850000Y-87590000D03*
X130872180Y-96945918D03*
X131951976Y-97407976D03*
X132080000Y-114808000D03*
X132080000Y-122428000D03*
X136144000Y-90932000D03*
X136652000Y-87590000D03*
X139700000Y-102616000D03*
X143764000Y-71882000D03*
X148082000Y-122174000D03*
X148336000Y-91948000D03*
X152908000Y-110236000D03*
X154178000Y-101600000D03*
X154432000Y-80772000D03*
X155032810Y-89412197D03*
X155863310Y-90242695D03*
X156464000Y-97536000D03*
X156693808Y-91073194D03*
X157480000Y-119031491D03*
X157480000Y-120205994D03*
X157480000Y-121380497D03*
X157480000Y-122555000D03*
X157481043Y-123826043D03*
X157482086Y-125097086D03*
X157524307Y-91903693D03*
X159155500Y-105918000D03*
X159155500Y-128016000D03*
X161036000Y-73660000D03*
X163815500Y-101346000D03*
X164084000Y-126492000D03*
X165190000Y-119031491D03*
X165190000Y-120205994D03*
X165190000Y-121380497D03*
X165190000Y-122555000D03*
X165190000Y-123825000D03*
X165190000Y-125095000D03*
X167640000Y-94615000D03*
X167640000Y-95789503D03*
X167659419Y-93364419D03*
X168929419Y-92094419D03*
X170180000Y-110744000D03*
X170434000Y-129794000D03*
X177546000Y-104140000D03*
X177674043Y-114682043D03*
X178308000Y-119634000D03*
X180086000Y-81534000D03*
X180848000Y-101600000D03*
X181610000Y-109220000D03*
X187452000Y-75184000D03*
X189484000Y-66040000D03*
X190500000Y-85852000D03*
X191008000Y-130810000D03*
X198120000Y-112776000D03*
D11*
%TO.C,JST_Connector1*%
X145597418Y-111472182D03*
X145597418Y-113472182D03*
D12*
%TO.C,3.3V_Reg1*%
X179472000Y-104394000D03*
X179472000Y-105664000D03*
X179472000Y-106934000D03*
D13*
%TO.C,Arduino_Mega_Pro1*%
X88265000Y-88900000D03*
X88265000Y-91440000D03*
X88265000Y-93980000D03*
X88265000Y-96520000D03*
X88265000Y-99060000D03*
X88265000Y-101600000D03*
X88265000Y-104140000D03*
X88265000Y-106680000D03*
X88265000Y-109220000D03*
X88265000Y-111760000D03*
X88265000Y-114300000D03*
X88265000Y-116840000D03*
X88265000Y-119380000D03*
X88265000Y-121920000D03*
X88265000Y-124460000D03*
X88265000Y-127000000D03*
X88265000Y-129540000D03*
X88265000Y-132080000D03*
X88265000Y-134620000D03*
X88265000Y-137160000D03*
X88265000Y-139700000D03*
X90805000Y-88900000D03*
X90805000Y-91440000D03*
X90805000Y-93980000D03*
X90805000Y-96520000D03*
X90805000Y-99060000D03*
X90805000Y-101600000D03*
X90805000Y-104140000D03*
X90805000Y-106680000D03*
X90805000Y-109220000D03*
X90805000Y-111760000D03*
X90805000Y-114300000D03*
X90805000Y-116840000D03*
X90805000Y-119380000D03*
X90805000Y-121920000D03*
X90805000Y-124460000D03*
X90805000Y-127000000D03*
X90805000Y-129540000D03*
X90805000Y-132080000D03*
X90805000Y-134620000D03*
X90805000Y-137160000D03*
X90805000Y-139700000D03*
X101600000Y-88900000D03*
X101600000Y-91440000D03*
X104140000Y-88900000D03*
X104140000Y-91440000D03*
X106680000Y-88900000D03*
X106680000Y-91440000D03*
X114300000Y-88900000D03*
X114300000Y-91440000D03*
X116840000Y-88900000D03*
X116840000Y-91440000D03*
X119380000Y-88900000D03*
X119380000Y-91440000D03*
X121920000Y-88900000D03*
X121920000Y-91440000D03*
X121920000Y-93980000D03*
X121920000Y-96520000D03*
X121920000Y-99060000D03*
X121920000Y-101600000D03*
X121920000Y-104140000D03*
X121920000Y-106680000D03*
X121920000Y-109220000D03*
X121920000Y-111760000D03*
X121920000Y-114300000D03*
X121920000Y-116840000D03*
X121920000Y-119380000D03*
X121920000Y-121920000D03*
X121920000Y-124460000D03*
X121920000Y-127000000D03*
X124460000Y-88900000D03*
X124460000Y-91440000D03*
X124460000Y-93980000D03*
X124460000Y-96520000D03*
X124460000Y-99060000D03*
X124460000Y-101600000D03*
X124460000Y-104140000D03*
X124460000Y-106680000D03*
X124460000Y-109220000D03*
X124460000Y-111760000D03*
X124460000Y-114300000D03*
X124460000Y-116840000D03*
X124460000Y-119380000D03*
X124460000Y-121920000D03*
X124460000Y-124460000D03*
X124460000Y-127000000D03*
%TO.C,Gyroscope1*%
X132080000Y-106045000D03*
%TO.C,OLED_LCD_Display1*%
X133350000Y-99060000D03*
%TO.C,Gyroscope1*%
X134620000Y-106045000D03*
%TO.C,OLED_LCD_Display1*%
X135890000Y-99060000D03*
%TO.C,Gyroscope1*%
X137160000Y-106045000D03*
%TO.C,OLED_LCD_Display1*%
X138430000Y-99060000D03*
%TO.C,Gyroscope1*%
X139700000Y-106045000D03*
%TO.C,OLED_LCD_Display1*%
X140970000Y-99060000D03*
%TO.C,Gyroscope1*%
X142240000Y-106045000D03*
%TO.C,OLED_LCD_Display1*%
X143510000Y-99060000D03*
%TO.C,Gyroscope1*%
X144780000Y-106045000D03*
%TO.C,OLED_LCD_Display1*%
X146050000Y-99060000D03*
%TO.C,Gyroscope1*%
X147320000Y-106045000D03*
%TO.C,OLED_LCD_Display1*%
X148590000Y-99060000D03*
%TO.C,Gyroscope1*%
X149860000Y-106045000D03*
%TO.C,NRF24*%
X176530000Y-92075000D03*
X176530000Y-94615000D03*
X179070000Y-92075000D03*
X179070000Y-94615000D03*
X181610000Y-92075000D03*
X181610000Y-94615000D03*
X184150000Y-92075000D03*
X184150000Y-94615000D03*
D14*
%TO.C,R1*%
X83312000Y-100838000D03*
X83312000Y-108458000D03*
%TO.C,R2*%
X83312000Y-111252000D03*
X83312000Y-118872000D03*
%TO.C,Bumper1*%
X89408000Y-59595000D03*
X89408000Y-61595000D03*
%TO.C,Bumper2*%
X96012000Y-59595000D03*
X96012000Y-61595000D03*
%TO.C,R5*%
X128270000Y-115316000D03*
X135890000Y-115316000D03*
%TO.C,R4*%
X181102000Y-128270000D03*
X181102000Y-135890000D03*
%TO.C,C1*%
X183388000Y-100076000D03*
%TO.C,C2*%
X183388000Y-105845299D03*
%TO.C,R3*%
X185420000Y-128270000D03*
X185420000Y-135890000D03*
%TO.C,C1*%
X185888000Y-100076000D03*
%TO.C,C2*%
X185888000Y-105845299D03*
%TO.C,Bumper3*%
X186944000Y-59595000D03*
X186944000Y-61595000D03*
%TO.C,Bumper4*%
X193548000Y-59595000D03*
X193548000Y-61595000D03*
D15*
%TO.C,Toggle4*%
X118110000Y-63777000D03*
X118110000Y-67977000D03*
D16*
%TO.C,Pot1*%
X120100000Y-78090000D03*
X122600000Y-78090000D03*
X125100000Y-78090000D03*
D15*
%TO.C,Toggle3*%
X133350000Y-63777000D03*
X133350000Y-67977000D03*
D17*
%TO.C,K1*%
X140970000Y-77470000D03*
X140970000Y-84470000D03*
X140970000Y-91470000D03*
D15*
%TO.C,Toggle2*%
X148590000Y-63777000D03*
X148590000Y-67977000D03*
D16*
%TO.C,Pot2*%
X156840000Y-78090000D03*
X159340000Y-78090000D03*
X161840000Y-78090000D03*
D15*
%TO.C,Toggle1*%
X163830000Y-63777000D03*
X163830000Y-67977000D03*
D16*
%TO.C,Rotary_Encoder1*%
X181080000Y-116920000D03*
X181080000Y-119420000D03*
X181080000Y-121920000D03*
X195580000Y-116920000D03*
X195580000Y-121920000D03*
D18*
%TO.C,Joystick1*%
X90105000Y-73620000D03*
X90105000Y-76120000D03*
X90105000Y-78620000D03*
%TO.C,Button1*%
X94540000Y-103160000D03*
X94540000Y-107660000D03*
%TO.C,Button2*%
X94540000Y-113320000D03*
X94540000Y-117820000D03*
%TO.C,Button3*%
X94540000Y-123480000D03*
X94540000Y-127980000D03*
%TO.C,Button4*%
X94540000Y-133300000D03*
X94540000Y-137800000D03*
%TO.C,Joystick1*%
X96335000Y-84850000D03*
X98835000Y-84850000D03*
%TO.C,Button1*%
X101040000Y-103160000D03*
X101040000Y-107660000D03*
%TO.C,Button2*%
X101040000Y-113320000D03*
X101040000Y-117820000D03*
%TO.C,Button3*%
X101040000Y-123480000D03*
X101040000Y-127980000D03*
%TO.C,Button4*%
X101040000Y-133300000D03*
X101040000Y-137800000D03*
%TO.C,Joystick1*%
X101335000Y-84850000D03*
%TO.C,Joystick2*%
X174375000Y-73620000D03*
X174375000Y-76120000D03*
X174375000Y-78620000D03*
X180605000Y-84850000D03*
X183105000Y-84850000D03*
X185605000Y-84850000D03*
D19*
%TO.C,Joystick1*%
X95585000Y-65870000D03*
X95585000Y-70370000D03*
X102085000Y-65870000D03*
X102085000Y-70370000D03*
%TO.C,Joystick2*%
X179855000Y-65870000D03*
X179855000Y-70370000D03*
X186355000Y-65870000D03*
X186355000Y-70370000D03*
D20*
%TO.C,Rotary_Encoder1*%
X188580000Y-113820000D03*
X188580000Y-125020000D03*
D21*
%TO.C,Joystick1*%
X92510000Y-71120000D03*
X92510000Y-81120000D03*
X105160000Y-71120000D03*
X105160000Y-81120000D03*
%TO.C,Joystick2*%
X176780000Y-71120000D03*
X176780000Y-81120000D03*
X189430000Y-71120000D03*
X189430000Y-81120000D03*
D22*
%TO.C,Battery_Charger1*%
X133106000Y-139700000D03*
X135900000Y-119380000D03*
X145552000Y-119380000D03*
X148346000Y-139700000D03*
X154696000Y-139700000D03*
X162316000Y-139700000D03*
M02*
