%TF.GenerationSoftware,KiCad,Pcbnew,7.0.8*%
%TF.CreationDate,2023-11-09T04:02:46-05:00*%
%TF.ProjectId,RCTransmitterAecertRobotics,52435472-616e-4736-9d69-747465724165,rev?*%
%TF.SameCoordinates,Original*%
%TF.FileFunction,Legend,Bot*%
%TF.FilePolarity,Positive*%
%FSLAX46Y46*%
G04 Gerber Fmt 4.6, Leading zero omitted, Abs format (unit mm)*
G04 Created by KiCad (PCBNEW 7.0.8) date 2023-11-09 04:02:46*
%MOMM*%
%LPD*%
G01*
G04 APERTURE LIST*
%ADD10C,0.150000*%
%ADD11C,0.100000*%
%ADD12C,0.120000*%
G04 APERTURE END LIST*
D10*
X142822524Y-113439890D02*
X143584429Y-113439890D01*
X143203476Y-113820843D02*
X143203476Y-113058938D01*
X142840078Y-111438816D02*
X143601983Y-111438816D01*
D11*
X144633856Y-107851045D02*
X144729094Y-107803426D01*
X144729094Y-107803426D02*
X144871951Y-107803426D01*
X144871951Y-107803426D02*
X145014808Y-107851045D01*
X145014808Y-107851045D02*
X145110046Y-107946283D01*
X145110046Y-107946283D02*
X145157665Y-108041521D01*
X145157665Y-108041521D02*
X145205284Y-108231997D01*
X145205284Y-108231997D02*
X145205284Y-108374854D01*
X145205284Y-108374854D02*
X145157665Y-108565330D01*
X145157665Y-108565330D02*
X145110046Y-108660568D01*
X145110046Y-108660568D02*
X145014808Y-108755807D01*
X145014808Y-108755807D02*
X144871951Y-108803426D01*
X144871951Y-108803426D02*
X144776713Y-108803426D01*
X144776713Y-108803426D02*
X144633856Y-108755807D01*
X144633856Y-108755807D02*
X144586237Y-108708187D01*
X144586237Y-108708187D02*
X144586237Y-108374854D01*
X144586237Y-108374854D02*
X144776713Y-108374854D01*
X144252903Y-108136759D02*
X144014808Y-108803426D01*
X143776713Y-108136759D02*
X144014808Y-108803426D01*
X144014808Y-108803426D02*
X144110046Y-109041521D01*
X144110046Y-109041521D02*
X144157665Y-109089140D01*
X144157665Y-109089140D02*
X144252903Y-109136759D01*
X143395760Y-108803426D02*
X143395760Y-108136759D01*
X143395760Y-108327235D02*
X143348141Y-108231997D01*
X143348141Y-108231997D02*
X143300522Y-108184378D01*
X143300522Y-108184378D02*
X143205284Y-108136759D01*
X143205284Y-108136759D02*
X143110046Y-108136759D01*
X142633855Y-108803426D02*
X142729093Y-108755807D01*
X142729093Y-108755807D02*
X142776712Y-108708187D01*
X142776712Y-108708187D02*
X142824331Y-108612949D01*
X142824331Y-108612949D02*
X142824331Y-108327235D01*
X142824331Y-108327235D02*
X142776712Y-108231997D01*
X142776712Y-108231997D02*
X142729093Y-108184378D01*
X142729093Y-108184378D02*
X142633855Y-108136759D01*
X142633855Y-108136759D02*
X142490998Y-108136759D01*
X142490998Y-108136759D02*
X142395760Y-108184378D01*
X142395760Y-108184378D02*
X142348141Y-108231997D01*
X142348141Y-108231997D02*
X142300522Y-108327235D01*
X142300522Y-108327235D02*
X142300522Y-108612949D01*
X142300522Y-108612949D02*
X142348141Y-108708187D01*
X142348141Y-108708187D02*
X142395760Y-108755807D01*
X142395760Y-108755807D02*
X142490998Y-108803426D01*
X142490998Y-108803426D02*
X142633855Y-108803426D01*
X141919569Y-108755807D02*
X141824331Y-108803426D01*
X141824331Y-108803426D02*
X141633855Y-108803426D01*
X141633855Y-108803426D02*
X141538617Y-108755807D01*
X141538617Y-108755807D02*
X141490998Y-108660568D01*
X141490998Y-108660568D02*
X141490998Y-108612949D01*
X141490998Y-108612949D02*
X141538617Y-108517711D01*
X141538617Y-108517711D02*
X141633855Y-108470092D01*
X141633855Y-108470092D02*
X141776712Y-108470092D01*
X141776712Y-108470092D02*
X141871950Y-108422473D01*
X141871950Y-108422473D02*
X141919569Y-108327235D01*
X141919569Y-108327235D02*
X141919569Y-108279616D01*
X141919569Y-108279616D02*
X141871950Y-108184378D01*
X141871950Y-108184378D02*
X141776712Y-108136759D01*
X141776712Y-108136759D02*
X141633855Y-108136759D01*
X141633855Y-108136759D02*
X141538617Y-108184378D01*
X140633855Y-108755807D02*
X140729093Y-108803426D01*
X140729093Y-108803426D02*
X140919569Y-108803426D01*
X140919569Y-108803426D02*
X141014807Y-108755807D01*
X141014807Y-108755807D02*
X141062426Y-108708187D01*
X141062426Y-108708187D02*
X141110045Y-108612949D01*
X141110045Y-108612949D02*
X141110045Y-108327235D01*
X141110045Y-108327235D02*
X141062426Y-108231997D01*
X141062426Y-108231997D02*
X141014807Y-108184378D01*
X141014807Y-108184378D02*
X140919569Y-108136759D01*
X140919569Y-108136759D02*
X140729093Y-108136759D01*
X140729093Y-108136759D02*
X140633855Y-108184378D01*
X140062426Y-108803426D02*
X140157664Y-108755807D01*
X140157664Y-108755807D02*
X140205283Y-108708187D01*
X140205283Y-108708187D02*
X140252902Y-108612949D01*
X140252902Y-108612949D02*
X140252902Y-108327235D01*
X140252902Y-108327235D02*
X140205283Y-108231997D01*
X140205283Y-108231997D02*
X140157664Y-108184378D01*
X140157664Y-108184378D02*
X140062426Y-108136759D01*
X140062426Y-108136759D02*
X139919569Y-108136759D01*
X139919569Y-108136759D02*
X139824331Y-108184378D01*
X139824331Y-108184378D02*
X139776712Y-108231997D01*
X139776712Y-108231997D02*
X139729093Y-108327235D01*
X139729093Y-108327235D02*
X139729093Y-108612949D01*
X139729093Y-108612949D02*
X139776712Y-108708187D01*
X139776712Y-108708187D02*
X139824331Y-108755807D01*
X139824331Y-108755807D02*
X139919569Y-108803426D01*
X139919569Y-108803426D02*
X140062426Y-108803426D01*
X139300521Y-108136759D02*
X139300521Y-109136759D01*
X139300521Y-108184378D02*
X139205283Y-108136759D01*
X139205283Y-108136759D02*
X139014807Y-108136759D01*
X139014807Y-108136759D02*
X138919569Y-108184378D01*
X138919569Y-108184378D02*
X138871950Y-108231997D01*
X138871950Y-108231997D02*
X138824331Y-108327235D01*
X138824331Y-108327235D02*
X138824331Y-108612949D01*
X138824331Y-108612949D02*
X138871950Y-108708187D01*
X138871950Y-108708187D02*
X138919569Y-108755807D01*
X138919569Y-108755807D02*
X139014807Y-108803426D01*
X139014807Y-108803426D02*
X139205283Y-108803426D01*
X139205283Y-108803426D02*
X139300521Y-108755807D01*
X138014807Y-108755807D02*
X138110045Y-108803426D01*
X138110045Y-108803426D02*
X138300521Y-108803426D01*
X138300521Y-108803426D02*
X138395759Y-108755807D01*
X138395759Y-108755807D02*
X138443378Y-108660568D01*
X138443378Y-108660568D02*
X138443378Y-108279616D01*
X138443378Y-108279616D02*
X138395759Y-108184378D01*
X138395759Y-108184378D02*
X138300521Y-108136759D01*
X138300521Y-108136759D02*
X138110045Y-108136759D01*
X138110045Y-108136759D02*
X138014807Y-108184378D01*
X138014807Y-108184378D02*
X137967188Y-108279616D01*
X137967188Y-108279616D02*
X137967188Y-108374854D01*
X137967188Y-108374854D02*
X138443378Y-108470092D01*
X137014807Y-108803426D02*
X137586235Y-108803426D01*
X137300521Y-108803426D02*
X137300521Y-107803426D01*
X137300521Y-107803426D02*
X137395759Y-107946283D01*
X137395759Y-107946283D02*
X137490997Y-108041521D01*
X137490997Y-108041521D02*
X137586235Y-108089140D01*
D10*
X153153334Y-116771009D02*
X153010477Y-116818628D01*
X153010477Y-116818628D02*
X152962858Y-116866247D01*
X152962858Y-116866247D02*
X152915239Y-116961485D01*
X152915239Y-116961485D02*
X152915239Y-117104342D01*
X152915239Y-117104342D02*
X152962858Y-117199580D01*
X152962858Y-117199580D02*
X153010477Y-117247200D01*
X153010477Y-117247200D02*
X153105715Y-117294819D01*
X153105715Y-117294819D02*
X153486667Y-117294819D01*
X153486667Y-117294819D02*
X153486667Y-116294819D01*
X153486667Y-116294819D02*
X153153334Y-116294819D01*
X153153334Y-116294819D02*
X153058096Y-116342438D01*
X153058096Y-116342438D02*
X153010477Y-116390057D01*
X153010477Y-116390057D02*
X152962858Y-116485295D01*
X152962858Y-116485295D02*
X152962858Y-116580533D01*
X152962858Y-116580533D02*
X153010477Y-116675771D01*
X153010477Y-116675771D02*
X153058096Y-116723390D01*
X153058096Y-116723390D02*
X153153334Y-116771009D01*
X153153334Y-116771009D02*
X153486667Y-116771009D01*
X152058096Y-117294819D02*
X152058096Y-116771009D01*
X152058096Y-116771009D02*
X152105715Y-116675771D01*
X152105715Y-116675771D02*
X152200953Y-116628152D01*
X152200953Y-116628152D02*
X152391429Y-116628152D01*
X152391429Y-116628152D02*
X152486667Y-116675771D01*
X152058096Y-117247200D02*
X152153334Y-117294819D01*
X152153334Y-117294819D02*
X152391429Y-117294819D01*
X152391429Y-117294819D02*
X152486667Y-117247200D01*
X152486667Y-117247200D02*
X152534286Y-117151961D01*
X152534286Y-117151961D02*
X152534286Y-117056723D01*
X152534286Y-117056723D02*
X152486667Y-116961485D01*
X152486667Y-116961485D02*
X152391429Y-116913866D01*
X152391429Y-116913866D02*
X152153334Y-116913866D01*
X152153334Y-116913866D02*
X152058096Y-116866247D01*
X151724762Y-116628152D02*
X151343810Y-116628152D01*
X151581905Y-116294819D02*
X151581905Y-117151961D01*
X151581905Y-117151961D02*
X151534286Y-117247200D01*
X151534286Y-117247200D02*
X151439048Y-117294819D01*
X151439048Y-117294819D02*
X151343810Y-117294819D01*
X151153333Y-116628152D02*
X150772381Y-116628152D01*
X151010476Y-116294819D02*
X151010476Y-117151961D01*
X151010476Y-117151961D02*
X150962857Y-117247200D01*
X150962857Y-117247200D02*
X150867619Y-117294819D01*
X150867619Y-117294819D02*
X150772381Y-117294819D01*
X150058095Y-117247200D02*
X150153333Y-117294819D01*
X150153333Y-117294819D02*
X150343809Y-117294819D01*
X150343809Y-117294819D02*
X150439047Y-117247200D01*
X150439047Y-117247200D02*
X150486666Y-117151961D01*
X150486666Y-117151961D02*
X150486666Y-116771009D01*
X150486666Y-116771009D02*
X150439047Y-116675771D01*
X150439047Y-116675771D02*
X150343809Y-116628152D01*
X150343809Y-116628152D02*
X150153333Y-116628152D01*
X150153333Y-116628152D02*
X150058095Y-116675771D01*
X150058095Y-116675771D02*
X150010476Y-116771009D01*
X150010476Y-116771009D02*
X150010476Y-116866247D01*
X150010476Y-116866247D02*
X150486666Y-116961485D01*
X149581904Y-117294819D02*
X149581904Y-116628152D01*
X149581904Y-116818628D02*
X149534285Y-116723390D01*
X149534285Y-116723390D02*
X149486666Y-116675771D01*
X149486666Y-116675771D02*
X149391428Y-116628152D01*
X149391428Y-116628152D02*
X149296190Y-116628152D01*
X149058094Y-116628152D02*
X148819999Y-117294819D01*
X148581904Y-116628152D02*
X148819999Y-117294819D01*
X148819999Y-117294819D02*
X148915237Y-117532914D01*
X148915237Y-117532914D02*
X148962856Y-117580533D01*
X148962856Y-117580533D02*
X149058094Y-117628152D01*
X148439047Y-117390057D02*
X147677142Y-117390057D01*
X146867618Y-117199580D02*
X146915237Y-117247200D01*
X146915237Y-117247200D02*
X147058094Y-117294819D01*
X147058094Y-117294819D02*
X147153332Y-117294819D01*
X147153332Y-117294819D02*
X147296189Y-117247200D01*
X147296189Y-117247200D02*
X147391427Y-117151961D01*
X147391427Y-117151961D02*
X147439046Y-117056723D01*
X147439046Y-117056723D02*
X147486665Y-116866247D01*
X147486665Y-116866247D02*
X147486665Y-116723390D01*
X147486665Y-116723390D02*
X147439046Y-116532914D01*
X147439046Y-116532914D02*
X147391427Y-116437676D01*
X147391427Y-116437676D02*
X147296189Y-116342438D01*
X147296189Y-116342438D02*
X147153332Y-116294819D01*
X147153332Y-116294819D02*
X147058094Y-116294819D01*
X147058094Y-116294819D02*
X146915237Y-116342438D01*
X146915237Y-116342438D02*
X146867618Y-116390057D01*
X146439046Y-117294819D02*
X146439046Y-116294819D01*
X146010475Y-117294819D02*
X146010475Y-116771009D01*
X146010475Y-116771009D02*
X146058094Y-116675771D01*
X146058094Y-116675771D02*
X146153332Y-116628152D01*
X146153332Y-116628152D02*
X146296189Y-116628152D01*
X146296189Y-116628152D02*
X146391427Y-116675771D01*
X146391427Y-116675771D02*
X146439046Y-116723390D01*
X145105713Y-117294819D02*
X145105713Y-116771009D01*
X145105713Y-116771009D02*
X145153332Y-116675771D01*
X145153332Y-116675771D02*
X145248570Y-116628152D01*
X145248570Y-116628152D02*
X145439046Y-116628152D01*
X145439046Y-116628152D02*
X145534284Y-116675771D01*
X145105713Y-117247200D02*
X145200951Y-117294819D01*
X145200951Y-117294819D02*
X145439046Y-117294819D01*
X145439046Y-117294819D02*
X145534284Y-117247200D01*
X145534284Y-117247200D02*
X145581903Y-117151961D01*
X145581903Y-117151961D02*
X145581903Y-117056723D01*
X145581903Y-117056723D02*
X145534284Y-116961485D01*
X145534284Y-116961485D02*
X145439046Y-116913866D01*
X145439046Y-116913866D02*
X145200951Y-116913866D01*
X145200951Y-116913866D02*
X145105713Y-116866247D01*
X144629522Y-117294819D02*
X144629522Y-116628152D01*
X144629522Y-116818628D02*
X144581903Y-116723390D01*
X144581903Y-116723390D02*
X144534284Y-116675771D01*
X144534284Y-116675771D02*
X144439046Y-116628152D01*
X144439046Y-116628152D02*
X144343808Y-116628152D01*
X143581903Y-116628152D02*
X143581903Y-117437676D01*
X143581903Y-117437676D02*
X143629522Y-117532914D01*
X143629522Y-117532914D02*
X143677141Y-117580533D01*
X143677141Y-117580533D02*
X143772379Y-117628152D01*
X143772379Y-117628152D02*
X143915236Y-117628152D01*
X143915236Y-117628152D02*
X144010474Y-117580533D01*
X143581903Y-117247200D02*
X143677141Y-117294819D01*
X143677141Y-117294819D02*
X143867617Y-117294819D01*
X143867617Y-117294819D02*
X143962855Y-117247200D01*
X143962855Y-117247200D02*
X144010474Y-117199580D01*
X144010474Y-117199580D02*
X144058093Y-117104342D01*
X144058093Y-117104342D02*
X144058093Y-116818628D01*
X144058093Y-116818628D02*
X144010474Y-116723390D01*
X144010474Y-116723390D02*
X143962855Y-116675771D01*
X143962855Y-116675771D02*
X143867617Y-116628152D01*
X143867617Y-116628152D02*
X143677141Y-116628152D01*
X143677141Y-116628152D02*
X143581903Y-116675771D01*
X142724760Y-117247200D02*
X142819998Y-117294819D01*
X142819998Y-117294819D02*
X143010474Y-117294819D01*
X143010474Y-117294819D02*
X143105712Y-117247200D01*
X143105712Y-117247200D02*
X143153331Y-117151961D01*
X143153331Y-117151961D02*
X143153331Y-116771009D01*
X143153331Y-116771009D02*
X143105712Y-116675771D01*
X143105712Y-116675771D02*
X143010474Y-116628152D01*
X143010474Y-116628152D02*
X142819998Y-116628152D01*
X142819998Y-116628152D02*
X142724760Y-116675771D01*
X142724760Y-116675771D02*
X142677141Y-116771009D01*
X142677141Y-116771009D02*
X142677141Y-116866247D01*
X142677141Y-116866247D02*
X143153331Y-116961485D01*
X142248569Y-117294819D02*
X142248569Y-116628152D01*
X142248569Y-116818628D02*
X142200950Y-116723390D01*
X142200950Y-116723390D02*
X142153331Y-116675771D01*
X142153331Y-116675771D02*
X142058093Y-116628152D01*
X142058093Y-116628152D02*
X141962855Y-116628152D01*
X141105712Y-117294819D02*
X141677140Y-117294819D01*
X141391426Y-117294819D02*
X141391426Y-116294819D01*
X141391426Y-116294819D02*
X141486664Y-116437676D01*
X141486664Y-116437676D02*
X141581902Y-116532914D01*
X141581902Y-116532914D02*
X141677140Y-116580533D01*
X135901407Y-124527982D02*
X135853788Y-124385125D01*
X135853788Y-124385125D02*
X135806169Y-124337506D01*
X135806169Y-124337506D02*
X135710931Y-124289887D01*
X135710931Y-124289887D02*
X135568074Y-124289887D01*
X135568074Y-124289887D02*
X135472836Y-124337506D01*
X135472836Y-124337506D02*
X135425217Y-124385125D01*
X135425217Y-124385125D02*
X135377597Y-124480363D01*
X135377597Y-124480363D02*
X135377597Y-124861315D01*
X135377597Y-124861315D02*
X136377597Y-124861315D01*
X136377597Y-124861315D02*
X136377597Y-124527982D01*
X136377597Y-124527982D02*
X136329978Y-124432744D01*
X136329978Y-124432744D02*
X136282359Y-124385125D01*
X136282359Y-124385125D02*
X136187121Y-124337506D01*
X136187121Y-124337506D02*
X136091883Y-124337506D01*
X136091883Y-124337506D02*
X135996645Y-124385125D01*
X135996645Y-124385125D02*
X135949026Y-124432744D01*
X135949026Y-124432744D02*
X135901407Y-124527982D01*
X135901407Y-124527982D02*
X135901407Y-124861315D01*
X135663312Y-123908934D02*
X135663312Y-123432744D01*
X135377597Y-124004172D02*
X136377597Y-123670839D01*
X136377597Y-123670839D02*
X135377597Y-123337506D01*
X136377597Y-123147029D02*
X136377597Y-122575601D01*
X135377597Y-122861315D02*
X136377597Y-122861315D01*
X135758550Y-122242267D02*
X135758550Y-121480363D01*
X147850660Y-136975590D02*
X148850660Y-136975590D01*
X147850660Y-136499400D02*
X148850660Y-136499400D01*
X148850660Y-136499400D02*
X147850660Y-135927972D01*
X147850660Y-135927972D02*
X148850660Y-135927972D01*
X148231613Y-135451781D02*
X148231613Y-134689877D01*
X147850660Y-135070829D02*
X148612565Y-135070829D01*
X162861180Y-136966077D02*
X161861180Y-136632744D01*
X161861180Y-136632744D02*
X162861180Y-136299411D01*
X162861180Y-135775601D02*
X162861180Y-135585125D01*
X162861180Y-135585125D02*
X162813561Y-135489887D01*
X162813561Y-135489887D02*
X162718323Y-135394649D01*
X162718323Y-135394649D02*
X162527847Y-135347030D01*
X162527847Y-135347030D02*
X162194514Y-135347030D01*
X162194514Y-135347030D02*
X162004038Y-135394649D01*
X162004038Y-135394649D02*
X161908800Y-135489887D01*
X161908800Y-135489887D02*
X161861180Y-135585125D01*
X161861180Y-135585125D02*
X161861180Y-135775601D01*
X161861180Y-135775601D02*
X161908800Y-135870839D01*
X161908800Y-135870839D02*
X162004038Y-135966077D01*
X162004038Y-135966077D02*
X162194514Y-136013696D01*
X162194514Y-136013696D02*
X162527847Y-136013696D01*
X162527847Y-136013696D02*
X162718323Y-135966077D01*
X162718323Y-135966077D02*
X162813561Y-135870839D01*
X162813561Y-135870839D02*
X162861180Y-135775601D01*
X162861180Y-134918458D02*
X162051657Y-134918458D01*
X162051657Y-134918458D02*
X161956419Y-134870839D01*
X161956419Y-134870839D02*
X161908800Y-134823220D01*
X161908800Y-134823220D02*
X161861180Y-134727982D01*
X161861180Y-134727982D02*
X161861180Y-134537506D01*
X161861180Y-134537506D02*
X161908800Y-134442268D01*
X161908800Y-134442268D02*
X161956419Y-134394649D01*
X161956419Y-134394649D02*
X162051657Y-134347030D01*
X162051657Y-134347030D02*
X162861180Y-134347030D01*
X162861180Y-134013696D02*
X162861180Y-133442268D01*
X161861180Y-133727982D02*
X162861180Y-133727982D01*
X162242133Y-133108934D02*
X162242133Y-132347030D01*
X161861180Y-132727982D02*
X162623085Y-132727982D01*
X155241180Y-136966077D02*
X154241180Y-136632744D01*
X154241180Y-136632744D02*
X155241180Y-136299411D01*
X155241180Y-135775601D02*
X155241180Y-135585125D01*
X155241180Y-135585125D02*
X155193561Y-135489887D01*
X155193561Y-135489887D02*
X155098323Y-135394649D01*
X155098323Y-135394649D02*
X154907847Y-135347030D01*
X154907847Y-135347030D02*
X154574514Y-135347030D01*
X154574514Y-135347030D02*
X154384038Y-135394649D01*
X154384038Y-135394649D02*
X154288800Y-135489887D01*
X154288800Y-135489887D02*
X154241180Y-135585125D01*
X154241180Y-135585125D02*
X154241180Y-135775601D01*
X154241180Y-135775601D02*
X154288800Y-135870839D01*
X154288800Y-135870839D02*
X154384038Y-135966077D01*
X154384038Y-135966077D02*
X154574514Y-136013696D01*
X154574514Y-136013696D02*
X154907847Y-136013696D01*
X154907847Y-136013696D02*
X155098323Y-135966077D01*
X155098323Y-135966077D02*
X155193561Y-135870839D01*
X155193561Y-135870839D02*
X155241180Y-135775601D01*
X155241180Y-134918458D02*
X154431657Y-134918458D01*
X154431657Y-134918458D02*
X154336419Y-134870839D01*
X154336419Y-134870839D02*
X154288800Y-134823220D01*
X154288800Y-134823220D02*
X154241180Y-134727982D01*
X154241180Y-134727982D02*
X154241180Y-134537506D01*
X154241180Y-134537506D02*
X154288800Y-134442268D01*
X154288800Y-134442268D02*
X154336419Y-134394649D01*
X154336419Y-134394649D02*
X154431657Y-134347030D01*
X154431657Y-134347030D02*
X155241180Y-134347030D01*
X155241180Y-134013696D02*
X155241180Y-133442268D01*
X154241180Y-133727982D02*
X155241180Y-133727982D01*
X154622133Y-133108934D02*
X154622133Y-132347030D01*
X145602678Y-124758965D02*
X145555059Y-124616108D01*
X145555059Y-124616108D02*
X145507440Y-124568489D01*
X145507440Y-124568489D02*
X145412202Y-124520870D01*
X145412202Y-124520870D02*
X145269345Y-124520870D01*
X145269345Y-124520870D02*
X145174107Y-124568489D01*
X145174107Y-124568489D02*
X145126488Y-124616108D01*
X145126488Y-124616108D02*
X145078868Y-124711346D01*
X145078868Y-124711346D02*
X145078868Y-125092298D01*
X145078868Y-125092298D02*
X146078868Y-125092298D01*
X146078868Y-125092298D02*
X146078868Y-124758965D01*
X146078868Y-124758965D02*
X146031249Y-124663727D01*
X146031249Y-124663727D02*
X145983630Y-124616108D01*
X145983630Y-124616108D02*
X145888392Y-124568489D01*
X145888392Y-124568489D02*
X145793154Y-124568489D01*
X145793154Y-124568489D02*
X145697916Y-124616108D01*
X145697916Y-124616108D02*
X145650297Y-124663727D01*
X145650297Y-124663727D02*
X145602678Y-124758965D01*
X145602678Y-124758965D02*
X145602678Y-125092298D01*
X145364583Y-124139917D02*
X145364583Y-123663727D01*
X145078868Y-124235155D02*
X146078868Y-123901822D01*
X146078868Y-123901822D02*
X145078868Y-123568489D01*
X146078868Y-123378012D02*
X146078868Y-122806584D01*
X145078868Y-123092298D02*
X146078868Y-123092298D01*
X145459821Y-122473250D02*
X145459821Y-121711346D01*
X145078868Y-122092298D02*
X145840773Y-122092298D01*
X132605805Y-136898596D02*
X133605805Y-136898596D01*
X132605805Y-136422406D02*
X133605805Y-136422406D01*
X133605805Y-136422406D02*
X132605805Y-135850978D01*
X132605805Y-135850978D02*
X133605805Y-135850978D01*
X132986758Y-135374787D02*
X132986758Y-134612883D01*
D11*
X158789879Y-111881308D02*
X158789879Y-112595593D01*
X158789879Y-112595593D02*
X158837498Y-112738450D01*
X158837498Y-112738450D02*
X158932736Y-112833689D01*
X158932736Y-112833689D02*
X159075593Y-112881308D01*
X159075593Y-112881308D02*
X159170831Y-112881308D01*
X158361307Y-112833689D02*
X158218450Y-112881308D01*
X158218450Y-112881308D02*
X157980355Y-112881308D01*
X157980355Y-112881308D02*
X157885117Y-112833689D01*
X157885117Y-112833689D02*
X157837498Y-112786069D01*
X157837498Y-112786069D02*
X157789879Y-112690831D01*
X157789879Y-112690831D02*
X157789879Y-112595593D01*
X157789879Y-112595593D02*
X157837498Y-112500355D01*
X157837498Y-112500355D02*
X157885117Y-112452736D01*
X157885117Y-112452736D02*
X157980355Y-112405117D01*
X157980355Y-112405117D02*
X158170831Y-112357498D01*
X158170831Y-112357498D02*
X158266069Y-112309879D01*
X158266069Y-112309879D02*
X158313688Y-112262260D01*
X158313688Y-112262260D02*
X158361307Y-112167022D01*
X158361307Y-112167022D02*
X158361307Y-112071784D01*
X158361307Y-112071784D02*
X158313688Y-111976546D01*
X158313688Y-111976546D02*
X158266069Y-111928927D01*
X158266069Y-111928927D02*
X158170831Y-111881308D01*
X158170831Y-111881308D02*
X157932736Y-111881308D01*
X157932736Y-111881308D02*
X157789879Y-111928927D01*
X157504164Y-111881308D02*
X156932736Y-111881308D01*
X157218450Y-112881308D02*
X157218450Y-111881308D01*
X156837498Y-112976546D02*
X156075593Y-112976546D01*
X155266069Y-112786069D02*
X155313688Y-112833689D01*
X155313688Y-112833689D02*
X155456545Y-112881308D01*
X155456545Y-112881308D02*
X155551783Y-112881308D01*
X155551783Y-112881308D02*
X155694640Y-112833689D01*
X155694640Y-112833689D02*
X155789878Y-112738450D01*
X155789878Y-112738450D02*
X155837497Y-112643212D01*
X155837497Y-112643212D02*
X155885116Y-112452736D01*
X155885116Y-112452736D02*
X155885116Y-112309879D01*
X155885116Y-112309879D02*
X155837497Y-112119403D01*
X155837497Y-112119403D02*
X155789878Y-112024165D01*
X155789878Y-112024165D02*
X155694640Y-111928927D01*
X155694640Y-111928927D02*
X155551783Y-111881308D01*
X155551783Y-111881308D02*
X155456545Y-111881308D01*
X155456545Y-111881308D02*
X155313688Y-111928927D01*
X155313688Y-111928927D02*
X155266069Y-111976546D01*
X154694640Y-112881308D02*
X154789878Y-112833689D01*
X154789878Y-112833689D02*
X154837497Y-112786069D01*
X154837497Y-112786069D02*
X154885116Y-112690831D01*
X154885116Y-112690831D02*
X154885116Y-112405117D01*
X154885116Y-112405117D02*
X154837497Y-112309879D01*
X154837497Y-112309879D02*
X154789878Y-112262260D01*
X154789878Y-112262260D02*
X154694640Y-112214641D01*
X154694640Y-112214641D02*
X154551783Y-112214641D01*
X154551783Y-112214641D02*
X154456545Y-112262260D01*
X154456545Y-112262260D02*
X154408926Y-112309879D01*
X154408926Y-112309879D02*
X154361307Y-112405117D01*
X154361307Y-112405117D02*
X154361307Y-112690831D01*
X154361307Y-112690831D02*
X154408926Y-112786069D01*
X154408926Y-112786069D02*
X154456545Y-112833689D01*
X154456545Y-112833689D02*
X154551783Y-112881308D01*
X154551783Y-112881308D02*
X154694640Y-112881308D01*
X153932735Y-112214641D02*
X153932735Y-112881308D01*
X153932735Y-112309879D02*
X153885116Y-112262260D01*
X153885116Y-112262260D02*
X153789878Y-112214641D01*
X153789878Y-112214641D02*
X153647021Y-112214641D01*
X153647021Y-112214641D02*
X153551783Y-112262260D01*
X153551783Y-112262260D02*
X153504164Y-112357498D01*
X153504164Y-112357498D02*
X153504164Y-112881308D01*
X153027973Y-112214641D02*
X153027973Y-112881308D01*
X153027973Y-112309879D02*
X152980354Y-112262260D01*
X152980354Y-112262260D02*
X152885116Y-112214641D01*
X152885116Y-112214641D02*
X152742259Y-112214641D01*
X152742259Y-112214641D02*
X152647021Y-112262260D01*
X152647021Y-112262260D02*
X152599402Y-112357498D01*
X152599402Y-112357498D02*
X152599402Y-112881308D01*
X151742259Y-112833689D02*
X151837497Y-112881308D01*
X151837497Y-112881308D02*
X152027973Y-112881308D01*
X152027973Y-112881308D02*
X152123211Y-112833689D01*
X152123211Y-112833689D02*
X152170830Y-112738450D01*
X152170830Y-112738450D02*
X152170830Y-112357498D01*
X152170830Y-112357498D02*
X152123211Y-112262260D01*
X152123211Y-112262260D02*
X152027973Y-112214641D01*
X152027973Y-112214641D02*
X151837497Y-112214641D01*
X151837497Y-112214641D02*
X151742259Y-112262260D01*
X151742259Y-112262260D02*
X151694640Y-112357498D01*
X151694640Y-112357498D02*
X151694640Y-112452736D01*
X151694640Y-112452736D02*
X152170830Y-112547974D01*
X150837497Y-112833689D02*
X150932735Y-112881308D01*
X150932735Y-112881308D02*
X151123211Y-112881308D01*
X151123211Y-112881308D02*
X151218449Y-112833689D01*
X151218449Y-112833689D02*
X151266068Y-112786069D01*
X151266068Y-112786069D02*
X151313687Y-112690831D01*
X151313687Y-112690831D02*
X151313687Y-112405117D01*
X151313687Y-112405117D02*
X151266068Y-112309879D01*
X151266068Y-112309879D02*
X151218449Y-112262260D01*
X151218449Y-112262260D02*
X151123211Y-112214641D01*
X151123211Y-112214641D02*
X150932735Y-112214641D01*
X150932735Y-112214641D02*
X150837497Y-112262260D01*
X150551782Y-112214641D02*
X150170830Y-112214641D01*
X150408925Y-111881308D02*
X150408925Y-112738450D01*
X150408925Y-112738450D02*
X150361306Y-112833689D01*
X150361306Y-112833689D02*
X150266068Y-112881308D01*
X150266068Y-112881308D02*
X150170830Y-112881308D01*
X149694639Y-112881308D02*
X149789877Y-112833689D01*
X149789877Y-112833689D02*
X149837496Y-112786069D01*
X149837496Y-112786069D02*
X149885115Y-112690831D01*
X149885115Y-112690831D02*
X149885115Y-112405117D01*
X149885115Y-112405117D02*
X149837496Y-112309879D01*
X149837496Y-112309879D02*
X149789877Y-112262260D01*
X149789877Y-112262260D02*
X149694639Y-112214641D01*
X149694639Y-112214641D02*
X149551782Y-112214641D01*
X149551782Y-112214641D02*
X149456544Y-112262260D01*
X149456544Y-112262260D02*
X149408925Y-112309879D01*
X149408925Y-112309879D02*
X149361306Y-112405117D01*
X149361306Y-112405117D02*
X149361306Y-112690831D01*
X149361306Y-112690831D02*
X149408925Y-112786069D01*
X149408925Y-112786069D02*
X149456544Y-112833689D01*
X149456544Y-112833689D02*
X149551782Y-112881308D01*
X149551782Y-112881308D02*
X149694639Y-112881308D01*
X148932734Y-112881308D02*
X148932734Y-112214641D01*
X148932734Y-112405117D02*
X148885115Y-112309879D01*
X148885115Y-112309879D02*
X148837496Y-112262260D01*
X148837496Y-112262260D02*
X148742258Y-112214641D01*
X148742258Y-112214641D02*
X148647020Y-112214641D01*
X147789877Y-112881308D02*
X148361305Y-112881308D01*
X148075591Y-112881308D02*
X148075591Y-111881308D01*
X148075591Y-111881308D02*
X148170829Y-112024165D01*
X148170829Y-112024165D02*
X148266067Y-112119403D01*
X148266067Y-112119403D02*
X148361305Y-112167022D01*
D10*
X188714910Y-106023580D02*
X188762529Y-106071200D01*
X188762529Y-106071200D02*
X188905386Y-106118819D01*
X188905386Y-106118819D02*
X189000624Y-106118819D01*
X189000624Y-106118819D02*
X189143481Y-106071200D01*
X189143481Y-106071200D02*
X189238719Y-105975961D01*
X189238719Y-105975961D02*
X189286338Y-105880723D01*
X189286338Y-105880723D02*
X189333957Y-105690247D01*
X189333957Y-105690247D02*
X189333957Y-105547390D01*
X189333957Y-105547390D02*
X189286338Y-105356914D01*
X189286338Y-105356914D02*
X189238719Y-105261676D01*
X189238719Y-105261676D02*
X189143481Y-105166438D01*
X189143481Y-105166438D02*
X189000624Y-105118819D01*
X189000624Y-105118819D02*
X188905386Y-105118819D01*
X188905386Y-105118819D02*
X188762529Y-105166438D01*
X188762529Y-105166438D02*
X188714910Y-105214057D01*
X188333957Y-105214057D02*
X188286338Y-105166438D01*
X188286338Y-105166438D02*
X188191100Y-105118819D01*
X188191100Y-105118819D02*
X187953005Y-105118819D01*
X187953005Y-105118819D02*
X187857767Y-105166438D01*
X187857767Y-105166438D02*
X187810148Y-105214057D01*
X187810148Y-105214057D02*
X187762529Y-105309295D01*
X187762529Y-105309295D02*
X187762529Y-105404533D01*
X187762529Y-105404533D02*
X187810148Y-105547390D01*
X187810148Y-105547390D02*
X188381576Y-106118819D01*
X188381576Y-106118819D02*
X187762529Y-106118819D01*
X189878177Y-107866803D02*
X190449605Y-107866803D01*
X190163891Y-107866803D02*
X190163891Y-106866803D01*
X190163891Y-106866803D02*
X190259129Y-107009660D01*
X190259129Y-107009660D02*
X190354367Y-107104898D01*
X190354367Y-107104898D02*
X190449605Y-107152517D01*
X189259129Y-106866803D02*
X189163891Y-106866803D01*
X189163891Y-106866803D02*
X189068653Y-106914422D01*
X189068653Y-106914422D02*
X189021034Y-106962041D01*
X189021034Y-106962041D02*
X188973415Y-107057279D01*
X188973415Y-107057279D02*
X188925796Y-107247755D01*
X188925796Y-107247755D02*
X188925796Y-107485850D01*
X188925796Y-107485850D02*
X188973415Y-107676326D01*
X188973415Y-107676326D02*
X189021034Y-107771564D01*
X189021034Y-107771564D02*
X189068653Y-107819184D01*
X189068653Y-107819184D02*
X189163891Y-107866803D01*
X189163891Y-107866803D02*
X189259129Y-107866803D01*
X189259129Y-107866803D02*
X189354367Y-107819184D01*
X189354367Y-107819184D02*
X189401986Y-107771564D01*
X189401986Y-107771564D02*
X189449605Y-107676326D01*
X189449605Y-107676326D02*
X189497224Y-107485850D01*
X189497224Y-107485850D02*
X189497224Y-107247755D01*
X189497224Y-107247755D02*
X189449605Y-107057279D01*
X189449605Y-107057279D02*
X189401986Y-106962041D01*
X189401986Y-106962041D02*
X189354367Y-106914422D01*
X189354367Y-106914422D02*
X189259129Y-106866803D01*
X188068653Y-107200136D02*
X188068653Y-107866803D01*
X188497224Y-107200136D02*
X188497224Y-107723945D01*
X188497224Y-107723945D02*
X188449605Y-107819184D01*
X188449605Y-107819184D02*
X188354367Y-107866803D01*
X188354367Y-107866803D02*
X188211510Y-107866803D01*
X188211510Y-107866803D02*
X188116272Y-107819184D01*
X188116272Y-107819184D02*
X188068653Y-107771564D01*
X187735319Y-107200136D02*
X187354367Y-107200136D01*
X187592462Y-107866803D02*
X187592462Y-107009660D01*
X187592462Y-107009660D02*
X187544843Y-106914422D01*
X187544843Y-106914422D02*
X187449605Y-106866803D01*
X187449605Y-106866803D02*
X187354367Y-106866803D01*
X188655108Y-100319167D02*
X188702727Y-100366787D01*
X188702727Y-100366787D02*
X188845584Y-100414406D01*
X188845584Y-100414406D02*
X188940822Y-100414406D01*
X188940822Y-100414406D02*
X189083679Y-100366787D01*
X189083679Y-100366787D02*
X189178917Y-100271548D01*
X189178917Y-100271548D02*
X189226536Y-100176310D01*
X189226536Y-100176310D02*
X189274155Y-99985834D01*
X189274155Y-99985834D02*
X189274155Y-99842977D01*
X189274155Y-99842977D02*
X189226536Y-99652501D01*
X189226536Y-99652501D02*
X189178917Y-99557263D01*
X189178917Y-99557263D02*
X189083679Y-99462025D01*
X189083679Y-99462025D02*
X188940822Y-99414406D01*
X188940822Y-99414406D02*
X188845584Y-99414406D01*
X188845584Y-99414406D02*
X188702727Y-99462025D01*
X188702727Y-99462025D02*
X188655108Y-99509644D01*
X187702727Y-100414406D02*
X188274155Y-100414406D01*
X187988441Y-100414406D02*
X187988441Y-99414406D01*
X187988441Y-99414406D02*
X188083679Y-99557263D01*
X188083679Y-99557263D02*
X188178917Y-99652501D01*
X188178917Y-99652501D02*
X188274155Y-99700120D01*
X189839966Y-102105498D02*
X190411394Y-102105498D01*
X190125680Y-102105498D02*
X190125680Y-101105498D01*
X190125680Y-101105498D02*
X190220918Y-101248355D01*
X190220918Y-101248355D02*
X190316156Y-101343593D01*
X190316156Y-101343593D02*
X190411394Y-101391212D01*
X189220918Y-101105498D02*
X189125680Y-101105498D01*
X189125680Y-101105498D02*
X189030442Y-101153117D01*
X189030442Y-101153117D02*
X188982823Y-101200736D01*
X188982823Y-101200736D02*
X188935204Y-101295974D01*
X188935204Y-101295974D02*
X188887585Y-101486450D01*
X188887585Y-101486450D02*
X188887585Y-101724545D01*
X188887585Y-101724545D02*
X188935204Y-101915021D01*
X188935204Y-101915021D02*
X188982823Y-102010259D01*
X188982823Y-102010259D02*
X189030442Y-102057879D01*
X189030442Y-102057879D02*
X189125680Y-102105498D01*
X189125680Y-102105498D02*
X189220918Y-102105498D01*
X189220918Y-102105498D02*
X189316156Y-102057879D01*
X189316156Y-102057879D02*
X189363775Y-102010259D01*
X189363775Y-102010259D02*
X189411394Y-101915021D01*
X189411394Y-101915021D02*
X189459013Y-101724545D01*
X189459013Y-101724545D02*
X189459013Y-101486450D01*
X189459013Y-101486450D02*
X189411394Y-101295974D01*
X189411394Y-101295974D02*
X189363775Y-101200736D01*
X189363775Y-101200736D02*
X189316156Y-101153117D01*
X189316156Y-101153117D02*
X189220918Y-101105498D01*
X188030442Y-101438831D02*
X188030442Y-102105498D01*
X188459013Y-101438831D02*
X188459013Y-101962640D01*
X188459013Y-101962640D02*
X188411394Y-102057879D01*
X188411394Y-102057879D02*
X188316156Y-102105498D01*
X188316156Y-102105498D02*
X188173299Y-102105498D01*
X188173299Y-102105498D02*
X188078061Y-102057879D01*
X188078061Y-102057879D02*
X188030442Y-102010259D01*
X187697108Y-101438831D02*
X187316156Y-101438831D01*
X187554251Y-102105498D02*
X187554251Y-101248355D01*
X187554251Y-101248355D02*
X187506632Y-101153117D01*
X187506632Y-101153117D02*
X187411394Y-101105498D01*
X187411394Y-101105498D02*
X187316156Y-101105498D01*
X181810285Y-109182819D02*
X181191238Y-109182819D01*
X181191238Y-109182819D02*
X181524571Y-109563771D01*
X181524571Y-109563771D02*
X181381714Y-109563771D01*
X181381714Y-109563771D02*
X181286476Y-109611390D01*
X181286476Y-109611390D02*
X181238857Y-109659009D01*
X181238857Y-109659009D02*
X181191238Y-109754247D01*
X181191238Y-109754247D02*
X181191238Y-109992342D01*
X181191238Y-109992342D02*
X181238857Y-110087580D01*
X181238857Y-110087580D02*
X181286476Y-110135200D01*
X181286476Y-110135200D02*
X181381714Y-110182819D01*
X181381714Y-110182819D02*
X181667428Y-110182819D01*
X181667428Y-110182819D02*
X181762666Y-110135200D01*
X181762666Y-110135200D02*
X181810285Y-110087580D01*
X180762666Y-110087580D02*
X180715047Y-110135200D01*
X180715047Y-110135200D02*
X180762666Y-110182819D01*
X180762666Y-110182819D02*
X180810285Y-110135200D01*
X180810285Y-110135200D02*
X180762666Y-110087580D01*
X180762666Y-110087580D02*
X180762666Y-110182819D01*
X180381714Y-109182819D02*
X179762667Y-109182819D01*
X179762667Y-109182819D02*
X180096000Y-109563771D01*
X180096000Y-109563771D02*
X179953143Y-109563771D01*
X179953143Y-109563771D02*
X179857905Y-109611390D01*
X179857905Y-109611390D02*
X179810286Y-109659009D01*
X179810286Y-109659009D02*
X179762667Y-109754247D01*
X179762667Y-109754247D02*
X179762667Y-109992342D01*
X179762667Y-109992342D02*
X179810286Y-110087580D01*
X179810286Y-110087580D02*
X179857905Y-110135200D01*
X179857905Y-110135200D02*
X179953143Y-110182819D01*
X179953143Y-110182819D02*
X180238857Y-110182819D01*
X180238857Y-110182819D02*
X180334095Y-110135200D01*
X180334095Y-110135200D02*
X180381714Y-110087580D01*
X179476952Y-109182819D02*
X179143619Y-110182819D01*
X179143619Y-110182819D02*
X178810286Y-109182819D01*
X178715048Y-110278057D02*
X177953143Y-110278057D01*
X177143619Y-110182819D02*
X177476952Y-109706628D01*
X177715047Y-110182819D02*
X177715047Y-109182819D01*
X177715047Y-109182819D02*
X177334095Y-109182819D01*
X177334095Y-109182819D02*
X177238857Y-109230438D01*
X177238857Y-109230438D02*
X177191238Y-109278057D01*
X177191238Y-109278057D02*
X177143619Y-109373295D01*
X177143619Y-109373295D02*
X177143619Y-109516152D01*
X177143619Y-109516152D02*
X177191238Y-109611390D01*
X177191238Y-109611390D02*
X177238857Y-109659009D01*
X177238857Y-109659009D02*
X177334095Y-109706628D01*
X177334095Y-109706628D02*
X177715047Y-109706628D01*
X176334095Y-110135200D02*
X176429333Y-110182819D01*
X176429333Y-110182819D02*
X176619809Y-110182819D01*
X176619809Y-110182819D02*
X176715047Y-110135200D01*
X176715047Y-110135200D02*
X176762666Y-110039961D01*
X176762666Y-110039961D02*
X176762666Y-109659009D01*
X176762666Y-109659009D02*
X176715047Y-109563771D01*
X176715047Y-109563771D02*
X176619809Y-109516152D01*
X176619809Y-109516152D02*
X176429333Y-109516152D01*
X176429333Y-109516152D02*
X176334095Y-109563771D01*
X176334095Y-109563771D02*
X176286476Y-109659009D01*
X176286476Y-109659009D02*
X176286476Y-109754247D01*
X176286476Y-109754247D02*
X176762666Y-109849485D01*
X175429333Y-109516152D02*
X175429333Y-110325676D01*
X175429333Y-110325676D02*
X175476952Y-110420914D01*
X175476952Y-110420914D02*
X175524571Y-110468533D01*
X175524571Y-110468533D02*
X175619809Y-110516152D01*
X175619809Y-110516152D02*
X175762666Y-110516152D01*
X175762666Y-110516152D02*
X175857904Y-110468533D01*
X175429333Y-110135200D02*
X175524571Y-110182819D01*
X175524571Y-110182819D02*
X175715047Y-110182819D01*
X175715047Y-110182819D02*
X175810285Y-110135200D01*
X175810285Y-110135200D02*
X175857904Y-110087580D01*
X175857904Y-110087580D02*
X175905523Y-109992342D01*
X175905523Y-109992342D02*
X175905523Y-109706628D01*
X175905523Y-109706628D02*
X175857904Y-109611390D01*
X175857904Y-109611390D02*
X175810285Y-109563771D01*
X175810285Y-109563771D02*
X175715047Y-109516152D01*
X175715047Y-109516152D02*
X175524571Y-109516152D01*
X175524571Y-109516152D02*
X175429333Y-109563771D01*
X174429333Y-110182819D02*
X175000761Y-110182819D01*
X174715047Y-110182819D02*
X174715047Y-109182819D01*
X174715047Y-109182819D02*
X174810285Y-109325676D01*
X174810285Y-109325676D02*
X174905523Y-109420914D01*
X174905523Y-109420914D02*
X175000761Y-109468533D01*
X126322895Y-135524000D02*
X126322895Y-135047810D01*
X126037180Y-135619238D02*
X127037180Y-135285905D01*
X127037180Y-135285905D02*
X126037180Y-134952572D01*
X126037180Y-134619238D02*
X126703847Y-134619238D01*
X126513371Y-134619238D02*
X126608609Y-134571619D01*
X126608609Y-134571619D02*
X126656228Y-134524000D01*
X126656228Y-134524000D02*
X126703847Y-134428762D01*
X126703847Y-134428762D02*
X126703847Y-134333524D01*
X126037180Y-133571619D02*
X127037180Y-133571619D01*
X126084800Y-133571619D02*
X126037180Y-133666857D01*
X126037180Y-133666857D02*
X126037180Y-133857333D01*
X126037180Y-133857333D02*
X126084800Y-133952571D01*
X126084800Y-133952571D02*
X126132419Y-134000190D01*
X126132419Y-134000190D02*
X126227657Y-134047809D01*
X126227657Y-134047809D02*
X126513371Y-134047809D01*
X126513371Y-134047809D02*
X126608609Y-134000190D01*
X126608609Y-134000190D02*
X126656228Y-133952571D01*
X126656228Y-133952571D02*
X126703847Y-133857333D01*
X126703847Y-133857333D02*
X126703847Y-133666857D01*
X126703847Y-133666857D02*
X126656228Y-133571619D01*
X126703847Y-132666857D02*
X126037180Y-132666857D01*
X126703847Y-133095428D02*
X126180038Y-133095428D01*
X126180038Y-133095428D02*
X126084800Y-133047809D01*
X126084800Y-133047809D02*
X126037180Y-132952571D01*
X126037180Y-132952571D02*
X126037180Y-132809714D01*
X126037180Y-132809714D02*
X126084800Y-132714476D01*
X126084800Y-132714476D02*
X126132419Y-132666857D01*
X126037180Y-132190666D02*
X126703847Y-132190666D01*
X127037180Y-132190666D02*
X126989561Y-132238285D01*
X126989561Y-132238285D02*
X126941942Y-132190666D01*
X126941942Y-132190666D02*
X126989561Y-132143047D01*
X126989561Y-132143047D02*
X127037180Y-132190666D01*
X127037180Y-132190666D02*
X126941942Y-132190666D01*
X126703847Y-131714476D02*
X126037180Y-131714476D01*
X126608609Y-131714476D02*
X126656228Y-131666857D01*
X126656228Y-131666857D02*
X126703847Y-131571619D01*
X126703847Y-131571619D02*
X126703847Y-131428762D01*
X126703847Y-131428762D02*
X126656228Y-131333524D01*
X126656228Y-131333524D02*
X126560990Y-131285905D01*
X126560990Y-131285905D02*
X126037180Y-131285905D01*
X126037180Y-130666857D02*
X126084800Y-130762095D01*
X126084800Y-130762095D02*
X126132419Y-130809714D01*
X126132419Y-130809714D02*
X126227657Y-130857333D01*
X126227657Y-130857333D02*
X126513371Y-130857333D01*
X126513371Y-130857333D02*
X126608609Y-130809714D01*
X126608609Y-130809714D02*
X126656228Y-130762095D01*
X126656228Y-130762095D02*
X126703847Y-130666857D01*
X126703847Y-130666857D02*
X126703847Y-130524000D01*
X126703847Y-130524000D02*
X126656228Y-130428762D01*
X126656228Y-130428762D02*
X126608609Y-130381143D01*
X126608609Y-130381143D02*
X126513371Y-130333524D01*
X126513371Y-130333524D02*
X126227657Y-130333524D01*
X126227657Y-130333524D02*
X126132419Y-130381143D01*
X126132419Y-130381143D02*
X126084800Y-130428762D01*
X126084800Y-130428762D02*
X126037180Y-130524000D01*
X126037180Y-130524000D02*
X126037180Y-130666857D01*
X125941942Y-130143048D02*
X125941942Y-129381143D01*
X126037180Y-129143047D02*
X127037180Y-129143047D01*
X127037180Y-129143047D02*
X126322895Y-128809714D01*
X126322895Y-128809714D02*
X127037180Y-128476381D01*
X127037180Y-128476381D02*
X126037180Y-128476381D01*
X126084800Y-127619238D02*
X126037180Y-127714476D01*
X126037180Y-127714476D02*
X126037180Y-127904952D01*
X126037180Y-127904952D02*
X126084800Y-128000190D01*
X126084800Y-128000190D02*
X126180038Y-128047809D01*
X126180038Y-128047809D02*
X126560990Y-128047809D01*
X126560990Y-128047809D02*
X126656228Y-128000190D01*
X126656228Y-128000190D02*
X126703847Y-127904952D01*
X126703847Y-127904952D02*
X126703847Y-127714476D01*
X126703847Y-127714476D02*
X126656228Y-127619238D01*
X126656228Y-127619238D02*
X126560990Y-127571619D01*
X126560990Y-127571619D02*
X126465752Y-127571619D01*
X126465752Y-127571619D02*
X126370514Y-128047809D01*
X126703847Y-126714476D02*
X125894323Y-126714476D01*
X125894323Y-126714476D02*
X125799085Y-126762095D01*
X125799085Y-126762095D02*
X125751466Y-126809714D01*
X125751466Y-126809714D02*
X125703847Y-126904952D01*
X125703847Y-126904952D02*
X125703847Y-127047809D01*
X125703847Y-127047809D02*
X125751466Y-127143047D01*
X126084800Y-126714476D02*
X126037180Y-126809714D01*
X126037180Y-126809714D02*
X126037180Y-127000190D01*
X126037180Y-127000190D02*
X126084800Y-127095428D01*
X126084800Y-127095428D02*
X126132419Y-127143047D01*
X126132419Y-127143047D02*
X126227657Y-127190666D01*
X126227657Y-127190666D02*
X126513371Y-127190666D01*
X126513371Y-127190666D02*
X126608609Y-127143047D01*
X126608609Y-127143047D02*
X126656228Y-127095428D01*
X126656228Y-127095428D02*
X126703847Y-127000190D01*
X126703847Y-127000190D02*
X126703847Y-126809714D01*
X126703847Y-126809714D02*
X126656228Y-126714476D01*
X126037180Y-125809714D02*
X126560990Y-125809714D01*
X126560990Y-125809714D02*
X126656228Y-125857333D01*
X126656228Y-125857333D02*
X126703847Y-125952571D01*
X126703847Y-125952571D02*
X126703847Y-126143047D01*
X126703847Y-126143047D02*
X126656228Y-126238285D01*
X126084800Y-125809714D02*
X126037180Y-125904952D01*
X126037180Y-125904952D02*
X126037180Y-126143047D01*
X126037180Y-126143047D02*
X126084800Y-126238285D01*
X126084800Y-126238285D02*
X126180038Y-126285904D01*
X126180038Y-126285904D02*
X126275276Y-126285904D01*
X126275276Y-126285904D02*
X126370514Y-126238285D01*
X126370514Y-126238285D02*
X126418133Y-126143047D01*
X126418133Y-126143047D02*
X126418133Y-125904952D01*
X126418133Y-125904952D02*
X126465752Y-125809714D01*
X125941942Y-125571619D02*
X125941942Y-124809714D01*
X126037180Y-124571618D02*
X127037180Y-124571618D01*
X127037180Y-124571618D02*
X127037180Y-124190666D01*
X127037180Y-124190666D02*
X126989561Y-124095428D01*
X126989561Y-124095428D02*
X126941942Y-124047809D01*
X126941942Y-124047809D02*
X126846704Y-124000190D01*
X126846704Y-124000190D02*
X126703847Y-124000190D01*
X126703847Y-124000190D02*
X126608609Y-124047809D01*
X126608609Y-124047809D02*
X126560990Y-124095428D01*
X126560990Y-124095428D02*
X126513371Y-124190666D01*
X126513371Y-124190666D02*
X126513371Y-124571618D01*
X126037180Y-123571618D02*
X126703847Y-123571618D01*
X126513371Y-123571618D02*
X126608609Y-123523999D01*
X126608609Y-123523999D02*
X126656228Y-123476380D01*
X126656228Y-123476380D02*
X126703847Y-123381142D01*
X126703847Y-123381142D02*
X126703847Y-123285904D01*
X126037180Y-122809713D02*
X126084800Y-122904951D01*
X126084800Y-122904951D02*
X126132419Y-122952570D01*
X126132419Y-122952570D02*
X126227657Y-123000189D01*
X126227657Y-123000189D02*
X126513371Y-123000189D01*
X126513371Y-123000189D02*
X126608609Y-122952570D01*
X126608609Y-122952570D02*
X126656228Y-122904951D01*
X126656228Y-122904951D02*
X126703847Y-122809713D01*
X126703847Y-122809713D02*
X126703847Y-122666856D01*
X126703847Y-122666856D02*
X126656228Y-122571618D01*
X126656228Y-122571618D02*
X126608609Y-122523999D01*
X126608609Y-122523999D02*
X126513371Y-122476380D01*
X126513371Y-122476380D02*
X126227657Y-122476380D01*
X126227657Y-122476380D02*
X126132419Y-122523999D01*
X126132419Y-122523999D02*
X126084800Y-122571618D01*
X126084800Y-122571618D02*
X126037180Y-122666856D01*
X126037180Y-122666856D02*
X126037180Y-122809713D01*
X126037180Y-121523999D02*
X126037180Y-122095427D01*
X126037180Y-121809713D02*
X127037180Y-121809713D01*
X127037180Y-121809713D02*
X126894323Y-121904951D01*
X126894323Y-121904951D02*
X126799085Y-122000189D01*
X126799085Y-122000189D02*
X126751466Y-122095427D01*
X134278666Y-113400819D02*
X134611999Y-112924628D01*
X134850094Y-113400819D02*
X134850094Y-112400819D01*
X134850094Y-112400819D02*
X134469142Y-112400819D01*
X134469142Y-112400819D02*
X134373904Y-112448438D01*
X134373904Y-112448438D02*
X134326285Y-112496057D01*
X134326285Y-112496057D02*
X134278666Y-112591295D01*
X134278666Y-112591295D02*
X134278666Y-112734152D01*
X134278666Y-112734152D02*
X134326285Y-112829390D01*
X134326285Y-112829390D02*
X134373904Y-112877009D01*
X134373904Y-112877009D02*
X134469142Y-112924628D01*
X134469142Y-112924628D02*
X134850094Y-112924628D01*
X133373904Y-112400819D02*
X133850094Y-112400819D01*
X133850094Y-112400819D02*
X133897713Y-112877009D01*
X133897713Y-112877009D02*
X133850094Y-112829390D01*
X133850094Y-112829390D02*
X133754856Y-112781771D01*
X133754856Y-112781771D02*
X133516761Y-112781771D01*
X133516761Y-112781771D02*
X133421523Y-112829390D01*
X133421523Y-112829390D02*
X133373904Y-112877009D01*
X133373904Y-112877009D02*
X133326285Y-112972247D01*
X133326285Y-112972247D02*
X133326285Y-113210342D01*
X133326285Y-113210342D02*
X133373904Y-113305580D01*
X133373904Y-113305580D02*
X133421523Y-113353200D01*
X133421523Y-113353200D02*
X133516761Y-113400819D01*
X133516761Y-113400819D02*
X133754856Y-113400819D01*
X133754856Y-113400819D02*
X133850094Y-113353200D01*
X133850094Y-113353200D02*
X133897713Y-113305580D01*
X130936896Y-113376242D02*
X131508324Y-113376242D01*
X131222610Y-113376242D02*
X131222610Y-112376242D01*
X131222610Y-112376242D02*
X131317848Y-112519099D01*
X131317848Y-112519099D02*
X131413086Y-112614337D01*
X131413086Y-112614337D02*
X131508324Y-112661956D01*
X130317848Y-112376242D02*
X130222610Y-112376242D01*
X130222610Y-112376242D02*
X130127372Y-112423861D01*
X130127372Y-112423861D02*
X130079753Y-112471480D01*
X130079753Y-112471480D02*
X130032134Y-112566718D01*
X130032134Y-112566718D02*
X129984515Y-112757194D01*
X129984515Y-112757194D02*
X129984515Y-112995289D01*
X129984515Y-112995289D02*
X130032134Y-113185765D01*
X130032134Y-113185765D02*
X130079753Y-113281003D01*
X130079753Y-113281003D02*
X130127372Y-113328623D01*
X130127372Y-113328623D02*
X130222610Y-113376242D01*
X130222610Y-113376242D02*
X130317848Y-113376242D01*
X130317848Y-113376242D02*
X130413086Y-113328623D01*
X130413086Y-113328623D02*
X130460705Y-113281003D01*
X130460705Y-113281003D02*
X130508324Y-113185765D01*
X130508324Y-113185765D02*
X130555943Y-112995289D01*
X130555943Y-112995289D02*
X130555943Y-112757194D01*
X130555943Y-112757194D02*
X130508324Y-112566718D01*
X130508324Y-112566718D02*
X130460705Y-112471480D01*
X130460705Y-112471480D02*
X130413086Y-112423861D01*
X130413086Y-112423861D02*
X130317848Y-112376242D01*
X129555943Y-113376242D02*
X129555943Y-112376242D01*
X129460705Y-112995289D02*
X129174991Y-113376242D01*
X129174991Y-112709575D02*
X129555943Y-113090527D01*
X182704001Y-98898249D02*
X182704001Y-97898249D01*
X182704001Y-97898249D02*
X182132573Y-98898249D01*
X182132573Y-98898249D02*
X182132573Y-97898249D01*
X181084954Y-98898249D02*
X181418287Y-98422058D01*
X181656382Y-98898249D02*
X181656382Y-97898249D01*
X181656382Y-97898249D02*
X181275430Y-97898249D01*
X181275430Y-97898249D02*
X181180192Y-97945868D01*
X181180192Y-97945868D02*
X181132573Y-97993487D01*
X181132573Y-97993487D02*
X181084954Y-98088725D01*
X181084954Y-98088725D02*
X181084954Y-98231582D01*
X181084954Y-98231582D02*
X181132573Y-98326820D01*
X181132573Y-98326820D02*
X181180192Y-98374439D01*
X181180192Y-98374439D02*
X181275430Y-98422058D01*
X181275430Y-98422058D02*
X181656382Y-98422058D01*
X180323049Y-98374439D02*
X180656382Y-98374439D01*
X180656382Y-98898249D02*
X180656382Y-97898249D01*
X180656382Y-97898249D02*
X180180192Y-97898249D01*
X179846858Y-97993487D02*
X179799239Y-97945868D01*
X179799239Y-97945868D02*
X179704001Y-97898249D01*
X179704001Y-97898249D02*
X179465906Y-97898249D01*
X179465906Y-97898249D02*
X179370668Y-97945868D01*
X179370668Y-97945868D02*
X179323049Y-97993487D01*
X179323049Y-97993487D02*
X179275430Y-98088725D01*
X179275430Y-98088725D02*
X179275430Y-98183963D01*
X179275430Y-98183963D02*
X179323049Y-98326820D01*
X179323049Y-98326820D02*
X179894477Y-98898249D01*
X179894477Y-98898249D02*
X179275430Y-98898249D01*
X178418287Y-98231582D02*
X178418287Y-98898249D01*
X178656382Y-97850630D02*
X178894477Y-98564915D01*
X178894477Y-98564915D02*
X178275430Y-98564915D01*
X197982561Y-95532411D02*
X198030180Y-95627649D01*
X198030180Y-95627649D02*
X198030180Y-95770506D01*
X198030180Y-95770506D02*
X197982561Y-95913363D01*
X197982561Y-95913363D02*
X197887323Y-96008601D01*
X197887323Y-96008601D02*
X197792085Y-96056220D01*
X197792085Y-96056220D02*
X197601609Y-96103839D01*
X197601609Y-96103839D02*
X197458752Y-96103839D01*
X197458752Y-96103839D02*
X197268276Y-96056220D01*
X197268276Y-96056220D02*
X197173038Y-96008601D01*
X197173038Y-96008601D02*
X197077800Y-95913363D01*
X197077800Y-95913363D02*
X197030180Y-95770506D01*
X197030180Y-95770506D02*
X197030180Y-95675268D01*
X197030180Y-95675268D02*
X197077800Y-95532411D01*
X197077800Y-95532411D02*
X197125419Y-95484792D01*
X197125419Y-95484792D02*
X197458752Y-95484792D01*
X197458752Y-95484792D02*
X197458752Y-95675268D01*
X197030180Y-95056220D02*
X198030180Y-95056220D01*
X198030180Y-95056220D02*
X197030180Y-94484792D01*
X197030180Y-94484792D02*
X198030180Y-94484792D01*
X197030180Y-94008601D02*
X198030180Y-94008601D01*
X198030180Y-94008601D02*
X198030180Y-93770506D01*
X198030180Y-93770506D02*
X197982561Y-93627649D01*
X197982561Y-93627649D02*
X197887323Y-93532411D01*
X197887323Y-93532411D02*
X197792085Y-93484792D01*
X197792085Y-93484792D02*
X197601609Y-93437173D01*
X197601609Y-93437173D02*
X197458752Y-93437173D01*
X197458752Y-93437173D02*
X197268276Y-93484792D01*
X197268276Y-93484792D02*
X197173038Y-93532411D01*
X197173038Y-93532411D02*
X197077800Y-93627649D01*
X197077800Y-93627649D02*
X197030180Y-93770506D01*
X197030180Y-93770506D02*
X197030180Y-94008601D01*
X189410180Y-96056220D02*
X190410180Y-96056220D01*
X190410180Y-96056220D02*
X189695895Y-95722887D01*
X189695895Y-95722887D02*
X190410180Y-95389554D01*
X190410180Y-95389554D02*
X189410180Y-95389554D01*
X189410180Y-94913363D02*
X190410180Y-94913363D01*
X189457800Y-94484792D02*
X189410180Y-94341935D01*
X189410180Y-94341935D02*
X189410180Y-94103840D01*
X189410180Y-94103840D02*
X189457800Y-94008602D01*
X189457800Y-94008602D02*
X189505419Y-93960983D01*
X189505419Y-93960983D02*
X189600657Y-93913364D01*
X189600657Y-93913364D02*
X189695895Y-93913364D01*
X189695895Y-93913364D02*
X189791133Y-93960983D01*
X189791133Y-93960983D02*
X189838752Y-94008602D01*
X189838752Y-94008602D02*
X189886371Y-94103840D01*
X189886371Y-94103840D02*
X189933990Y-94294316D01*
X189933990Y-94294316D02*
X189981609Y-94389554D01*
X189981609Y-94389554D02*
X190029228Y-94437173D01*
X190029228Y-94437173D02*
X190124466Y-94484792D01*
X190124466Y-94484792D02*
X190219704Y-94484792D01*
X190219704Y-94484792D02*
X190314942Y-94437173D01*
X190314942Y-94437173D02*
X190362561Y-94389554D01*
X190362561Y-94389554D02*
X190410180Y-94294316D01*
X190410180Y-94294316D02*
X190410180Y-94056221D01*
X190410180Y-94056221D02*
X190362561Y-93913364D01*
X190410180Y-93294316D02*
X190410180Y-93103840D01*
X190410180Y-93103840D02*
X190362561Y-93008602D01*
X190362561Y-93008602D02*
X190267323Y-92913364D01*
X190267323Y-92913364D02*
X190076847Y-92865745D01*
X190076847Y-92865745D02*
X189743514Y-92865745D01*
X189743514Y-92865745D02*
X189553038Y-92913364D01*
X189553038Y-92913364D02*
X189457800Y-93008602D01*
X189457800Y-93008602D02*
X189410180Y-93103840D01*
X189410180Y-93103840D02*
X189410180Y-93294316D01*
X189410180Y-93294316D02*
X189457800Y-93389554D01*
X189457800Y-93389554D02*
X189553038Y-93484792D01*
X189553038Y-93484792D02*
X189743514Y-93532411D01*
X189743514Y-93532411D02*
X190076847Y-93532411D01*
X190076847Y-93532411D02*
X190267323Y-93484792D01*
X190267323Y-93484792D02*
X190362561Y-93389554D01*
X190362561Y-93389554D02*
X190410180Y-93294316D01*
X189410180Y-91738220D02*
X190410180Y-91738220D01*
X189410180Y-90690602D02*
X189886371Y-91023935D01*
X189410180Y-91262030D02*
X190410180Y-91262030D01*
X190410180Y-91262030D02*
X190410180Y-90881078D01*
X190410180Y-90881078D02*
X190362561Y-90785840D01*
X190362561Y-90785840D02*
X190314942Y-90738221D01*
X190314942Y-90738221D02*
X190219704Y-90690602D01*
X190219704Y-90690602D02*
X190076847Y-90690602D01*
X190076847Y-90690602D02*
X189981609Y-90738221D01*
X189981609Y-90738221D02*
X189933990Y-90785840D01*
X189933990Y-90785840D02*
X189886371Y-90881078D01*
X189886371Y-90881078D02*
X189886371Y-91262030D01*
X189314942Y-89595364D02*
X189362561Y-89690602D01*
X189362561Y-89690602D02*
X189457800Y-89785840D01*
X189457800Y-89785840D02*
X189600657Y-89928697D01*
X189600657Y-89928697D02*
X189648276Y-90023935D01*
X189648276Y-90023935D02*
X189648276Y-90119173D01*
X189410180Y-90071554D02*
X189457800Y-90166792D01*
X189457800Y-90166792D02*
X189553038Y-90262030D01*
X189553038Y-90262030D02*
X189743514Y-90309649D01*
X189743514Y-90309649D02*
X190076847Y-90309649D01*
X190076847Y-90309649D02*
X190267323Y-90262030D01*
X190267323Y-90262030D02*
X190362561Y-90166792D01*
X190362561Y-90166792D02*
X190410180Y-90071554D01*
X190410180Y-90071554D02*
X190410180Y-89881078D01*
X190410180Y-89881078D02*
X190362561Y-89785840D01*
X190362561Y-89785840D02*
X190267323Y-89690602D01*
X190267323Y-89690602D02*
X190076847Y-89642983D01*
X190076847Y-89642983D02*
X189743514Y-89642983D01*
X189743514Y-89642983D02*
X189553038Y-89690602D01*
X189553038Y-89690602D02*
X189457800Y-89785840D01*
X189457800Y-89785840D02*
X189410180Y-89881078D01*
X189410180Y-89881078D02*
X189410180Y-90071554D01*
X191950180Y-91738220D02*
X192950180Y-91738220D01*
X192950180Y-91738220D02*
X192235895Y-91404887D01*
X192235895Y-91404887D02*
X192950180Y-91071554D01*
X192950180Y-91071554D02*
X191950180Y-91071554D01*
X192950180Y-90404887D02*
X192950180Y-90214411D01*
X192950180Y-90214411D02*
X192902561Y-90119173D01*
X192902561Y-90119173D02*
X192807323Y-90023935D01*
X192807323Y-90023935D02*
X192616847Y-89976316D01*
X192616847Y-89976316D02*
X192283514Y-89976316D01*
X192283514Y-89976316D02*
X192093038Y-90023935D01*
X192093038Y-90023935D02*
X191997800Y-90119173D01*
X191997800Y-90119173D02*
X191950180Y-90214411D01*
X191950180Y-90214411D02*
X191950180Y-90404887D01*
X191950180Y-90404887D02*
X191997800Y-90500125D01*
X191997800Y-90500125D02*
X192093038Y-90595363D01*
X192093038Y-90595363D02*
X192283514Y-90642982D01*
X192283514Y-90642982D02*
X192616847Y-90642982D01*
X192616847Y-90642982D02*
X192807323Y-90595363D01*
X192807323Y-90595363D02*
X192902561Y-90500125D01*
X192902561Y-90500125D02*
X192950180Y-90404887D01*
X191997800Y-89595363D02*
X191950180Y-89452506D01*
X191950180Y-89452506D02*
X191950180Y-89214411D01*
X191950180Y-89214411D02*
X191997800Y-89119173D01*
X191997800Y-89119173D02*
X192045419Y-89071554D01*
X192045419Y-89071554D02*
X192140657Y-89023935D01*
X192140657Y-89023935D02*
X192235895Y-89023935D01*
X192235895Y-89023935D02*
X192331133Y-89071554D01*
X192331133Y-89071554D02*
X192378752Y-89119173D01*
X192378752Y-89119173D02*
X192426371Y-89214411D01*
X192426371Y-89214411D02*
X192473990Y-89404887D01*
X192473990Y-89404887D02*
X192521609Y-89500125D01*
X192521609Y-89500125D02*
X192569228Y-89547744D01*
X192569228Y-89547744D02*
X192664466Y-89595363D01*
X192664466Y-89595363D02*
X192759704Y-89595363D01*
X192759704Y-89595363D02*
X192854942Y-89547744D01*
X192854942Y-89547744D02*
X192902561Y-89500125D01*
X192902561Y-89500125D02*
X192950180Y-89404887D01*
X192950180Y-89404887D02*
X192950180Y-89166792D01*
X192950180Y-89166792D02*
X192902561Y-89023935D01*
X191950180Y-88595363D02*
X192950180Y-88595363D01*
X194585419Y-95484792D02*
X194537800Y-95532411D01*
X194537800Y-95532411D02*
X194490180Y-95675268D01*
X194490180Y-95675268D02*
X194490180Y-95770506D01*
X194490180Y-95770506D02*
X194537800Y-95913363D01*
X194537800Y-95913363D02*
X194633038Y-96008601D01*
X194633038Y-96008601D02*
X194728276Y-96056220D01*
X194728276Y-96056220D02*
X194918752Y-96103839D01*
X194918752Y-96103839D02*
X195061609Y-96103839D01*
X195061609Y-96103839D02*
X195252085Y-96056220D01*
X195252085Y-96056220D02*
X195347323Y-96008601D01*
X195347323Y-96008601D02*
X195442561Y-95913363D01*
X195442561Y-95913363D02*
X195490180Y-95770506D01*
X195490180Y-95770506D02*
X195490180Y-95675268D01*
X195490180Y-95675268D02*
X195442561Y-95532411D01*
X195442561Y-95532411D02*
X195394942Y-95484792D01*
X195013990Y-95056220D02*
X195013990Y-94722887D01*
X194490180Y-94580030D02*
X194490180Y-95056220D01*
X194490180Y-95056220D02*
X195490180Y-95056220D01*
X195490180Y-95056220D02*
X195490180Y-94580030D01*
X191997800Y-96103839D02*
X191950180Y-95960982D01*
X191950180Y-95960982D02*
X191950180Y-95722887D01*
X191950180Y-95722887D02*
X191997800Y-95627649D01*
X191997800Y-95627649D02*
X192045419Y-95580030D01*
X192045419Y-95580030D02*
X192140657Y-95532411D01*
X192140657Y-95532411D02*
X192235895Y-95532411D01*
X192235895Y-95532411D02*
X192331133Y-95580030D01*
X192331133Y-95580030D02*
X192378752Y-95627649D01*
X192378752Y-95627649D02*
X192426371Y-95722887D01*
X192426371Y-95722887D02*
X192473990Y-95913363D01*
X192473990Y-95913363D02*
X192521609Y-96008601D01*
X192521609Y-96008601D02*
X192569228Y-96056220D01*
X192569228Y-96056220D02*
X192664466Y-96103839D01*
X192664466Y-96103839D02*
X192759704Y-96103839D01*
X192759704Y-96103839D02*
X192854942Y-96056220D01*
X192854942Y-96056220D02*
X192902561Y-96008601D01*
X192902561Y-96008601D02*
X192950180Y-95913363D01*
X192950180Y-95913363D02*
X192950180Y-95675268D01*
X192950180Y-95675268D02*
X192902561Y-95532411D01*
X192045419Y-94532411D02*
X191997800Y-94580030D01*
X191997800Y-94580030D02*
X191950180Y-94722887D01*
X191950180Y-94722887D02*
X191950180Y-94818125D01*
X191950180Y-94818125D02*
X191997800Y-94960982D01*
X191997800Y-94960982D02*
X192093038Y-95056220D01*
X192093038Y-95056220D02*
X192188276Y-95103839D01*
X192188276Y-95103839D02*
X192378752Y-95151458D01*
X192378752Y-95151458D02*
X192521609Y-95151458D01*
X192521609Y-95151458D02*
X192712085Y-95103839D01*
X192712085Y-95103839D02*
X192807323Y-95056220D01*
X192807323Y-95056220D02*
X192902561Y-94960982D01*
X192902561Y-94960982D02*
X192950180Y-94818125D01*
X192950180Y-94818125D02*
X192950180Y-94722887D01*
X192950180Y-94722887D02*
X192902561Y-94580030D01*
X192902561Y-94580030D02*
X192854942Y-94532411D01*
X191950180Y-94103839D02*
X192950180Y-94103839D01*
X191950180Y-93532411D02*
X192521609Y-93960982D01*
X192950180Y-93532411D02*
X192378752Y-94103839D01*
X198030180Y-91881077D02*
X197030180Y-91547744D01*
X197030180Y-91547744D02*
X198030180Y-91214411D01*
X197411133Y-90881077D02*
X197411133Y-90119173D01*
X197030180Y-90500125D02*
X197792085Y-90500125D01*
X194585419Y-91166792D02*
X194537800Y-91214411D01*
X194537800Y-91214411D02*
X194490180Y-91357268D01*
X194490180Y-91357268D02*
X194490180Y-91452506D01*
X194490180Y-91452506D02*
X194537800Y-91595363D01*
X194537800Y-91595363D02*
X194633038Y-91690601D01*
X194633038Y-91690601D02*
X194728276Y-91738220D01*
X194728276Y-91738220D02*
X194918752Y-91785839D01*
X194918752Y-91785839D02*
X195061609Y-91785839D01*
X195061609Y-91785839D02*
X195252085Y-91738220D01*
X195252085Y-91738220D02*
X195347323Y-91690601D01*
X195347323Y-91690601D02*
X195442561Y-91595363D01*
X195442561Y-91595363D02*
X195490180Y-91452506D01*
X195490180Y-91452506D02*
X195490180Y-91357268D01*
X195490180Y-91357268D02*
X195442561Y-91214411D01*
X195442561Y-91214411D02*
X195394942Y-91166792D01*
X194537800Y-90785839D02*
X194490180Y-90642982D01*
X194490180Y-90642982D02*
X194490180Y-90404887D01*
X194490180Y-90404887D02*
X194537800Y-90309649D01*
X194537800Y-90309649D02*
X194585419Y-90262030D01*
X194585419Y-90262030D02*
X194680657Y-90214411D01*
X194680657Y-90214411D02*
X194775895Y-90214411D01*
X194775895Y-90214411D02*
X194871133Y-90262030D01*
X194871133Y-90262030D02*
X194918752Y-90309649D01*
X194918752Y-90309649D02*
X194966371Y-90404887D01*
X194966371Y-90404887D02*
X195013990Y-90595363D01*
X195013990Y-90595363D02*
X195061609Y-90690601D01*
X195061609Y-90690601D02*
X195109228Y-90738220D01*
X195109228Y-90738220D02*
X195204466Y-90785839D01*
X195204466Y-90785839D02*
X195299704Y-90785839D01*
X195299704Y-90785839D02*
X195394942Y-90738220D01*
X195394942Y-90738220D02*
X195442561Y-90690601D01*
X195442561Y-90690601D02*
X195490180Y-90595363D01*
X195490180Y-90595363D02*
X195490180Y-90357268D01*
X195490180Y-90357268D02*
X195442561Y-90214411D01*
X194490180Y-89785839D02*
X195490180Y-89785839D01*
X195490180Y-89785839D02*
X194490180Y-89214411D01*
X194490180Y-89214411D02*
X195490180Y-89214411D01*
D11*
%TO.C,Gyroscope1*%
X151765000Y-107315000D02*
X130175000Y-107315000D01*
X130175000Y-107315000D02*
X130175000Y-90805000D01*
X130175000Y-90805000D02*
X151765000Y-90805000D01*
X151765000Y-90805000D02*
X151765000Y-107315000D01*
%TO.C,Battery_Charger1*%
X163820000Y-141240000D02*
X130820000Y-141240000D01*
X130820000Y-141240000D02*
X130820000Y-117840000D01*
X130820000Y-117840000D02*
X163820000Y-117840000D01*
X163820000Y-117840000D02*
X163820000Y-141240000D01*
X144536000Y-141224000D02*
X136916000Y-141224000D01*
X136916000Y-141224000D02*
X136916000Y-137668000D01*
X136916000Y-137668000D02*
X144536000Y-137668000D01*
X144536000Y-137668000D02*
X144536000Y-141224000D01*
%TO.C,JST_Connector1*%
X144073418Y-114742182D02*
X147054262Y-114742182D01*
X147054262Y-114742182D02*
X147054262Y-110086629D01*
X147054262Y-110086629D02*
X144073418Y-110086629D01*
X144073418Y-110086629D02*
X144073418Y-114742182D01*
D12*
%TO.C,C2*%
X187442775Y-104370299D02*
X186942775Y-104370299D01*
X187192775Y-104120299D02*
X187192775Y-104620299D01*
X184638000Y-103265299D02*
X184638000Y-108425299D01*
X184598000Y-103265299D02*
X184598000Y-108425299D01*
X184558000Y-103266299D02*
X184558000Y-108424299D01*
X184518000Y-103267299D02*
X184518000Y-108423299D01*
X184478000Y-103269299D02*
X184478000Y-108421299D01*
X184438000Y-103272299D02*
X184438000Y-108418299D01*
X184398000Y-103276299D02*
X184398000Y-104805299D01*
X184398000Y-106885299D02*
X184398000Y-108414299D01*
X184358000Y-103280299D02*
X184358000Y-104805299D01*
X184358000Y-106885299D02*
X184358000Y-108410299D01*
X184318000Y-103284299D02*
X184318000Y-104805299D01*
X184318000Y-106885299D02*
X184318000Y-108406299D01*
X184278000Y-103289299D02*
X184278000Y-104805299D01*
X184278000Y-106885299D02*
X184278000Y-108401299D01*
X184238000Y-103295299D02*
X184238000Y-104805299D01*
X184238000Y-106885299D02*
X184238000Y-108395299D01*
X184198000Y-103302299D02*
X184198000Y-104805299D01*
X184198000Y-106885299D02*
X184198000Y-108388299D01*
X184158000Y-103309299D02*
X184158000Y-104805299D01*
X184158000Y-106885299D02*
X184158000Y-108381299D01*
X184118000Y-103317299D02*
X184118000Y-104805299D01*
X184118000Y-106885299D02*
X184118000Y-108373299D01*
X184078000Y-103325299D02*
X184078000Y-104805299D01*
X184078000Y-106885299D02*
X184078000Y-108365299D01*
X184038000Y-103334299D02*
X184038000Y-104805299D01*
X184038000Y-106885299D02*
X184038000Y-108356299D01*
X183998000Y-103344299D02*
X183998000Y-104805299D01*
X183998000Y-106885299D02*
X183998000Y-108346299D01*
X183958000Y-103354299D02*
X183958000Y-104805299D01*
X183958000Y-106885299D02*
X183958000Y-108336299D01*
X183917000Y-103365299D02*
X183917000Y-104805299D01*
X183917000Y-106885299D02*
X183917000Y-108325299D01*
X183877000Y-103377299D02*
X183877000Y-104805299D01*
X183877000Y-106885299D02*
X183877000Y-108313299D01*
X183837000Y-103390299D02*
X183837000Y-104805299D01*
X183837000Y-106885299D02*
X183837000Y-108300299D01*
X183797000Y-103403299D02*
X183797000Y-104805299D01*
X183797000Y-106885299D02*
X183797000Y-108287299D01*
X183757000Y-103417299D02*
X183757000Y-104805299D01*
X183757000Y-106885299D02*
X183757000Y-108273299D01*
X183717000Y-103431299D02*
X183717000Y-104805299D01*
X183717000Y-106885299D02*
X183717000Y-108259299D01*
X183677000Y-103447299D02*
X183677000Y-104805299D01*
X183677000Y-106885299D02*
X183677000Y-108243299D01*
X183637000Y-103463299D02*
X183637000Y-104805299D01*
X183637000Y-106885299D02*
X183637000Y-108227299D01*
X183597000Y-103480299D02*
X183597000Y-104805299D01*
X183597000Y-106885299D02*
X183597000Y-108210299D01*
X183557000Y-103497299D02*
X183557000Y-104805299D01*
X183557000Y-106885299D02*
X183557000Y-108193299D01*
X183517000Y-103516299D02*
X183517000Y-104805299D01*
X183517000Y-106885299D02*
X183517000Y-108174299D01*
X183477000Y-103535299D02*
X183477000Y-104805299D01*
X183477000Y-106885299D02*
X183477000Y-108155299D01*
X183437000Y-103555299D02*
X183437000Y-104805299D01*
X183437000Y-106885299D02*
X183437000Y-108135299D01*
X183397000Y-103577299D02*
X183397000Y-104805299D01*
X183397000Y-106885299D02*
X183397000Y-108113299D01*
X183357000Y-103598299D02*
X183357000Y-104805299D01*
X183357000Y-106885299D02*
X183357000Y-108092299D01*
X183317000Y-103621299D02*
X183317000Y-104805299D01*
X183317000Y-106885299D02*
X183317000Y-108069299D01*
X183277000Y-103645299D02*
X183277000Y-104805299D01*
X183277000Y-106885299D02*
X183277000Y-108045299D01*
X183237000Y-103670299D02*
X183237000Y-104805299D01*
X183237000Y-106885299D02*
X183237000Y-108020299D01*
X183197000Y-103696299D02*
X183197000Y-104805299D01*
X183197000Y-106885299D02*
X183197000Y-107994299D01*
X183157000Y-103723299D02*
X183157000Y-104805299D01*
X183157000Y-106885299D02*
X183157000Y-107967299D01*
X183117000Y-103750299D02*
X183117000Y-104805299D01*
X183117000Y-106885299D02*
X183117000Y-107940299D01*
X183077000Y-103780299D02*
X183077000Y-104805299D01*
X183077000Y-106885299D02*
X183077000Y-107910299D01*
X183037000Y-103810299D02*
X183037000Y-104805299D01*
X183037000Y-106885299D02*
X183037000Y-107880299D01*
X182997000Y-103841299D02*
X182997000Y-104805299D01*
X182997000Y-106885299D02*
X182997000Y-107849299D01*
X182957000Y-103874299D02*
X182957000Y-104805299D01*
X182957000Y-106885299D02*
X182957000Y-107816299D01*
X182917000Y-103908299D02*
X182917000Y-104805299D01*
X182917000Y-106885299D02*
X182917000Y-107782299D01*
X182877000Y-103944299D02*
X182877000Y-104805299D01*
X182877000Y-106885299D02*
X182877000Y-107746299D01*
X182837000Y-103981299D02*
X182837000Y-104805299D01*
X182837000Y-106885299D02*
X182837000Y-107709299D01*
X182797000Y-104019299D02*
X182797000Y-104805299D01*
X182797000Y-106885299D02*
X182797000Y-107671299D01*
X182757000Y-104060299D02*
X182757000Y-104805299D01*
X182757000Y-106885299D02*
X182757000Y-107630299D01*
X182717000Y-104102299D02*
X182717000Y-104805299D01*
X182717000Y-106885299D02*
X182717000Y-107588299D01*
X182677000Y-104146299D02*
X182677000Y-104805299D01*
X182677000Y-106885299D02*
X182677000Y-107544299D01*
X182637000Y-104192299D02*
X182637000Y-104805299D01*
X182637000Y-106885299D02*
X182637000Y-107498299D01*
X182597000Y-104240299D02*
X182597000Y-104805299D01*
X182597000Y-106885299D02*
X182597000Y-107450299D01*
X182557000Y-104291299D02*
X182557000Y-104805299D01*
X182557000Y-106885299D02*
X182557000Y-107399299D01*
X182517000Y-104345299D02*
X182517000Y-104805299D01*
X182517000Y-106885299D02*
X182517000Y-107345299D01*
X182477000Y-104402299D02*
X182477000Y-104805299D01*
X182477000Y-106885299D02*
X182477000Y-107288299D01*
X182437000Y-104462299D02*
X182437000Y-104805299D01*
X182437000Y-106885299D02*
X182437000Y-107228299D01*
X182397000Y-104526299D02*
X182397000Y-104805299D01*
X182397000Y-106885299D02*
X182397000Y-107164299D01*
X182357000Y-104594299D02*
X182357000Y-104805299D01*
X182357000Y-106885299D02*
X182357000Y-107096299D01*
X182317000Y-104667299D02*
X182317000Y-107023299D01*
X182277000Y-104747299D02*
X182277000Y-106943299D01*
X182237000Y-104834299D02*
X182237000Y-106856299D01*
X182197000Y-104930299D02*
X182197000Y-106760299D01*
X182157000Y-105040299D02*
X182157000Y-106650299D01*
X182117000Y-105168299D02*
X182117000Y-106522299D01*
X182077000Y-105327299D02*
X182077000Y-106363299D01*
X182037000Y-105561299D02*
X182037000Y-106129299D01*
X187258000Y-105845299D02*
G75*
G03*
X187258000Y-105845299I-2620000J0D01*
G01*
%TO.C,C1*%
X187442775Y-98601000D02*
X186942775Y-98601000D01*
X187192775Y-98351000D02*
X187192775Y-98851000D01*
X184638000Y-97496000D02*
X184638000Y-102656000D01*
X184598000Y-97496000D02*
X184598000Y-102656000D01*
X184558000Y-97497000D02*
X184558000Y-102655000D01*
X184518000Y-97498000D02*
X184518000Y-102654000D01*
X184478000Y-97500000D02*
X184478000Y-102652000D01*
X184438000Y-97503000D02*
X184438000Y-102649000D01*
X184398000Y-97507000D02*
X184398000Y-99036000D01*
X184398000Y-101116000D02*
X184398000Y-102645000D01*
X184358000Y-97511000D02*
X184358000Y-99036000D01*
X184358000Y-101116000D02*
X184358000Y-102641000D01*
X184318000Y-97515000D02*
X184318000Y-99036000D01*
X184318000Y-101116000D02*
X184318000Y-102637000D01*
X184278000Y-97520000D02*
X184278000Y-99036000D01*
X184278000Y-101116000D02*
X184278000Y-102632000D01*
X184238000Y-97526000D02*
X184238000Y-99036000D01*
X184238000Y-101116000D02*
X184238000Y-102626000D01*
X184198000Y-97533000D02*
X184198000Y-99036000D01*
X184198000Y-101116000D02*
X184198000Y-102619000D01*
X184158000Y-97540000D02*
X184158000Y-99036000D01*
X184158000Y-101116000D02*
X184158000Y-102612000D01*
X184118000Y-97548000D02*
X184118000Y-99036000D01*
X184118000Y-101116000D02*
X184118000Y-102604000D01*
X184078000Y-97556000D02*
X184078000Y-99036000D01*
X184078000Y-101116000D02*
X184078000Y-102596000D01*
X184038000Y-97565000D02*
X184038000Y-99036000D01*
X184038000Y-101116000D02*
X184038000Y-102587000D01*
X183998000Y-97575000D02*
X183998000Y-99036000D01*
X183998000Y-101116000D02*
X183998000Y-102577000D01*
X183958000Y-97585000D02*
X183958000Y-99036000D01*
X183958000Y-101116000D02*
X183958000Y-102567000D01*
X183917000Y-97596000D02*
X183917000Y-99036000D01*
X183917000Y-101116000D02*
X183917000Y-102556000D01*
X183877000Y-97608000D02*
X183877000Y-99036000D01*
X183877000Y-101116000D02*
X183877000Y-102544000D01*
X183837000Y-97621000D02*
X183837000Y-99036000D01*
X183837000Y-101116000D02*
X183837000Y-102531000D01*
X183797000Y-97634000D02*
X183797000Y-99036000D01*
X183797000Y-101116000D02*
X183797000Y-102518000D01*
X183757000Y-97648000D02*
X183757000Y-99036000D01*
X183757000Y-101116000D02*
X183757000Y-102504000D01*
X183717000Y-97662000D02*
X183717000Y-99036000D01*
X183717000Y-101116000D02*
X183717000Y-102490000D01*
X183677000Y-97678000D02*
X183677000Y-99036000D01*
X183677000Y-101116000D02*
X183677000Y-102474000D01*
X183637000Y-97694000D02*
X183637000Y-99036000D01*
X183637000Y-101116000D02*
X183637000Y-102458000D01*
X183597000Y-97711000D02*
X183597000Y-99036000D01*
X183597000Y-101116000D02*
X183597000Y-102441000D01*
X183557000Y-97728000D02*
X183557000Y-99036000D01*
X183557000Y-101116000D02*
X183557000Y-102424000D01*
X183517000Y-97747000D02*
X183517000Y-99036000D01*
X183517000Y-101116000D02*
X183517000Y-102405000D01*
X183477000Y-97766000D02*
X183477000Y-99036000D01*
X183477000Y-101116000D02*
X183477000Y-102386000D01*
X183437000Y-97786000D02*
X183437000Y-99036000D01*
X183437000Y-101116000D02*
X183437000Y-102366000D01*
X183397000Y-97808000D02*
X183397000Y-99036000D01*
X183397000Y-101116000D02*
X183397000Y-102344000D01*
X183357000Y-97829000D02*
X183357000Y-99036000D01*
X183357000Y-101116000D02*
X183357000Y-102323000D01*
X183317000Y-97852000D02*
X183317000Y-99036000D01*
X183317000Y-101116000D02*
X183317000Y-102300000D01*
X183277000Y-97876000D02*
X183277000Y-99036000D01*
X183277000Y-101116000D02*
X183277000Y-102276000D01*
X183237000Y-97901000D02*
X183237000Y-99036000D01*
X183237000Y-101116000D02*
X183237000Y-102251000D01*
X183197000Y-97927000D02*
X183197000Y-99036000D01*
X183197000Y-101116000D02*
X183197000Y-102225000D01*
X183157000Y-97954000D02*
X183157000Y-99036000D01*
X183157000Y-101116000D02*
X183157000Y-102198000D01*
X183117000Y-97981000D02*
X183117000Y-99036000D01*
X183117000Y-101116000D02*
X183117000Y-102171000D01*
X183077000Y-98011000D02*
X183077000Y-99036000D01*
X183077000Y-101116000D02*
X183077000Y-102141000D01*
X183037000Y-98041000D02*
X183037000Y-99036000D01*
X183037000Y-101116000D02*
X183037000Y-102111000D01*
X182997000Y-98072000D02*
X182997000Y-99036000D01*
X182997000Y-101116000D02*
X182997000Y-102080000D01*
X182957000Y-98105000D02*
X182957000Y-99036000D01*
X182957000Y-101116000D02*
X182957000Y-102047000D01*
X182917000Y-98139000D02*
X182917000Y-99036000D01*
X182917000Y-101116000D02*
X182917000Y-102013000D01*
X182877000Y-98175000D02*
X182877000Y-99036000D01*
X182877000Y-101116000D02*
X182877000Y-101977000D01*
X182837000Y-98212000D02*
X182837000Y-99036000D01*
X182837000Y-101116000D02*
X182837000Y-101940000D01*
X182797000Y-98250000D02*
X182797000Y-99036000D01*
X182797000Y-101116000D02*
X182797000Y-101902000D01*
X182757000Y-98291000D02*
X182757000Y-99036000D01*
X182757000Y-101116000D02*
X182757000Y-101861000D01*
X182717000Y-98333000D02*
X182717000Y-99036000D01*
X182717000Y-101116000D02*
X182717000Y-101819000D01*
X182677000Y-98377000D02*
X182677000Y-99036000D01*
X182677000Y-101116000D02*
X182677000Y-101775000D01*
X182637000Y-98423000D02*
X182637000Y-99036000D01*
X182637000Y-101116000D02*
X182637000Y-101729000D01*
X182597000Y-98471000D02*
X182597000Y-99036000D01*
X182597000Y-101116000D02*
X182597000Y-101681000D01*
X182557000Y-98522000D02*
X182557000Y-99036000D01*
X182557000Y-101116000D02*
X182557000Y-101630000D01*
X182517000Y-98576000D02*
X182517000Y-99036000D01*
X182517000Y-101116000D02*
X182517000Y-101576000D01*
X182477000Y-98633000D02*
X182477000Y-99036000D01*
X182477000Y-101116000D02*
X182477000Y-101519000D01*
X182437000Y-98693000D02*
X182437000Y-99036000D01*
X182437000Y-101116000D02*
X182437000Y-101459000D01*
X182397000Y-98757000D02*
X182397000Y-99036000D01*
X182397000Y-101116000D02*
X182397000Y-101395000D01*
X182357000Y-98825000D02*
X182357000Y-99036000D01*
X182357000Y-101116000D02*
X182357000Y-101327000D01*
X182317000Y-98898000D02*
X182317000Y-101254000D01*
X182277000Y-98978000D02*
X182277000Y-101174000D01*
X182237000Y-99065000D02*
X182237000Y-101087000D01*
X182197000Y-99161000D02*
X182197000Y-100991000D01*
X182157000Y-99271000D02*
X182157000Y-100881000D01*
X182117000Y-99399000D02*
X182117000Y-100753000D01*
X182077000Y-99558000D02*
X182077000Y-100594000D01*
X182037000Y-99792000D02*
X182037000Y-100360000D01*
X187258000Y-100076000D02*
G75*
G03*
X187258000Y-100076000I-2620000J0D01*
G01*
%TO.C,3.3V_Reg1*%
X181322000Y-103864000D02*
X181322000Y-107464000D01*
X181310478Y-103825522D02*
G75*
G03*
X176872000Y-105664000I-1838478J-1838478D01*
G01*
X176872000Y-105664000D02*
G75*
G03*
X181310478Y-107502478I2600000J0D01*
G01*
D11*
%TO.C,Arduino_Mega_Pro1*%
X86995000Y-140970000D02*
X125495000Y-140970000D01*
X125495000Y-140970000D02*
X125495000Y-87470000D01*
X125495000Y-87470000D02*
X86995000Y-87470000D01*
X86995000Y-87470000D02*
X86995000Y-140970000D01*
X110490000Y-141605000D02*
X117475000Y-141605000D01*
X117475000Y-141605000D02*
X117475000Y-136525000D01*
X117475000Y-136525000D02*
X110490000Y-136525000D01*
X110490000Y-136525000D02*
X110490000Y-141605000D01*
D12*
%TO.C,R5*%
X135350000Y-116686000D02*
X128810000Y-116686000D01*
X135350000Y-116356000D02*
X135350000Y-116686000D01*
X135350000Y-114276000D02*
X135350000Y-113946000D01*
X135350000Y-113946000D02*
X128810000Y-113946000D01*
X128810000Y-116686000D02*
X128810000Y-116356000D01*
X128810000Y-113946000D02*
X128810000Y-114276000D01*
D11*
%TO.C,NRF24*%
X187960000Y-97155000D02*
X172720000Y-97155000D01*
X172720000Y-97155000D02*
X172720000Y-56515000D01*
X172720000Y-56515000D02*
X187960000Y-56515000D01*
X187960000Y-56515000D02*
X187960000Y-97155000D01*
X198501000Y-97155000D02*
X188849000Y-97155000D01*
X188849000Y-97155000D02*
X188849000Y-88392000D01*
X188849000Y-88392000D02*
X198501000Y-88392000D01*
X198501000Y-88392000D02*
X198501000Y-97155000D01*
X185420000Y-67945000D02*
X175260000Y-67945000D01*
X175260000Y-67945000D02*
X175260000Y-56515000D01*
X175260000Y-56515000D02*
X185420000Y-56515000D01*
X185420000Y-56515000D02*
X185420000Y-67945000D01*
%TD*%
M02*
