%TF.GenerationSoftware,KiCad,Pcbnew,7.0.8*%
%TF.CreationDate,2023-11-09T04:02:46-05:00*%
%TF.ProjectId,RCTransmitterAecertRobotics,52435472-616e-4736-9d69-747465724165,rev?*%
%TF.SameCoordinates,Original*%
%TF.FileFunction,Soldermask,Bot*%
%TF.FilePolarity,Negative*%
%FSLAX46Y46*%
G04 Gerber Fmt 4.6, Leading zero omitted, Abs format (unit mm)*
G04 Created by KiCad (PCBNEW 7.0.8) date 2023-11-09 04:02:46*
%MOMM*%
%LPD*%
G01*
G04 APERTURE LIST*
G04 Aperture macros list*
%AMRoundRect*
0 Rectangle with rounded corners*
0 $1 Rounding radius*
0 $2 $3 $4 $5 $6 $7 $8 $9 X,Y pos of 4 corners*
0 Add a 4 corners polygon primitive as box body*
4,1,4,$2,$3,$4,$5,$6,$7,$8,$9,$2,$3,0*
0 Add four circle primitives for the rounded corners*
1,1,$1+$1,$2,$3*
1,1,$1+$1,$4,$5*
1,1,$1+$1,$6,$7*
1,1,$1+$1,$8,$9*
0 Add four rect primitives between the rounded corners*
20,1,$1+$1,$2,$3,$4,$5,0*
20,1,$1+$1,$4,$5,$6,$7,0*
20,1,$1+$1,$6,$7,$8,$9,0*
20,1,$1+$1,$8,$9,$2,$3,0*%
G04 Aperture macros list end*
%ADD10C,1.524000*%
%ADD11R,1.524000X1.524000*%
%ADD12R,3.000000X3.000000*%
%ADD13C,1.600000*%
%ADD14C,3.200000*%
%ADD15R,3.800000X2.500000*%
%ADD16RoundRect,1.250000X0.650000X0.000000X-0.650000X0.000000X-0.650000X0.000000X0.650000X0.000000X0*%
%ADD17C,2.000000*%
%ADD18R,2.000000X2.000000*%
%ADD19R,3.200000X2.000000*%
%ADD20R,1.600000X1.600000*%
%ADD21O,1.600000X1.600000*%
%ADD22R,1.350000X1.350000*%
%ADD23O,1.350000X1.350000*%
%ADD24R,7.000000X2.900000*%
%ADD25O,7.000000X2.900000*%
%ADD26C,4.000000*%
%ADD27R,1.800000X1.800000*%
%ADD28C,1.800000*%
%ADD29O,1.500000X1.050000*%
%ADD30R,1.500000X1.050000*%
%ADD31C,1.650000*%
%ADD32R,1.650000X1.650000*%
%ADD33C,1.950000*%
%ADD34R,1.950000X1.950000*%
%ADD35R,2.400000X2.400000*%
G04 APERTURE END LIST*
D10*
%TO.C,Gyroscope1*%
X149860000Y-106045000D03*
D11*
X147320000Y-106045000D03*
D10*
X144780000Y-106045000D03*
X142240000Y-106045000D03*
X139700000Y-106045000D03*
X137160000Y-106045000D03*
X134620000Y-106045000D03*
X132080000Y-106045000D03*
%TD*%
D12*
%TO.C,Battery_Charger1*%
X162316000Y-139700000D03*
X154696000Y-139700000D03*
X148346000Y-139700000D03*
X133106000Y-139700000D03*
X145552000Y-119380000D03*
X135900000Y-119380000D03*
%TD*%
D13*
%TO.C,JST_Connector1*%
X145597418Y-113472182D03*
X145597418Y-111472182D03*
%TD*%
D14*
%TO.C,H3*%
X83185000Y-137795000D03*
%TD*%
D15*
%TO.C,Toggle4*%
X118110000Y-67977000D03*
D16*
X118110000Y-63777000D03*
%TD*%
D17*
%TO.C,Rotary_Encoder1*%
X181080000Y-116920000D03*
X181080000Y-121920000D03*
D18*
X181080000Y-119420000D03*
D19*
X188580000Y-113820000D03*
X188580000Y-125020000D03*
D17*
X195580000Y-121920000D03*
D18*
X195580000Y-116920000D03*
%TD*%
D14*
%TO.C,H4*%
X198755000Y-137795000D03*
%TD*%
%TO.C,H9*%
X107306032Y-99690751D03*
%TD*%
D13*
%TO.C,C2*%
X185888000Y-105845299D03*
D20*
X183388000Y-105845299D03*
%TD*%
D13*
%TO.C,R4*%
X181102000Y-135890000D03*
D21*
X181102000Y-128270000D03*
%TD*%
D18*
%TO.C,Button3*%
X94540000Y-123480000D03*
X101040000Y-123480000D03*
D17*
X94540000Y-127980000D03*
X101040000Y-127980000D03*
%TD*%
D13*
%TO.C,C1*%
X185888000Y-100076000D03*
D20*
X183388000Y-100076000D03*
%TD*%
D14*
%TO.C,H7*%
X125730000Y-72136000D03*
%TD*%
D15*
%TO.C,Toggle2*%
X148590000Y-67977000D03*
D16*
X148590000Y-63777000D03*
%TD*%
D22*
%TO.C,Bumper2*%
X96012000Y-59595000D03*
D23*
X96012000Y-61595000D03*
%TD*%
D14*
%TO.C,H2*%
X198755000Y-60325000D03*
%TD*%
%TO.C,H10*%
X107445778Y-139162731D03*
%TD*%
D18*
%TO.C,Button4*%
X94540000Y-133300000D03*
X101040000Y-133300000D03*
D17*
X94540000Y-137800000D03*
X101040000Y-137800000D03*
%TD*%
D18*
%TO.C,Button2*%
X94540000Y-113320000D03*
X101040000Y-113320000D03*
D17*
X94540000Y-117820000D03*
X101040000Y-117820000D03*
%TD*%
D18*
%TO.C,Button1*%
X94540000Y-103160000D03*
X101040000Y-103160000D03*
D17*
X94540000Y-107660000D03*
X101040000Y-107660000D03*
%TD*%
D13*
%TO.C,R2*%
X83312000Y-118872000D03*
D21*
X83312000Y-111252000D03*
%TD*%
D22*
%TO.C,Bumper1*%
X89408000Y-59595000D03*
D23*
X89408000Y-61595000D03*
%TD*%
D24*
%TO.C,K1*%
X140970000Y-91470000D03*
D25*
X140970000Y-84470000D03*
X140970000Y-77470000D03*
%TD*%
D14*
%TO.C,H6*%
X174493637Y-99822788D03*
%TD*%
D20*
%TO.C,R1*%
X83312000Y-100838000D03*
D21*
X83312000Y-108458000D03*
%TD*%
D15*
%TO.C,Toggle1*%
X163830000Y-67977000D03*
D16*
X163830000Y-63777000D03*
%TD*%
D26*
%TO.C,Pot1*%
X127000000Y-85090000D03*
X118200000Y-85090000D03*
D27*
X120100000Y-78090000D03*
D28*
X122600000Y-78090000D03*
X125100000Y-78090000D03*
%TD*%
D22*
%TO.C,Bumper3*%
X186944000Y-59595000D03*
D23*
X186944000Y-61595000D03*
%TD*%
D15*
%TO.C,Toggle3*%
X133350000Y-67977000D03*
D16*
X133350000Y-63777000D03*
%TD*%
D26*
%TO.C,Pot2*%
X163740000Y-85090000D03*
X154940000Y-85090000D03*
D27*
X156840000Y-78090000D03*
D28*
X159340000Y-78090000D03*
X161840000Y-78090000D03*
%TD*%
D13*
%TO.C,R3*%
X185420000Y-135890000D03*
D21*
X185420000Y-128270000D03*
%TD*%
D14*
%TO.C,H1*%
X83185000Y-60325000D03*
%TD*%
D29*
%TO.C,3.3V_Reg1*%
X179472000Y-104394000D03*
X179472000Y-105664000D03*
D30*
X179472000Y-106934000D03*
%TD*%
D10*
%TO.C,OLED_LCD_Display1*%
X133350000Y-99060000D03*
X135890000Y-99060000D03*
X138430000Y-99060000D03*
X140970000Y-99060000D03*
X143510000Y-99060000D03*
X146050000Y-99060000D03*
D11*
X148590000Y-99060000D03*
%TD*%
D14*
%TO.C,H8*%
X156210000Y-72136000D03*
%TD*%
%TO.C,H5*%
X174498151Y-139192604D03*
%TD*%
D31*
%TO.C,Joystick1*%
X96335000Y-84850000D03*
X98835000Y-84850000D03*
D32*
X101335000Y-84850000D03*
D31*
X90105000Y-73620000D03*
X90105000Y-76120000D03*
D32*
X90105000Y-78620000D03*
D33*
X102085000Y-70370000D03*
X95585000Y-70370000D03*
D34*
X102085000Y-65870000D03*
X95585000Y-65870000D03*
D35*
X92510000Y-81120000D03*
X105160000Y-81120000D03*
X105160000Y-71120000D03*
X92510000Y-71120000D03*
%TD*%
D22*
%TO.C,Bumper4*%
X193548000Y-59595000D03*
D23*
X193548000Y-61595000D03*
%TD*%
D31*
%TO.C,Joystick2*%
X180605000Y-84850000D03*
X183105000Y-84850000D03*
D32*
X185605000Y-84850000D03*
D31*
X174375000Y-73620000D03*
X174375000Y-76120000D03*
D32*
X174375000Y-78620000D03*
D33*
X186355000Y-70370000D03*
X179855000Y-70370000D03*
D34*
X186355000Y-65870000D03*
X179855000Y-65870000D03*
D35*
X176780000Y-81120000D03*
X189430000Y-81120000D03*
X189430000Y-71120000D03*
X176780000Y-71120000D03*
%TD*%
D10*
%TO.C,Arduino_Mega_Pro1*%
X90805000Y-127000000D03*
X88265000Y-127000000D03*
X90805000Y-124460000D03*
X88265000Y-124460000D03*
X88265000Y-132080000D03*
X90805000Y-132080000D03*
X90805000Y-121920000D03*
X88265000Y-121920000D03*
X88265000Y-134620000D03*
X90805000Y-134620000D03*
X106680000Y-88900000D03*
X90805000Y-119380000D03*
X88265000Y-119380000D03*
X90805000Y-116840000D03*
X88265000Y-116840000D03*
X90805000Y-114300000D03*
X88265000Y-114300000D03*
X90805000Y-111760000D03*
X88265000Y-111760000D03*
X90805000Y-109220000D03*
X88265000Y-109220000D03*
X90805000Y-106680000D03*
X88265000Y-106680000D03*
X90805000Y-104140000D03*
X88265000Y-104140000D03*
X90805000Y-101600000D03*
X88265000Y-101600000D03*
X90805000Y-99060000D03*
X88265000Y-99060000D03*
X90805000Y-96520000D03*
X88265000Y-96520000D03*
X90805000Y-93980000D03*
X88265000Y-93980000D03*
X90805000Y-91440000D03*
X88265000Y-91440000D03*
X90805000Y-88900000D03*
X88265000Y-88900000D03*
X124460000Y-106680000D03*
X121920000Y-106680000D03*
X124460000Y-104140000D03*
X121920000Y-104140000D03*
X124460000Y-101600000D03*
X121920000Y-101600000D03*
X124460000Y-99060000D03*
X121920000Y-99060000D03*
X124460000Y-96520000D03*
X121920000Y-96520000D03*
X124460000Y-93980000D03*
X121920000Y-93980000D03*
X124460000Y-91440000D03*
X121920000Y-91440000D03*
X124460000Y-88900000D03*
X121920000Y-88900000D03*
X119380000Y-88900000D03*
X119380000Y-91440000D03*
X106680000Y-91440000D03*
X116840000Y-88900000D03*
X104140000Y-88900000D03*
X116840000Y-91440000D03*
X104140000Y-91440000D03*
X114300000Y-88900000D03*
X114300000Y-91440000D03*
X124460000Y-127000000D03*
X121920000Y-127000000D03*
X124460000Y-124460000D03*
X121920000Y-124460000D03*
X124460000Y-121920000D03*
X121920000Y-121920000D03*
X124460000Y-119380000D03*
X121920000Y-119380000D03*
X124460000Y-116840000D03*
X121920000Y-116840000D03*
X124460000Y-114300000D03*
X121920000Y-114300000D03*
X124460000Y-111760000D03*
X121920000Y-111760000D03*
X124460000Y-109220000D03*
X121920000Y-109220000D03*
X90805000Y-129540000D03*
D11*
X88265000Y-137160000D03*
X90805000Y-137160000D03*
X101600000Y-88900000D03*
D10*
X88265000Y-129540000D03*
X101600000Y-91440000D03*
X88265000Y-139700000D03*
X90805000Y-139700000D03*
%TD*%
D13*
%TO.C,R5*%
X135890000Y-115316000D03*
D21*
X128270000Y-115316000D03*
%TD*%
D10*
%TO.C,NRF24*%
X184150000Y-92075000D03*
X181610000Y-92075000D03*
X179070000Y-92075000D03*
X176530000Y-92075000D03*
X176530000Y-94615000D03*
X179070000Y-94615000D03*
X181610000Y-94615000D03*
D11*
X184150000Y-94615000D03*
%TD*%
M02*
