#define controls_20icon_width 12
#define controls_20icon_height 12
static unsigned char controls_20icon_bits[] = {
   0x00, 0x00, 0x00, 0x00, 0x00, 0x00, 0xfc, 0x03, 0xbe, 0x07, 0xfb, 0x0f,
   0xf1, 0x09, 0xfb, 0x09, 0x0f, 0x0f, 0x06, 0x06, 0x00, 0x00, 0x00, 0x00 };
