#define gait_20icon_width 12
#define gait_20icon_height 12
static unsigned char gait_20icon_bits[] = {
   0x00, 0x00, 0xf0, 0x00, 0xfc, 0x03, 0xdc, 0x03, 0xde, 0x07, 0xde, 0x07,
   0x1e, 0x04, 0xfe, 0x07, 0xfc, 0x03, 0xfc, 0x03, 0xf0, 0x00, 0x00, 0x00 };
