#define hex_20base_width 13
#define hex_20base_height 15
static unsigned char hex_20base_bits[] = {
   0xe0, 0x00, 0x1c, 0x07, 0x0c, 0x06, 0x44, 0x04, 0xa2, 0x08, 0x12, 0x09,
   0x0b, 0x1a, 0x0b, 0x1a, 0x0b, 0x1a, 0x12, 0x09, 0xa2, 0x08, 0x44, 0x04,
   0x0c, 0x06, 0x1c, 0x07, 0xe0, 0x00 };
