#define stats_20icon_width 12
#define stats_20icon_height 12
static unsigned char stats_20icon_bits[] = {
   0x00, 0x00, 0x00, 0x00, 0x00, 0x00, 0x60, 0x00, 0x60, 0x00, 0x60, 0x00,
   0x60, 0x03, 0x60, 0x03, 0x6c, 0x03, 0x6c, 0x03, 0x6c, 0x03, 0x00, 0x00 };
